G04 #@! TF.FileFunction,Legend,Top*
%FSLAX46Y46*%
G04 Gerber Fmt 4.6, Leading zero omitted, Abs format (unit mm)*
G04 Created by KiCad (PCBNEW 4.0.7) date Friday, October 06, 2023 'PMt' 10:40:28 PM*
%MOMM*%
%LPD*%
G01*
G04 APERTURE LIST*
%ADD10C,0.020000*%
%ADD11C,0.127000*%
%ADD12C,0.120000*%
%ADD13C,0.150000*%
%ADD14C,0.200000*%
%ADD15C,0.400000*%
%ADD16C,0.010000*%
G04 APERTURE END LIST*
D10*
D11*
X150555000Y-195570000D02*
X150555000Y-194070000D01*
X151305000Y-194820000D02*
X149805000Y-194820000D01*
X141595000Y-134830000D02*
X172095000Y-134830000D01*
X172095000Y-134830000D02*
X172095000Y-192830000D01*
X172095000Y-192830000D02*
X141595000Y-192830000D01*
X141595000Y-192830000D02*
X141595000Y-134830000D01*
X163255000Y-195570000D02*
X163255000Y-194070000D01*
D12*
X163060000Y-87675000D02*
X162060000Y-87675000D01*
X162060000Y-86315000D02*
X163060000Y-86315000D01*
X161155000Y-106725000D02*
X160155000Y-106725000D01*
X160155000Y-105365000D02*
X161155000Y-105365000D01*
X184015000Y-139110000D02*
X183015000Y-139110000D01*
X183015000Y-137750000D02*
X184015000Y-137750000D01*
X149001100Y-105683600D02*
X148001100Y-105683600D01*
X148001100Y-104323600D02*
X149001100Y-104323600D01*
X149001100Y-105683600D02*
X148001100Y-105683600D01*
X148001100Y-104323600D02*
X149001100Y-104323600D01*
X149001100Y-105683600D02*
X148001100Y-105683600D01*
X148001100Y-104323600D02*
X149001100Y-104323600D01*
X149001100Y-105683600D02*
X148001100Y-105683600D01*
X148001100Y-104323600D02*
X149001100Y-104323600D01*
X168775000Y-92120000D02*
X167775000Y-92120000D01*
X167775000Y-90760000D02*
X168775000Y-90760000D01*
D13*
X187426078Y-113253410D02*
X187570706Y-113425770D01*
X190988185Y-110264448D02*
X191197091Y-110513412D01*
X197416575Y-117925505D02*
X197207669Y-117676541D01*
X193854469Y-120914467D02*
X193645563Y-120665503D01*
X187426078Y-113253410D02*
X190988185Y-110264448D01*
X193854469Y-120914467D02*
X197416575Y-117925505D01*
X187570706Y-113425770D02*
X186747208Y-114116767D01*
X119526815Y-55654448D02*
X119382188Y-55826808D01*
X123088922Y-58643410D02*
X122880016Y-58892375D01*
X116660531Y-66304467D02*
X116869437Y-66055503D01*
X113098425Y-63315505D02*
X113307331Y-63066541D01*
X119526815Y-55654448D02*
X123088922Y-58643410D01*
X113098425Y-63315505D02*
X116660531Y-66304467D01*
X119382188Y-55826808D02*
X118558690Y-55135811D01*
X121138185Y-98650552D02*
X121282812Y-98478192D01*
X117576078Y-95661590D02*
X117784984Y-95412625D01*
X124004469Y-88000533D02*
X123795563Y-88249497D01*
X127566575Y-90989495D02*
X127357669Y-91238459D01*
X121138185Y-98650552D02*
X117576078Y-95661590D01*
X127566575Y-90989495D02*
X124004469Y-88000533D01*
X121282812Y-98478192D02*
X122106310Y-99169189D01*
X149326078Y-92298410D02*
X149470706Y-92470770D01*
X152888185Y-89309448D02*
X153097091Y-89558412D01*
X159316575Y-96970505D02*
X159107669Y-96721541D01*
X155754469Y-99959467D02*
X155545563Y-99710503D01*
X149326078Y-92298410D02*
X152888185Y-89309448D01*
X155754469Y-99959467D02*
X159316575Y-96970505D01*
X149470706Y-92470770D02*
X148647208Y-93161767D01*
X113176815Y-105819448D02*
X113032188Y-105991808D01*
X116738922Y-108808410D02*
X116530016Y-109057375D01*
X110310531Y-116469467D02*
X110519437Y-116220503D01*
X106748425Y-113480505D02*
X106957331Y-113231541D01*
X113176815Y-105819448D02*
X116738922Y-108808410D01*
X106748425Y-113480505D02*
X110310531Y-116469467D01*
X113032188Y-105991808D02*
X112208690Y-105300811D01*
X129120000Y-101705000D02*
X129120000Y-101930000D01*
X133770000Y-101705000D02*
X133770000Y-102030000D01*
X133770000Y-111705800D02*
X133770000Y-111380800D01*
X129120000Y-111705800D02*
X129120000Y-111380800D01*
X129120000Y-101705000D02*
X133770000Y-101705000D01*
X129120000Y-111705800D02*
X133770000Y-111705800D01*
X129120000Y-101930000D02*
X128045000Y-101930000D01*
X143090000Y-103610000D02*
X143090000Y-103835000D01*
X147740000Y-103610000D02*
X147740000Y-103935000D01*
X147740000Y-113610800D02*
X147740000Y-113285800D01*
X143090000Y-113610800D02*
X143090000Y-113285800D01*
X143090000Y-103610000D02*
X147740000Y-103610000D01*
X143090000Y-113610800D02*
X147740000Y-113610800D01*
X143090000Y-103835000D02*
X142015000Y-103835000D01*
X-43170000Y8865000D02*
X-43170000Y17805000D01*
X-43170000Y17805000D02*
X-22870000Y17805000D01*
X-22870000Y17805000D02*
X-22870000Y8865000D01*
X-22870000Y8865000D02*
X-43170000Y8865000D01*
X-35245000Y8865000D02*
X-35245000Y10165000D01*
X-35245000Y10165000D02*
X-41970000Y10165000D01*
X-41970000Y10165000D02*
X-41970000Y16505000D01*
X-41970000Y16505000D02*
X-24070000Y16505000D01*
X-24070000Y16505000D02*
X-24070000Y10165000D01*
X-24070000Y10165000D02*
X-30795000Y10165000D01*
X-30795000Y10165000D02*
X-30795000Y8865000D01*
X-33270000Y17805000D02*
X-33270000Y18005000D01*
X-33270000Y18005000D02*
X-32770000Y18005000D01*
X-32770000Y18005000D02*
X-32770000Y17805000D01*
X-33270000Y17905000D02*
X-32770000Y17905000D01*
X-25790000Y17805000D02*
X-25790000Y18005000D01*
X-25790000Y18005000D02*
X-25290000Y18005000D01*
X-25290000Y18005000D02*
X-25290000Y17805000D01*
X-25790000Y17905000D02*
X-25290000Y17905000D01*
X-40750000Y17805000D02*
X-40750000Y18005000D01*
X-40750000Y18005000D02*
X-40250000Y18005000D01*
X-40250000Y18005000D02*
X-40250000Y17805000D01*
X-40750000Y17905000D02*
X-40250000Y17905000D01*
X-40300000Y11465000D02*
X-40300000Y12665000D01*
X-40300000Y12665000D02*
X-39700000Y12065000D01*
X-39700000Y12065000D02*
X-40300000Y11465000D01*
D12*
X51335000Y1115000D02*
X51335000Y-4885000D01*
X51335000Y-4885000D02*
X92175000Y-4885000D01*
X92175000Y-4885000D02*
X92175000Y1115000D01*
X92175000Y1115000D02*
X51335000Y1115000D01*
X52705000Y-4885000D02*
X52705000Y-3885000D01*
X52705000Y-3885000D02*
X57785000Y-3885000D01*
X57785000Y-3885000D02*
X57785000Y-4885000D01*
X52705000Y-3885000D02*
X52955000Y-3455000D01*
X52955000Y-3455000D02*
X57785000Y-3455000D01*
X57785000Y-3455000D02*
X57785000Y-3885000D01*
X52955000Y-4885000D02*
X52955000Y-3885000D01*
X90805000Y-4885000D02*
X90805000Y-3885000D01*
X90805000Y-3885000D02*
X85725000Y-3885000D01*
X85725000Y-3885000D02*
X85725000Y-4885000D01*
X90805000Y-3885000D02*
X90555000Y-3455000D01*
X90555000Y-3455000D02*
X85725000Y-3455000D01*
X85725000Y-3455000D02*
X85725000Y-3885000D01*
X90555000Y-4885000D02*
X90555000Y-3885000D01*
X51905000Y1115000D02*
X51905000Y495000D01*
X51905000Y495000D02*
X53505000Y495000D01*
X53505000Y495000D02*
X53505000Y1115000D01*
X54445000Y1115000D02*
X54445000Y495000D01*
X54445000Y495000D02*
X56045000Y495000D01*
X56045000Y495000D02*
X56045000Y1115000D01*
X56985000Y1115000D02*
X56985000Y495000D01*
X56985000Y495000D02*
X58585000Y495000D01*
X58585000Y495000D02*
X58585000Y1115000D01*
X59525000Y1115000D02*
X59525000Y495000D01*
X59525000Y495000D02*
X61125000Y495000D01*
X61125000Y495000D02*
X61125000Y1115000D01*
X62065000Y1115000D02*
X62065000Y495000D01*
X62065000Y495000D02*
X63665000Y495000D01*
X63665000Y495000D02*
X63665000Y1115000D01*
X64605000Y1115000D02*
X64605000Y495000D01*
X64605000Y495000D02*
X66205000Y495000D01*
X66205000Y495000D02*
X66205000Y1115000D01*
X67145000Y1115000D02*
X67145000Y495000D01*
X67145000Y495000D02*
X68745000Y495000D01*
X68745000Y495000D02*
X68745000Y1115000D01*
X69685000Y1115000D02*
X69685000Y495000D01*
X69685000Y495000D02*
X71285000Y495000D01*
X71285000Y495000D02*
X71285000Y1115000D01*
X72225000Y1115000D02*
X72225000Y495000D01*
X72225000Y495000D02*
X73825000Y495000D01*
X73825000Y495000D02*
X73825000Y1115000D01*
X74765000Y1115000D02*
X74765000Y495000D01*
X74765000Y495000D02*
X76365000Y495000D01*
X76365000Y495000D02*
X76365000Y1115000D01*
X77305000Y1115000D02*
X77305000Y495000D01*
X77305000Y495000D02*
X78905000Y495000D01*
X78905000Y495000D02*
X78905000Y1115000D01*
X79845000Y1115000D02*
X79845000Y495000D01*
X79845000Y495000D02*
X81445000Y495000D01*
X81445000Y495000D02*
X81445000Y1115000D01*
X82385000Y1115000D02*
X82385000Y495000D01*
X82385000Y495000D02*
X83985000Y495000D01*
X83985000Y495000D02*
X83985000Y1115000D01*
X84925000Y1115000D02*
X84925000Y495000D01*
X84925000Y495000D02*
X86525000Y495000D01*
X86525000Y495000D02*
X86525000Y1115000D01*
X87465000Y1115000D02*
X87465000Y495000D01*
X87465000Y495000D02*
X89065000Y495000D01*
X89065000Y495000D02*
X89065000Y1115000D01*
X90005000Y1115000D02*
X90005000Y495000D01*
X90005000Y495000D02*
X91605000Y495000D01*
X91605000Y495000D02*
X91605000Y1115000D01*
X45620000Y15085000D02*
X45620000Y9085000D01*
X45620000Y9085000D02*
X76300000Y9085000D01*
X76300000Y9085000D02*
X76300000Y15085000D01*
X76300000Y15085000D02*
X45620000Y15085000D01*
X46990000Y9085000D02*
X46990000Y10085000D01*
X46990000Y10085000D02*
X52070000Y10085000D01*
X52070000Y10085000D02*
X52070000Y9085000D01*
X46990000Y10085000D02*
X47240000Y10515000D01*
X47240000Y10515000D02*
X52070000Y10515000D01*
X52070000Y10515000D02*
X52070000Y10085000D01*
X47240000Y9085000D02*
X47240000Y10085000D01*
X74930000Y9085000D02*
X74930000Y10085000D01*
X74930000Y10085000D02*
X69850000Y10085000D01*
X69850000Y10085000D02*
X69850000Y9085000D01*
X74930000Y10085000D02*
X74680000Y10515000D01*
X74680000Y10515000D02*
X69850000Y10515000D01*
X69850000Y10515000D02*
X69850000Y10085000D01*
X74680000Y9085000D02*
X74680000Y10085000D01*
X46190000Y15085000D02*
X46190000Y14465000D01*
X46190000Y14465000D02*
X47790000Y14465000D01*
X47790000Y14465000D02*
X47790000Y15085000D01*
X48730000Y15085000D02*
X48730000Y14465000D01*
X48730000Y14465000D02*
X50330000Y14465000D01*
X50330000Y14465000D02*
X50330000Y15085000D01*
X51270000Y15085000D02*
X51270000Y14465000D01*
X51270000Y14465000D02*
X52870000Y14465000D01*
X52870000Y14465000D02*
X52870000Y15085000D01*
X53810000Y15085000D02*
X53810000Y14465000D01*
X53810000Y14465000D02*
X55410000Y14465000D01*
X55410000Y14465000D02*
X55410000Y15085000D01*
X56350000Y15085000D02*
X56350000Y14465000D01*
X56350000Y14465000D02*
X57950000Y14465000D01*
X57950000Y14465000D02*
X57950000Y15085000D01*
X58890000Y15085000D02*
X58890000Y14465000D01*
X58890000Y14465000D02*
X60490000Y14465000D01*
X60490000Y14465000D02*
X60490000Y15085000D01*
X61430000Y15085000D02*
X61430000Y14465000D01*
X61430000Y14465000D02*
X63030000Y14465000D01*
X63030000Y14465000D02*
X63030000Y15085000D01*
X63970000Y15085000D02*
X63970000Y14465000D01*
X63970000Y14465000D02*
X65570000Y14465000D01*
X65570000Y14465000D02*
X65570000Y15085000D01*
X66510000Y15085000D02*
X66510000Y14465000D01*
X66510000Y14465000D02*
X68110000Y14465000D01*
X68110000Y14465000D02*
X68110000Y15085000D01*
X69050000Y15085000D02*
X69050000Y14465000D01*
X69050000Y14465000D02*
X70650000Y14465000D01*
X70650000Y14465000D02*
X70650000Y15085000D01*
X71590000Y15085000D02*
X71590000Y14465000D01*
X71590000Y14465000D02*
X73190000Y14465000D01*
X73190000Y14465000D02*
X73190000Y15085000D01*
X74130000Y15085000D02*
X74130000Y14465000D01*
X74130000Y14465000D02*
X75730000Y14465000D01*
X75730000Y14465000D02*
X75730000Y15085000D01*
X-26770000Y-9045000D02*
X-26770000Y-15045000D01*
X-26770000Y-15045000D02*
X-16410000Y-15045000D01*
X-16410000Y-15045000D02*
X-16410000Y-9045000D01*
X-16410000Y-9045000D02*
X-26770000Y-9045000D01*
X-25400000Y-15045000D02*
X-25400000Y-14045000D01*
X-25400000Y-14045000D02*
X-17780000Y-14045000D01*
X-17780000Y-14045000D02*
X-17780000Y-15045000D01*
X-25400000Y-14045000D02*
X-25150000Y-13615000D01*
X-25150000Y-13615000D02*
X-18030000Y-13615000D01*
X-18030000Y-13615000D02*
X-17780000Y-14045000D01*
X-25150000Y-15045000D02*
X-25150000Y-14045000D01*
X-18030000Y-15045000D02*
X-18030000Y-14045000D01*
X-26200000Y-9045000D02*
X-26200000Y-9665000D01*
X-26200000Y-9665000D02*
X-24600000Y-9665000D01*
X-24600000Y-9665000D02*
X-24600000Y-9045000D01*
X-23660000Y-9045000D02*
X-23660000Y-9665000D01*
X-23660000Y-9665000D02*
X-22060000Y-9665000D01*
X-22060000Y-9665000D02*
X-22060000Y-9045000D01*
X-21120000Y-9045000D02*
X-21120000Y-9665000D01*
X-21120000Y-9665000D02*
X-19520000Y-9665000D01*
X-19520000Y-9665000D02*
X-19520000Y-9045000D01*
X-18580000Y-9045000D02*
X-18580000Y-9665000D01*
X-18580000Y-9665000D02*
X-16980000Y-9665000D01*
X-16980000Y-9665000D02*
X-16980000Y-9045000D01*
X10060000Y18895000D02*
X10060000Y12895000D01*
X10060000Y12895000D02*
X40740000Y12895000D01*
X40740000Y12895000D02*
X40740000Y18895000D01*
X40740000Y18895000D02*
X10060000Y18895000D01*
X11430000Y12895000D02*
X11430000Y13895000D01*
X11430000Y13895000D02*
X16510000Y13895000D01*
X16510000Y13895000D02*
X16510000Y12895000D01*
X11430000Y13895000D02*
X11680000Y14325000D01*
X11680000Y14325000D02*
X16510000Y14325000D01*
X16510000Y14325000D02*
X16510000Y13895000D01*
X11680000Y12895000D02*
X11680000Y13895000D01*
X39370000Y12895000D02*
X39370000Y13895000D01*
X39370000Y13895000D02*
X34290000Y13895000D01*
X34290000Y13895000D02*
X34290000Y12895000D01*
X39370000Y13895000D02*
X39120000Y14325000D01*
X39120000Y14325000D02*
X34290000Y14325000D01*
X34290000Y14325000D02*
X34290000Y13895000D01*
X39120000Y12895000D02*
X39120000Y13895000D01*
X10630000Y18895000D02*
X10630000Y18275000D01*
X10630000Y18275000D02*
X12230000Y18275000D01*
X12230000Y18275000D02*
X12230000Y18895000D01*
X13170000Y18895000D02*
X13170000Y18275000D01*
X13170000Y18275000D02*
X14770000Y18275000D01*
X14770000Y18275000D02*
X14770000Y18895000D01*
X15710000Y18895000D02*
X15710000Y18275000D01*
X15710000Y18275000D02*
X17310000Y18275000D01*
X17310000Y18275000D02*
X17310000Y18895000D01*
X18250000Y18895000D02*
X18250000Y18275000D01*
X18250000Y18275000D02*
X19850000Y18275000D01*
X19850000Y18275000D02*
X19850000Y18895000D01*
X20790000Y18895000D02*
X20790000Y18275000D01*
X20790000Y18275000D02*
X22390000Y18275000D01*
X22390000Y18275000D02*
X22390000Y18895000D01*
X23330000Y18895000D02*
X23330000Y18275000D01*
X23330000Y18275000D02*
X24930000Y18275000D01*
X24930000Y18275000D02*
X24930000Y18895000D01*
X25870000Y18895000D02*
X25870000Y18275000D01*
X25870000Y18275000D02*
X27470000Y18275000D01*
X27470000Y18275000D02*
X27470000Y18895000D01*
X28410000Y18895000D02*
X28410000Y18275000D01*
X28410000Y18275000D02*
X30010000Y18275000D01*
X30010000Y18275000D02*
X30010000Y18895000D01*
X30950000Y18895000D02*
X30950000Y18275000D01*
X30950000Y18275000D02*
X32550000Y18275000D01*
X32550000Y18275000D02*
X32550000Y18895000D01*
X33490000Y18895000D02*
X33490000Y18275000D01*
X33490000Y18275000D02*
X35090000Y18275000D01*
X35090000Y18275000D02*
X35090000Y18895000D01*
X36030000Y18895000D02*
X36030000Y18275000D01*
X36030000Y18275000D02*
X37630000Y18275000D01*
X37630000Y18275000D02*
X37630000Y18895000D01*
X38570000Y18895000D02*
X38570000Y18275000D01*
X38570000Y18275000D02*
X40170000Y18275000D01*
X40170000Y18275000D02*
X40170000Y18895000D01*
X17680000Y-1425000D02*
X17680000Y-7425000D01*
X17680000Y-7425000D02*
X25500000Y-7425000D01*
X25500000Y-7425000D02*
X25500000Y-1425000D01*
X25500000Y-1425000D02*
X17680000Y-1425000D01*
X19050000Y-7425000D02*
X19050000Y-6425000D01*
X19050000Y-6425000D02*
X24130000Y-6425000D01*
X24130000Y-6425000D02*
X24130000Y-7425000D01*
X19050000Y-6425000D02*
X19300000Y-5995000D01*
X19300000Y-5995000D02*
X23880000Y-5995000D01*
X23880000Y-5995000D02*
X24130000Y-6425000D01*
X19300000Y-7425000D02*
X19300000Y-6425000D01*
X23880000Y-7425000D02*
X23880000Y-6425000D01*
X18250000Y-1425000D02*
X18250000Y-2045000D01*
X18250000Y-2045000D02*
X19850000Y-2045000D01*
X19850000Y-2045000D02*
X19850000Y-1425000D01*
X20790000Y-1425000D02*
X20790000Y-2045000D01*
X20790000Y-2045000D02*
X22390000Y-2045000D01*
X22390000Y-2045000D02*
X22390000Y-1425000D01*
X23330000Y-1425000D02*
X23330000Y-2045000D01*
X23330000Y-2045000D02*
X24930000Y-2045000D01*
X24930000Y-2045000D02*
X24930000Y-1425000D01*
X-38200000Y-24285000D02*
X-38200000Y-30285000D01*
X-38200000Y-30285000D02*
X-7520000Y-30285000D01*
X-7520000Y-30285000D02*
X-7520000Y-24285000D01*
X-7520000Y-24285000D02*
X-38200000Y-24285000D01*
X-36830000Y-30285000D02*
X-36830000Y-29285000D01*
X-36830000Y-29285000D02*
X-31750000Y-29285000D01*
X-31750000Y-29285000D02*
X-31750000Y-30285000D01*
X-36830000Y-29285000D02*
X-36580000Y-28855000D01*
X-36580000Y-28855000D02*
X-31750000Y-28855000D01*
X-31750000Y-28855000D02*
X-31750000Y-29285000D01*
X-36580000Y-30285000D02*
X-36580000Y-29285000D01*
X-8890000Y-30285000D02*
X-8890000Y-29285000D01*
X-8890000Y-29285000D02*
X-13970000Y-29285000D01*
X-13970000Y-29285000D02*
X-13970000Y-30285000D01*
X-8890000Y-29285000D02*
X-9140000Y-28855000D01*
X-9140000Y-28855000D02*
X-13970000Y-28855000D01*
X-13970000Y-28855000D02*
X-13970000Y-29285000D01*
X-9140000Y-30285000D02*
X-9140000Y-29285000D01*
X-37630000Y-24285000D02*
X-37630000Y-24905000D01*
X-37630000Y-24905000D02*
X-36030000Y-24905000D01*
X-36030000Y-24905000D02*
X-36030000Y-24285000D01*
X-35090000Y-24285000D02*
X-35090000Y-24905000D01*
X-35090000Y-24905000D02*
X-33490000Y-24905000D01*
X-33490000Y-24905000D02*
X-33490000Y-24285000D01*
X-32550000Y-24285000D02*
X-32550000Y-24905000D01*
X-32550000Y-24905000D02*
X-30950000Y-24905000D01*
X-30950000Y-24905000D02*
X-30950000Y-24285000D01*
X-30010000Y-24285000D02*
X-30010000Y-24905000D01*
X-30010000Y-24905000D02*
X-28410000Y-24905000D01*
X-28410000Y-24905000D02*
X-28410000Y-24285000D01*
X-27470000Y-24285000D02*
X-27470000Y-24905000D01*
X-27470000Y-24905000D02*
X-25870000Y-24905000D01*
X-25870000Y-24905000D02*
X-25870000Y-24285000D01*
X-24930000Y-24285000D02*
X-24930000Y-24905000D01*
X-24930000Y-24905000D02*
X-23330000Y-24905000D01*
X-23330000Y-24905000D02*
X-23330000Y-24285000D01*
X-22390000Y-24285000D02*
X-22390000Y-24905000D01*
X-22390000Y-24905000D02*
X-20790000Y-24905000D01*
X-20790000Y-24905000D02*
X-20790000Y-24285000D01*
X-19850000Y-24285000D02*
X-19850000Y-24905000D01*
X-19850000Y-24905000D02*
X-18250000Y-24905000D01*
X-18250000Y-24905000D02*
X-18250000Y-24285000D01*
X-17310000Y-24285000D02*
X-17310000Y-24905000D01*
X-17310000Y-24905000D02*
X-15710000Y-24905000D01*
X-15710000Y-24905000D02*
X-15710000Y-24285000D01*
X-14770000Y-24285000D02*
X-14770000Y-24905000D01*
X-14770000Y-24905000D02*
X-13170000Y-24905000D01*
X-13170000Y-24905000D02*
X-13170000Y-24285000D01*
X-12230000Y-24285000D02*
X-12230000Y-24905000D01*
X-12230000Y-24905000D02*
X-10630000Y-24905000D01*
X-10630000Y-24905000D02*
X-10630000Y-24285000D01*
X-9690000Y-24285000D02*
X-9690000Y-24905000D01*
X-9690000Y-24905000D02*
X-8090000Y-24905000D01*
X-8090000Y-24905000D02*
X-8090000Y-24285000D01*
X500000Y-680000D02*
X-500000Y-680000D01*
X-500000Y680000D02*
X500000Y680000D01*
D11*
X6055000Y-26215000D02*
X10555000Y-26215000D01*
X11255000Y-28060000D02*
X11255000Y-30360000D01*
X10555000Y-32205000D02*
X5955000Y-32205000D01*
X5260000Y-28060000D02*
X5260000Y-30360000D01*
X10010000Y-29210000D02*
G75*
G03X10010000Y-29210000I-1755000J0D01*
G01*
D14*
X3910000Y-26960000D02*
G75*
G03X3910000Y-26960000I-100000J0D01*
G01*
D11*
X-7915000Y17600000D02*
X-3415000Y17600000D01*
X-2715000Y15755000D02*
X-2715000Y13455000D01*
X-3415000Y11610000D02*
X-8015000Y11610000D01*
X-8710000Y15755000D02*
X-8710000Y13455000D01*
X-3960000Y14605000D02*
G75*
G03X-3960000Y14605000I-1755000J0D01*
G01*
D14*
X-10060000Y16855000D02*
G75*
G03X-10060000Y16855000I-100000J0D01*
G01*
D12*
X109585000Y-132655000D02*
G75*
G02X107585000Y-132655000I-1000000J0D01*
G01*
X107585000Y-132655000D02*
X105935000Y-132655000D01*
X105935000Y-132655000D02*
X105935000Y-168335000D01*
X105935000Y-168335000D02*
X111235000Y-168335000D01*
X111235000Y-168335000D02*
X111235000Y-132655000D01*
X111235000Y-132655000D02*
X109585000Y-132655000D01*
X127797835Y-72574301D02*
X123201569Y-76431026D01*
X123201569Y-76431026D02*
X142922292Y-99933270D01*
X142922292Y-99933270D02*
X147518559Y-96076544D01*
X147518559Y-96076544D02*
X127797835Y-72574301D01*
X124082188Y-77480507D02*
X124848232Y-76837719D01*
X124848232Y-76837719D02*
X128113593Y-80729225D01*
X128113593Y-80729225D02*
X127347549Y-81372013D01*
X124848232Y-76837719D02*
X125338328Y-76752832D01*
X125338328Y-76752832D02*
X128442992Y-80452827D01*
X128442992Y-80452827D02*
X128113593Y-80729225D01*
X124242884Y-77672018D02*
X125008929Y-77029231D01*
X142041673Y-98883789D02*
X142807718Y-98241001D01*
X142807718Y-98241001D02*
X139542357Y-94349495D01*
X139542357Y-94349495D02*
X138776312Y-94992283D01*
X142807718Y-98241001D02*
X142976420Y-97773091D01*
X142976420Y-97773091D02*
X139871756Y-94073097D01*
X139871756Y-94073097D02*
X139542357Y-94349495D01*
X141880976Y-98692278D02*
X142647021Y-98049490D01*
X128164224Y-73010946D02*
X127689277Y-73409474D01*
X127689277Y-73409474D02*
X128717737Y-74635145D01*
X128717737Y-74635145D02*
X129192684Y-74236617D01*
X129796905Y-74956699D02*
X129321957Y-75355227D01*
X129321957Y-75355227D02*
X130350417Y-76580898D01*
X130350417Y-76580898D02*
X130825365Y-76182370D01*
X131429585Y-76902452D02*
X130954638Y-77300980D01*
X130954638Y-77300980D02*
X131983098Y-78526651D01*
X131983098Y-78526651D02*
X132458045Y-78128123D01*
X133062266Y-78848205D02*
X132587318Y-79246733D01*
X132587318Y-79246733D02*
X133615778Y-80472404D01*
X133615778Y-80472404D02*
X134090726Y-80073876D01*
X134694946Y-80793957D02*
X134219999Y-81192486D01*
X134219999Y-81192486D02*
X135248459Y-82418157D01*
X135248459Y-82418157D02*
X135723406Y-82019629D01*
X136327627Y-82739710D02*
X135852679Y-83138239D01*
X135852679Y-83138239D02*
X136881139Y-84363910D01*
X136881139Y-84363910D02*
X137356087Y-83965381D01*
X137960307Y-84685463D02*
X137485360Y-85083991D01*
X137485360Y-85083991D02*
X138513820Y-86309663D01*
X138513820Y-86309663D02*
X138988767Y-85911134D01*
X139592988Y-86631216D02*
X139118040Y-87029744D01*
X139118040Y-87029744D02*
X140146500Y-88255415D01*
X140146500Y-88255415D02*
X140621448Y-87856887D01*
X141225668Y-88576969D02*
X140750721Y-88975497D01*
X140750721Y-88975497D02*
X141779181Y-90201168D01*
X141779181Y-90201168D02*
X142254129Y-89802640D01*
X142858349Y-90522722D02*
X142383401Y-90921250D01*
X142383401Y-90921250D02*
X143411862Y-92146921D01*
X143411862Y-92146921D02*
X143886809Y-91748393D01*
X144491029Y-92468475D02*
X144016082Y-92867003D01*
X144016082Y-92867003D02*
X145044542Y-94092674D01*
X145044542Y-94092674D02*
X145519490Y-93694146D01*
X146123710Y-94414228D02*
X145648762Y-94812756D01*
X145648762Y-94812756D02*
X146677223Y-96038427D01*
X146677223Y-96038427D02*
X147152170Y-95639899D01*
X131607835Y-44634301D02*
X127011569Y-48491026D01*
X127011569Y-48491026D02*
X146732292Y-71993270D01*
X146732292Y-71993270D02*
X151328559Y-68136544D01*
X151328559Y-68136544D02*
X131607835Y-44634301D01*
X127892188Y-49540507D02*
X128658232Y-48897719D01*
X128658232Y-48897719D02*
X131923593Y-52789225D01*
X131923593Y-52789225D02*
X131157549Y-53432013D01*
X128658232Y-48897719D02*
X129148328Y-48812832D01*
X129148328Y-48812832D02*
X132252992Y-52512827D01*
X132252992Y-52512827D02*
X131923593Y-52789225D01*
X128052884Y-49732018D02*
X128818929Y-49089231D01*
X145851673Y-70943789D02*
X146617718Y-70301001D01*
X146617718Y-70301001D02*
X143352357Y-66409495D01*
X143352357Y-66409495D02*
X142586312Y-67052283D01*
X146617718Y-70301001D02*
X146786420Y-69833091D01*
X146786420Y-69833091D02*
X143681756Y-66133097D01*
X143681756Y-66133097D02*
X143352357Y-66409495D01*
X145690976Y-70752278D02*
X146457021Y-70109490D01*
X131974224Y-45070946D02*
X131499277Y-45469474D01*
X131499277Y-45469474D02*
X132527737Y-46695145D01*
X132527737Y-46695145D02*
X133002684Y-46296617D01*
X133606905Y-47016699D02*
X133131957Y-47415227D01*
X133131957Y-47415227D02*
X134160417Y-48640898D01*
X134160417Y-48640898D02*
X134635365Y-48242370D01*
X135239585Y-48962452D02*
X134764638Y-49360980D01*
X134764638Y-49360980D02*
X135793098Y-50586651D01*
X135793098Y-50586651D02*
X136268045Y-50188123D01*
X136872266Y-50908205D02*
X136397318Y-51306733D01*
X136397318Y-51306733D02*
X137425778Y-52532404D01*
X137425778Y-52532404D02*
X137900726Y-52133876D01*
X138504946Y-52853957D02*
X138029999Y-53252486D01*
X138029999Y-53252486D02*
X139058459Y-54478157D01*
X139058459Y-54478157D02*
X139533406Y-54079629D01*
X140137627Y-54799710D02*
X139662679Y-55198239D01*
X139662679Y-55198239D02*
X140691139Y-56423910D01*
X140691139Y-56423910D02*
X141166087Y-56025381D01*
X141770307Y-56745463D02*
X141295360Y-57143991D01*
X141295360Y-57143991D02*
X142323820Y-58369663D01*
X142323820Y-58369663D02*
X142798767Y-57971134D01*
X143402988Y-58691216D02*
X142928040Y-59089744D01*
X142928040Y-59089744D02*
X143956500Y-60315415D01*
X143956500Y-60315415D02*
X144431448Y-59916887D01*
X145035668Y-60636969D02*
X144560721Y-61035497D01*
X144560721Y-61035497D02*
X145589181Y-62261168D01*
X145589181Y-62261168D02*
X146064129Y-61862640D01*
X146668349Y-62582722D02*
X146193401Y-62981250D01*
X146193401Y-62981250D02*
X147221862Y-64206921D01*
X147221862Y-64206921D02*
X147696809Y-63808393D01*
X148301029Y-64528475D02*
X147826082Y-64927003D01*
X147826082Y-64927003D02*
X148854542Y-66152674D01*
X148854542Y-66152674D02*
X149329490Y-65754146D01*
X149933710Y-66474228D02*
X149458762Y-66872756D01*
X149458762Y-66872756D02*
X150487223Y-68098427D01*
X150487223Y-68098427D02*
X150962170Y-67699899D01*
X100768779Y-77438604D02*
X106677625Y-76396715D01*
X106677625Y-76396715D02*
X99585834Y-36177166D01*
X99585834Y-36177166D02*
X93676987Y-37219055D01*
X93676987Y-37219055D02*
X100768779Y-77438604D01*
X106439727Y-75047528D02*
X105454919Y-75221177D01*
X105454919Y-75221177D02*
X104572787Y-70218353D01*
X104572787Y-70218353D02*
X105557594Y-70044705D01*
X105454919Y-75221177D02*
X104988040Y-75049643D01*
X104988040Y-75049643D02*
X104149319Y-70293022D01*
X104149319Y-70293022D02*
X104572787Y-70218353D01*
X106396315Y-74801326D02*
X105411507Y-74974975D01*
X99823732Y-37526353D02*
X98838924Y-37700001D01*
X98838924Y-37700001D02*
X99721057Y-42702825D01*
X99721057Y-42702825D02*
X100705864Y-42529176D01*
X98838924Y-37700001D02*
X98458868Y-38020872D01*
X98458868Y-38020872D02*
X99297589Y-42777493D01*
X99297589Y-42777493D02*
X99721057Y-42702825D01*
X99867144Y-37772555D02*
X98882336Y-37946203D01*
X100669799Y-76877264D02*
X101280380Y-76769602D01*
X101280380Y-76769602D02*
X101002543Y-75193909D01*
X101002543Y-75193909D02*
X100391962Y-75301571D01*
X100228733Y-74375852D02*
X100839314Y-74268190D01*
X100839314Y-74268190D02*
X100561476Y-72692498D01*
X100561476Y-72692498D02*
X99950896Y-72800160D01*
X99787666Y-71874440D02*
X100398247Y-71766778D01*
X100398247Y-71766778D02*
X100120410Y-70191086D01*
X100120410Y-70191086D02*
X99509829Y-70298748D01*
X99346600Y-69373029D02*
X99957181Y-69265367D01*
X99957181Y-69265367D02*
X99679344Y-67689674D01*
X99679344Y-67689674D02*
X99068763Y-67797336D01*
X98905534Y-66871617D02*
X99516114Y-66763955D01*
X99516114Y-66763955D02*
X99238277Y-65188263D01*
X99238277Y-65188263D02*
X98627697Y-65295925D01*
X98464467Y-64370205D02*
X99075048Y-64262543D01*
X99075048Y-64262543D02*
X98797211Y-62686851D01*
X98797211Y-62686851D02*
X98186630Y-62794513D01*
X98023401Y-61868794D02*
X98633982Y-61761132D01*
X98633982Y-61761132D02*
X98356145Y-60185439D01*
X98356145Y-60185439D02*
X97745564Y-60293101D01*
X97582335Y-59367382D02*
X98192915Y-59259720D01*
X98192915Y-59259720D02*
X97915078Y-57684028D01*
X97915078Y-57684028D02*
X97304497Y-57791689D01*
X97141268Y-56865970D02*
X97751849Y-56758308D01*
X97751849Y-56758308D02*
X97474012Y-55182616D01*
X97474012Y-55182616D02*
X96863431Y-55290278D01*
X96700202Y-54364558D02*
X97310783Y-54256897D01*
X97310783Y-54256897D02*
X97032946Y-52681204D01*
X97032946Y-52681204D02*
X96422365Y-52788866D01*
X96259135Y-51863147D02*
X96869716Y-51755485D01*
X96869716Y-51755485D02*
X96591879Y-50179792D01*
X96591879Y-50179792D02*
X95981298Y-50287454D01*
X95818069Y-49361735D02*
X96428650Y-49254073D01*
X96428650Y-49254073D02*
X96150813Y-47678381D01*
X96150813Y-47678381D02*
X95540232Y-47786043D01*
X95377003Y-46860323D02*
X95987583Y-46752662D01*
X95987583Y-46752662D02*
X95709746Y-45176969D01*
X95709746Y-45176969D02*
X95099166Y-45284631D01*
X94935936Y-44358912D02*
X95546517Y-44251250D01*
X95546517Y-44251250D02*
X95268680Y-42675557D01*
X95268680Y-42675557D02*
X94658099Y-42783219D01*
X94494870Y-41857500D02*
X95105451Y-41749838D01*
X95105451Y-41749838D02*
X94827614Y-40174146D01*
X94827614Y-40174146D02*
X94217033Y-40281808D01*
X94053804Y-39356088D02*
X94664384Y-39248426D01*
X94664384Y-39248426D02*
X94386547Y-37672734D01*
X94386547Y-37672734D02*
X93775966Y-37780396D01*
X79530000Y-122655000D02*
X85530000Y-122655000D01*
X85530000Y-122655000D02*
X85530000Y-91975000D01*
X85530000Y-91975000D02*
X79530000Y-91975000D01*
X79530000Y-91975000D02*
X79530000Y-122655000D01*
X85530000Y-121285000D02*
X84530000Y-121285000D01*
X84530000Y-121285000D02*
X84530000Y-116205000D01*
X84530000Y-116205000D02*
X85530000Y-116205000D01*
X84530000Y-121285000D02*
X84100000Y-121035000D01*
X84100000Y-121035000D02*
X84100000Y-116205000D01*
X84100000Y-116205000D02*
X84530000Y-116205000D01*
X85530000Y-121035000D02*
X84530000Y-121035000D01*
X85530000Y-93345000D02*
X84530000Y-93345000D01*
X84530000Y-93345000D02*
X84530000Y-98425000D01*
X84530000Y-98425000D02*
X85530000Y-98425000D01*
X84530000Y-93345000D02*
X84100000Y-93595000D01*
X84100000Y-93595000D02*
X84100000Y-98425000D01*
X84100000Y-98425000D02*
X84530000Y-98425000D01*
X85530000Y-93595000D02*
X84530000Y-93595000D01*
X79530000Y-122085000D02*
X80150000Y-122085000D01*
X80150000Y-122085000D02*
X80150000Y-120485000D01*
X80150000Y-120485000D02*
X79530000Y-120485000D01*
X79530000Y-119545000D02*
X80150000Y-119545000D01*
X80150000Y-119545000D02*
X80150000Y-117945000D01*
X80150000Y-117945000D02*
X79530000Y-117945000D01*
X79530000Y-117005000D02*
X80150000Y-117005000D01*
X80150000Y-117005000D02*
X80150000Y-115405000D01*
X80150000Y-115405000D02*
X79530000Y-115405000D01*
X79530000Y-114465000D02*
X80150000Y-114465000D01*
X80150000Y-114465000D02*
X80150000Y-112865000D01*
X80150000Y-112865000D02*
X79530000Y-112865000D01*
X79530000Y-111925000D02*
X80150000Y-111925000D01*
X80150000Y-111925000D02*
X80150000Y-110325000D01*
X80150000Y-110325000D02*
X79530000Y-110325000D01*
X79530000Y-109385000D02*
X80150000Y-109385000D01*
X80150000Y-109385000D02*
X80150000Y-107785000D01*
X80150000Y-107785000D02*
X79530000Y-107785000D01*
X79530000Y-106845000D02*
X80150000Y-106845000D01*
X80150000Y-106845000D02*
X80150000Y-105245000D01*
X80150000Y-105245000D02*
X79530000Y-105245000D01*
X79530000Y-104305000D02*
X80150000Y-104305000D01*
X80150000Y-104305000D02*
X80150000Y-102705000D01*
X80150000Y-102705000D02*
X79530000Y-102705000D01*
X79530000Y-101765000D02*
X80150000Y-101765000D01*
X80150000Y-101765000D02*
X80150000Y-100165000D01*
X80150000Y-100165000D02*
X79530000Y-100165000D01*
X79530000Y-99225000D02*
X80150000Y-99225000D01*
X80150000Y-99225000D02*
X80150000Y-97625000D01*
X80150000Y-97625000D02*
X79530000Y-97625000D01*
X79530000Y-96685000D02*
X80150000Y-96685000D01*
X80150000Y-96685000D02*
X80150000Y-95085000D01*
X80150000Y-95085000D02*
X79530000Y-95085000D01*
X79530000Y-94145000D02*
X80150000Y-94145000D01*
X80150000Y-94145000D02*
X80150000Y-92545000D01*
X80150000Y-92545000D02*
X79530000Y-92545000D01*
X126265000Y-118900000D02*
X126265000Y-124900000D01*
X126265000Y-124900000D02*
X136625000Y-124900000D01*
X136625000Y-124900000D02*
X136625000Y-118900000D01*
X136625000Y-118900000D02*
X126265000Y-118900000D01*
X127635000Y-124900000D02*
X127635000Y-123900000D01*
X127635000Y-123900000D02*
X135255000Y-123900000D01*
X135255000Y-123900000D02*
X135255000Y-124900000D01*
X127635000Y-123900000D02*
X127885000Y-123470000D01*
X127885000Y-123470000D02*
X135005000Y-123470000D01*
X135005000Y-123470000D02*
X135255000Y-123900000D01*
X127885000Y-124900000D02*
X127885000Y-123900000D01*
X135005000Y-124900000D02*
X135005000Y-123900000D01*
X126835000Y-118900000D02*
X126835000Y-119520000D01*
X126835000Y-119520000D02*
X128435000Y-119520000D01*
X128435000Y-119520000D02*
X128435000Y-118900000D01*
X129375000Y-118900000D02*
X129375000Y-119520000D01*
X129375000Y-119520000D02*
X130975000Y-119520000D01*
X130975000Y-119520000D02*
X130975000Y-118900000D01*
X131915000Y-118900000D02*
X131915000Y-119520000D01*
X131915000Y-119520000D02*
X133515000Y-119520000D01*
X133515000Y-119520000D02*
X133515000Y-118900000D01*
X134455000Y-118900000D02*
X134455000Y-119520000D01*
X134455000Y-119520000D02*
X136055000Y-119520000D01*
X136055000Y-119520000D02*
X136055000Y-118900000D01*
X146150000Y-152880000D02*
X146150000Y-146880000D01*
X146150000Y-146880000D02*
X125630000Y-146880000D01*
X125630000Y-146880000D02*
X125630000Y-152880000D01*
X125630000Y-152880000D02*
X146150000Y-152880000D01*
X144780000Y-146880000D02*
X144780000Y-147880000D01*
X144780000Y-147880000D02*
X139700000Y-147880000D01*
X139700000Y-147880000D02*
X139700000Y-146880000D01*
X144780000Y-147880000D02*
X144530000Y-148310000D01*
X144530000Y-148310000D02*
X139700000Y-148310000D01*
X139700000Y-148310000D02*
X139700000Y-147880000D01*
X144530000Y-146880000D02*
X144530000Y-147880000D01*
X127000000Y-146880000D02*
X127000000Y-147880000D01*
X127000000Y-147880000D02*
X132080000Y-147880000D01*
X132080000Y-147880000D02*
X132080000Y-146880000D01*
X127000000Y-147880000D02*
X127250000Y-148310000D01*
X127250000Y-148310000D02*
X132080000Y-148310000D01*
X132080000Y-148310000D02*
X132080000Y-147880000D01*
X127250000Y-146880000D02*
X127250000Y-147880000D01*
X145580000Y-152880000D02*
X145580000Y-152260000D01*
X145580000Y-152260000D02*
X143980000Y-152260000D01*
X143980000Y-152260000D02*
X143980000Y-152880000D01*
X143040000Y-152880000D02*
X143040000Y-152260000D01*
X143040000Y-152260000D02*
X141440000Y-152260000D01*
X141440000Y-152260000D02*
X141440000Y-152880000D01*
X140500000Y-152880000D02*
X140500000Y-152260000D01*
X140500000Y-152260000D02*
X138900000Y-152260000D01*
X138900000Y-152260000D02*
X138900000Y-152880000D01*
X137960000Y-152880000D02*
X137960000Y-152260000D01*
X137960000Y-152260000D02*
X136360000Y-152260000D01*
X136360000Y-152260000D02*
X136360000Y-152880000D01*
X135420000Y-152880000D02*
X135420000Y-152260000D01*
X135420000Y-152260000D02*
X133820000Y-152260000D01*
X133820000Y-152260000D02*
X133820000Y-152880000D01*
X132880000Y-152880000D02*
X132880000Y-152260000D01*
X132880000Y-152260000D02*
X131280000Y-152260000D01*
X131280000Y-152260000D02*
X131280000Y-152880000D01*
X130340000Y-152880000D02*
X130340000Y-152260000D01*
X130340000Y-152260000D02*
X128740000Y-152260000D01*
X128740000Y-152260000D02*
X128740000Y-152880000D01*
X127800000Y-152880000D02*
X127800000Y-152260000D01*
X127800000Y-152260000D02*
X126200000Y-152260000D01*
X126200000Y-152260000D02*
X126200000Y-152880000D01*
X150650000Y-122655000D02*
X156650000Y-122655000D01*
X156650000Y-122655000D02*
X156650000Y-112295000D01*
X156650000Y-112295000D02*
X150650000Y-112295000D01*
X150650000Y-112295000D02*
X150650000Y-122655000D01*
X156650000Y-121285000D02*
X155650000Y-121285000D01*
X155650000Y-121285000D02*
X155650000Y-113665000D01*
X155650000Y-113665000D02*
X156650000Y-113665000D01*
X155650000Y-121285000D02*
X155220000Y-121035000D01*
X155220000Y-121035000D02*
X155220000Y-113915000D01*
X155220000Y-113915000D02*
X155650000Y-113665000D01*
X156650000Y-121035000D02*
X155650000Y-121035000D01*
X156650000Y-113915000D02*
X155650000Y-113915000D01*
X150650000Y-122085000D02*
X151270000Y-122085000D01*
X151270000Y-122085000D02*
X151270000Y-120485000D01*
X151270000Y-120485000D02*
X150650000Y-120485000D01*
X150650000Y-119545000D02*
X151270000Y-119545000D01*
X151270000Y-119545000D02*
X151270000Y-117945000D01*
X151270000Y-117945000D02*
X150650000Y-117945000D01*
X150650000Y-117005000D02*
X151270000Y-117005000D01*
X151270000Y-117005000D02*
X151270000Y-115405000D01*
X151270000Y-115405000D02*
X150650000Y-115405000D01*
X150650000Y-114465000D02*
X151270000Y-114465000D01*
X151270000Y-114465000D02*
X151270000Y-112865000D01*
X151270000Y-112865000D02*
X150650000Y-112865000D01*
X209587017Y-73470231D02*
X203678171Y-72428342D01*
X203678171Y-72428342D02*
X201879176Y-82630950D01*
X201879176Y-82630950D02*
X207788022Y-83672839D01*
X207788022Y-83672839D02*
X209587017Y-73470231D01*
X203440273Y-73777528D02*
X204425081Y-73951177D01*
X204425081Y-73951177D02*
X203101882Y-81455412D01*
X203101882Y-81455412D02*
X202117074Y-81281764D01*
X204425081Y-73951177D02*
X204805136Y-74272047D01*
X204805136Y-74272047D02*
X203568761Y-81283878D01*
X203568761Y-81283878D02*
X203101882Y-81455412D01*
X203396861Y-74023730D02*
X204381669Y-74197379D01*
X202160486Y-81035562D02*
X203145294Y-81209210D01*
X209488038Y-74031571D02*
X208877457Y-73923909D01*
X208877457Y-73923909D02*
X208599620Y-75499602D01*
X208599620Y-75499602D02*
X209210201Y-75607264D01*
X209046972Y-76532983D02*
X208436391Y-76425321D01*
X208436391Y-76425321D02*
X208158554Y-78001014D01*
X208158554Y-78001014D02*
X208769135Y-78108675D01*
X208605905Y-79034395D02*
X207995324Y-78926733D01*
X207995324Y-78926733D02*
X207717487Y-80502425D01*
X207717487Y-80502425D02*
X208328068Y-80610087D01*
X208164839Y-81535806D02*
X207554258Y-81428145D01*
X207554258Y-81428145D02*
X207276421Y-83003837D01*
X207276421Y-83003837D02*
X207887002Y-83111499D01*
X190519073Y-66296738D02*
X185922807Y-62440012D01*
X185922807Y-62440012D02*
X172732805Y-78159244D01*
X172732805Y-78159244D02*
X177329071Y-82015970D01*
X177329071Y-82015970D02*
X190519073Y-66296738D01*
X185042188Y-63489493D02*
X185808232Y-64132281D01*
X185808232Y-64132281D02*
X182542871Y-68023786D01*
X182542871Y-68023786D02*
X181776827Y-67380999D01*
X185808232Y-64132281D02*
X185976934Y-64600190D01*
X185976934Y-64600190D02*
X182872270Y-68300185D01*
X182872270Y-68300185D02*
X182542871Y-68023786D01*
X184881491Y-63681004D02*
X185647535Y-64323792D01*
X173613424Y-77109763D02*
X174379468Y-77752551D01*
X174379468Y-77752551D02*
X177644829Y-73861045D01*
X177644829Y-73861045D02*
X176878785Y-73218257D01*
X174379468Y-77752551D02*
X174869564Y-77837438D01*
X174869564Y-77837438D02*
X177974228Y-74137444D01*
X177974228Y-74137444D02*
X177644829Y-73861045D01*
X173774121Y-76918252D02*
X174540165Y-77561040D01*
X190152684Y-66733383D02*
X189677737Y-66334855D01*
X189677737Y-66334855D02*
X188649277Y-67560526D01*
X188649277Y-67560526D02*
X189124224Y-67959054D01*
X188520004Y-68679136D02*
X188045056Y-68280608D01*
X188045056Y-68280608D02*
X187016596Y-69506279D01*
X187016596Y-69506279D02*
X187491544Y-69904807D01*
X186887323Y-70624889D02*
X186412376Y-70226360D01*
X186412376Y-70226360D02*
X185383916Y-71452032D01*
X185383916Y-71452032D02*
X185858863Y-71850560D01*
X185254643Y-72570642D02*
X184779695Y-72172113D01*
X184779695Y-72172113D02*
X183751235Y-73397784D01*
X183751235Y-73397784D02*
X184226183Y-73796313D01*
X183621962Y-74516395D02*
X183147015Y-74117866D01*
X183147015Y-74117866D02*
X182118554Y-75343537D01*
X182118554Y-75343537D02*
X182593502Y-75742066D01*
X181989282Y-76462147D02*
X181514334Y-76063619D01*
X181514334Y-76063619D02*
X180485874Y-77289290D01*
X180485874Y-77289290D02*
X180960821Y-77687819D01*
X180356601Y-78407900D02*
X179881654Y-78009372D01*
X179881654Y-78009372D02*
X178853193Y-79235043D01*
X178853193Y-79235043D02*
X179328141Y-79633571D01*
X178723921Y-80353653D02*
X178248973Y-79955125D01*
X178248973Y-79955125D02*
X177220513Y-81180796D01*
X177220513Y-81180796D02*
X177695460Y-81579324D01*
X215919073Y-95506738D02*
X211322807Y-91650012D01*
X211322807Y-91650012D02*
X204663527Y-99586232D01*
X204663527Y-99586232D02*
X209259794Y-103442958D01*
X209259794Y-103442958D02*
X215919073Y-95506738D01*
X210442188Y-92699493D02*
X211208232Y-93342281D01*
X211208232Y-93342281D02*
X206310190Y-99179539D01*
X206310190Y-99179539D02*
X205544146Y-98536752D01*
X211208232Y-93342281D02*
X211376934Y-93810190D01*
X211376934Y-93810190D02*
X206800286Y-99264427D01*
X206800286Y-99264427D02*
X206310190Y-99179539D01*
X210281491Y-92891004D02*
X211047535Y-93533792D01*
X205704843Y-98345240D02*
X206470887Y-98988028D01*
X215552684Y-95943383D02*
X215077737Y-95544855D01*
X215077737Y-95544855D02*
X214049277Y-96770526D01*
X214049277Y-96770526D02*
X214524224Y-97169054D01*
X213920004Y-97889136D02*
X213445056Y-97490608D01*
X213445056Y-97490608D02*
X212416596Y-98716279D01*
X212416596Y-98716279D02*
X212891544Y-99114807D01*
X212287323Y-99834889D02*
X211812376Y-99436360D01*
X211812376Y-99436360D02*
X210783916Y-100662032D01*
X210783916Y-100662032D02*
X211258863Y-101060560D01*
X210654643Y-101780642D02*
X210179695Y-101382113D01*
X210179695Y-101382113D02*
X209151235Y-102607784D01*
X209151235Y-102607784D02*
X209626183Y-103006313D01*
X132235000Y-42010000D02*
X138235000Y-42010000D01*
X138235000Y-42010000D02*
X138235000Y-21490000D01*
X138235000Y-21490000D02*
X132235000Y-21490000D01*
X132235000Y-21490000D02*
X132235000Y-42010000D01*
X138235000Y-40640000D02*
X137235000Y-40640000D01*
X137235000Y-40640000D02*
X137235000Y-35560000D01*
X137235000Y-35560000D02*
X138235000Y-35560000D01*
X137235000Y-40640000D02*
X136805000Y-40390000D01*
X136805000Y-40390000D02*
X136805000Y-35560000D01*
X136805000Y-35560000D02*
X137235000Y-35560000D01*
X138235000Y-40390000D02*
X137235000Y-40390000D01*
X138235000Y-22860000D02*
X137235000Y-22860000D01*
X137235000Y-22860000D02*
X137235000Y-27940000D01*
X137235000Y-27940000D02*
X138235000Y-27940000D01*
X137235000Y-22860000D02*
X136805000Y-23110000D01*
X136805000Y-23110000D02*
X136805000Y-27940000D01*
X136805000Y-27940000D02*
X137235000Y-27940000D01*
X138235000Y-23110000D02*
X137235000Y-23110000D01*
X132235000Y-41440000D02*
X132855000Y-41440000D01*
X132855000Y-41440000D02*
X132855000Y-39840000D01*
X132855000Y-39840000D02*
X132235000Y-39840000D01*
X132235000Y-38900000D02*
X132855000Y-38900000D01*
X132855000Y-38900000D02*
X132855000Y-37300000D01*
X132855000Y-37300000D02*
X132235000Y-37300000D01*
X132235000Y-36360000D02*
X132855000Y-36360000D01*
X132855000Y-36360000D02*
X132855000Y-34760000D01*
X132855000Y-34760000D02*
X132235000Y-34760000D01*
X132235000Y-33820000D02*
X132855000Y-33820000D01*
X132855000Y-33820000D02*
X132855000Y-32220000D01*
X132855000Y-32220000D02*
X132235000Y-32220000D01*
X132235000Y-31280000D02*
X132855000Y-31280000D01*
X132855000Y-31280000D02*
X132855000Y-29680000D01*
X132855000Y-29680000D02*
X132235000Y-29680000D01*
X132235000Y-28740000D02*
X132855000Y-28740000D01*
X132855000Y-28740000D02*
X132855000Y-27140000D01*
X132855000Y-27140000D02*
X132235000Y-27140000D01*
X132235000Y-26200000D02*
X132855000Y-26200000D01*
X132855000Y-26200000D02*
X132855000Y-24600000D01*
X132855000Y-24600000D02*
X132235000Y-24600000D01*
X132235000Y-23660000D02*
X132855000Y-23660000D01*
X132855000Y-23660000D02*
X132855000Y-22060000D01*
X132855000Y-22060000D02*
X132235000Y-22060000D01*
D11*
X209310000Y-146685000D02*
G75*
G03X209310000Y-146685000I-8650000J0D01*
G01*
D15*
X191860000Y-142585000D02*
G75*
G03X191860000Y-142585000I-200000J0D01*
G01*
D16*
G36*
X261898974Y-35835568D02*
X262546445Y-36622252D01*
X263519240Y-37860030D01*
X264772896Y-39488877D01*
X266262947Y-41448769D01*
X267944931Y-43679681D01*
X269774382Y-46121588D01*
X271706837Y-48714467D01*
X273697832Y-51398293D01*
X275702903Y-54113041D01*
X277677584Y-56798688D01*
X279577413Y-59395208D01*
X281357925Y-61842578D01*
X282974656Y-64080773D01*
X284383142Y-66049768D01*
X285538918Y-67689540D01*
X286397521Y-68940063D01*
X286778664Y-69521215D01*
X287061903Y-69969318D01*
X287179533Y-70290418D01*
X287037532Y-70534467D01*
X286541880Y-70751414D01*
X285598554Y-70991212D01*
X284113532Y-71303811D01*
X282991768Y-71533074D01*
X281510897Y-71847133D01*
X280310493Y-72121575D01*
X279544303Y-72320094D01*
X279349918Y-72393046D01*
X279421002Y-72617921D01*
X279768708Y-73194467D01*
X280415695Y-74154591D01*
X281384622Y-75530197D01*
X282698150Y-77353190D01*
X284378937Y-79655473D01*
X286449645Y-82468954D01*
X287891644Y-84419723D01*
X289868462Y-87095595D01*
X291458356Y-89262260D01*
X292698083Y-90974693D01*
X293624398Y-92287871D01*
X294274057Y-93256769D01*
X294683817Y-93936364D01*
X294890435Y-94381632D01*
X294930666Y-94647550D01*
X294841267Y-94789093D01*
X294829556Y-94796727D01*
X294360137Y-94947688D01*
X293321048Y-95204486D01*
X291835370Y-95539159D01*
X290026187Y-95923745D01*
X288512898Y-96231744D01*
X286569349Y-96623120D01*
X284882722Y-96968709D01*
X283567890Y-97244490D01*
X282739726Y-97426443D01*
X282505148Y-97488020D01*
X282684208Y-97778793D01*
X283239385Y-98576315D01*
X284127041Y-99820224D01*
X285303541Y-101450158D01*
X286725247Y-103405753D01*
X288348523Y-105626648D01*
X290129732Y-108052481D01*
X290815810Y-108984112D01*
X293228485Y-112259584D01*
X295253319Y-115014446D01*
X296922358Y-117295106D01*
X298267643Y-119147969D01*
X299321220Y-120619442D01*
X300115132Y-121755929D01*
X300681424Y-122603839D01*
X301052138Y-123209576D01*
X301259320Y-123619546D01*
X301335012Y-123880156D01*
X301311260Y-124037811D01*
X301258104Y-124106650D01*
X300755058Y-124315067D01*
X299647890Y-124606487D01*
X298030945Y-124964146D01*
X295998566Y-125371278D01*
X293645099Y-125811118D01*
X291064886Y-126266900D01*
X288352272Y-126721861D01*
X285601602Y-127159234D01*
X282907219Y-127562255D01*
X280363469Y-127914157D01*
X278553334Y-128141336D01*
X276647424Y-128368336D01*
X274858250Y-128583283D01*
X273372309Y-128763651D01*
X272376096Y-128886914D01*
X272291528Y-128897666D01*
X270792223Y-129089343D01*
X270792223Y-137865556D01*
X261680184Y-137865556D01*
X258904633Y-137862607D01*
X256755343Y-137850178D01*
X255153033Y-137822896D01*
X254018419Y-137775388D01*
X253272221Y-137702281D01*
X252835155Y-137598201D01*
X252627940Y-137457776D01*
X252571293Y-137275631D01*
X252570856Y-137248195D01*
X252566264Y-136651160D01*
X252551725Y-135527154D01*
X252529698Y-134054653D01*
X252510672Y-132884025D01*
X252447778Y-129137217D01*
X249537362Y-128893248D01*
X246165682Y-128556835D01*
X242408498Y-128089941D01*
X238451298Y-127522205D01*
X234479567Y-126883266D01*
X230678792Y-126202761D01*
X227234461Y-125510330D01*
X224659257Y-124918061D01*
X221036014Y-124016498D01*
X221874750Y-122915332D01*
X223499258Y-120767565D01*
X225258319Y-118415505D01*
X227105107Y-115924088D01*
X228992799Y-113358246D01*
X230874570Y-110782912D01*
X232703597Y-108263020D01*
X234433056Y-105863503D01*
X236016122Y-103649294D01*
X237405971Y-101685326D01*
X238555779Y-100036534D01*
X239418723Y-98767849D01*
X239947978Y-97944205D01*
X240100556Y-97640710D01*
X239785996Y-97451080D01*
X238987744Y-97252313D01*
X238472869Y-97168914D01*
X237316638Y-96979735D01*
X235828778Y-96692849D01*
X234159601Y-96342582D01*
X232459419Y-95963257D01*
X230878544Y-95589200D01*
X229567289Y-95254736D01*
X228675965Y-94994188D01*
X228364789Y-94860668D01*
X228376886Y-94594005D01*
X228663102Y-93995780D01*
X229245810Y-93033081D01*
X230147380Y-91672992D01*
X231390184Y-89882600D01*
X232996592Y-87628991D01*
X234988977Y-84879250D01*
X237227349Y-81821410D01*
X239047203Y-79343182D01*
X240490456Y-77373059D01*
X241598804Y-75850956D01*
X242413943Y-74716790D01*
X242977568Y-73910477D01*
X243331375Y-73371936D01*
X243517060Y-73041081D01*
X243576319Y-72857830D01*
X243550847Y-72762100D01*
X243530327Y-72738846D01*
X243134629Y-72583439D01*
X242208413Y-72304844D01*
X240906415Y-71947914D01*
X239914880Y-71690828D01*
X238411248Y-71295822D01*
X237143762Y-70937979D01*
X236283368Y-70666888D01*
X236027697Y-70563199D01*
X235935011Y-70478564D01*
X235909585Y-70332213D01*
X235978960Y-70085205D01*
X236170672Y-69698596D01*
X236512262Y-69133445D01*
X237031268Y-68350807D01*
X237755228Y-67311742D01*
X238711680Y-65977305D01*
X239928164Y-64308555D01*
X241432218Y-62266549D01*
X243251380Y-59812345D01*
X245413189Y-56906999D01*
X247945184Y-53511569D01*
X250614608Y-49935695D01*
X252705922Y-47141965D01*
X254673207Y-44527346D01*
X256475712Y-42145063D01*
X258072682Y-40048344D01*
X259423366Y-38290416D01*
X260487010Y-36924505D01*
X261222861Y-36003838D01*
X261590168Y-35581642D01*
X261621292Y-35560000D01*
X261898974Y-35835568D01*
X261898974Y-35835568D01*
G37*
X261898974Y-35835568D02*
X262546445Y-36622252D01*
X263519240Y-37860030D01*
X264772896Y-39488877D01*
X266262947Y-41448769D01*
X267944931Y-43679681D01*
X269774382Y-46121588D01*
X271706837Y-48714467D01*
X273697832Y-51398293D01*
X275702903Y-54113041D01*
X277677584Y-56798688D01*
X279577413Y-59395208D01*
X281357925Y-61842578D01*
X282974656Y-64080773D01*
X284383142Y-66049768D01*
X285538918Y-67689540D01*
X286397521Y-68940063D01*
X286778664Y-69521215D01*
X287061903Y-69969318D01*
X287179533Y-70290418D01*
X287037532Y-70534467D01*
X286541880Y-70751414D01*
X285598554Y-70991212D01*
X284113532Y-71303811D01*
X282991768Y-71533074D01*
X281510897Y-71847133D01*
X280310493Y-72121575D01*
X279544303Y-72320094D01*
X279349918Y-72393046D01*
X279421002Y-72617921D01*
X279768708Y-73194467D01*
X280415695Y-74154591D01*
X281384622Y-75530197D01*
X282698150Y-77353190D01*
X284378937Y-79655473D01*
X286449645Y-82468954D01*
X287891644Y-84419723D01*
X289868462Y-87095595D01*
X291458356Y-89262260D01*
X292698083Y-90974693D01*
X293624398Y-92287871D01*
X294274057Y-93256769D01*
X294683817Y-93936364D01*
X294890435Y-94381632D01*
X294930666Y-94647550D01*
X294841267Y-94789093D01*
X294829556Y-94796727D01*
X294360137Y-94947688D01*
X293321048Y-95204486D01*
X291835370Y-95539159D01*
X290026187Y-95923745D01*
X288512898Y-96231744D01*
X286569349Y-96623120D01*
X284882722Y-96968709D01*
X283567890Y-97244490D01*
X282739726Y-97426443D01*
X282505148Y-97488020D01*
X282684208Y-97778793D01*
X283239385Y-98576315D01*
X284127041Y-99820224D01*
X285303541Y-101450158D01*
X286725247Y-103405753D01*
X288348523Y-105626648D01*
X290129732Y-108052481D01*
X290815810Y-108984112D01*
X293228485Y-112259584D01*
X295253319Y-115014446D01*
X296922358Y-117295106D01*
X298267643Y-119147969D01*
X299321220Y-120619442D01*
X300115132Y-121755929D01*
X300681424Y-122603839D01*
X301052138Y-123209576D01*
X301259320Y-123619546D01*
X301335012Y-123880156D01*
X301311260Y-124037811D01*
X301258104Y-124106650D01*
X300755058Y-124315067D01*
X299647890Y-124606487D01*
X298030945Y-124964146D01*
X295998566Y-125371278D01*
X293645099Y-125811118D01*
X291064886Y-126266900D01*
X288352272Y-126721861D01*
X285601602Y-127159234D01*
X282907219Y-127562255D01*
X280363469Y-127914157D01*
X278553334Y-128141336D01*
X276647424Y-128368336D01*
X274858250Y-128583283D01*
X273372309Y-128763651D01*
X272376096Y-128886914D01*
X272291528Y-128897666D01*
X270792223Y-129089343D01*
X270792223Y-137865556D01*
X261680184Y-137865556D01*
X258904633Y-137862607D01*
X256755343Y-137850178D01*
X255153033Y-137822896D01*
X254018419Y-137775388D01*
X253272221Y-137702281D01*
X252835155Y-137598201D01*
X252627940Y-137457776D01*
X252571293Y-137275631D01*
X252570856Y-137248195D01*
X252566264Y-136651160D01*
X252551725Y-135527154D01*
X252529698Y-134054653D01*
X252510672Y-132884025D01*
X252447778Y-129137217D01*
X249537362Y-128893248D01*
X246165682Y-128556835D01*
X242408498Y-128089941D01*
X238451298Y-127522205D01*
X234479567Y-126883266D01*
X230678792Y-126202761D01*
X227234461Y-125510330D01*
X224659257Y-124918061D01*
X221036014Y-124016498D01*
X221874750Y-122915332D01*
X223499258Y-120767565D01*
X225258319Y-118415505D01*
X227105107Y-115924088D01*
X228992799Y-113358246D01*
X230874570Y-110782912D01*
X232703597Y-108263020D01*
X234433056Y-105863503D01*
X236016122Y-103649294D01*
X237405971Y-101685326D01*
X238555779Y-100036534D01*
X239418723Y-98767849D01*
X239947978Y-97944205D01*
X240100556Y-97640710D01*
X239785996Y-97451080D01*
X238987744Y-97252313D01*
X238472869Y-97168914D01*
X237316638Y-96979735D01*
X235828778Y-96692849D01*
X234159601Y-96342582D01*
X232459419Y-95963257D01*
X230878544Y-95589200D01*
X229567289Y-95254736D01*
X228675965Y-94994188D01*
X228364789Y-94860668D01*
X228376886Y-94594005D01*
X228663102Y-93995780D01*
X229245810Y-93033081D01*
X230147380Y-91672992D01*
X231390184Y-89882600D01*
X232996592Y-87628991D01*
X234988977Y-84879250D01*
X237227349Y-81821410D01*
X239047203Y-79343182D01*
X240490456Y-77373059D01*
X241598804Y-75850956D01*
X242413943Y-74716790D01*
X242977568Y-73910477D01*
X243331375Y-73371936D01*
X243517060Y-73041081D01*
X243576319Y-72857830D01*
X243550847Y-72762100D01*
X243530327Y-72738846D01*
X243134629Y-72583439D01*
X242208413Y-72304844D01*
X240906415Y-71947914D01*
X239914880Y-71690828D01*
X238411248Y-71295822D01*
X237143762Y-70937979D01*
X236283368Y-70666888D01*
X236027697Y-70563199D01*
X235935011Y-70478564D01*
X235909585Y-70332213D01*
X235978960Y-70085205D01*
X236170672Y-69698596D01*
X236512262Y-69133445D01*
X237031268Y-68350807D01*
X237755228Y-67311742D01*
X238711680Y-65977305D01*
X239928164Y-64308555D01*
X241432218Y-62266549D01*
X243251380Y-59812345D01*
X245413189Y-56906999D01*
X247945184Y-53511569D01*
X250614608Y-49935695D01*
X252705922Y-47141965D01*
X254673207Y-44527346D01*
X256475712Y-42145063D01*
X258072682Y-40048344D01*
X259423366Y-38290416D01*
X260487010Y-36924505D01*
X261222861Y-36003838D01*
X261590168Y-35581642D01*
X261621292Y-35560000D01*
X261898974Y-35835568D01*
D13*
X139488571Y-188980714D02*
X139536190Y-188837857D01*
X139583810Y-188790238D01*
X139679048Y-188742619D01*
X139821905Y-188742619D01*
X139917143Y-188790238D01*
X139964762Y-188837857D01*
X140012381Y-188933095D01*
X140012381Y-189314048D01*
X139012381Y-189314048D01*
X139012381Y-188980714D01*
X139060000Y-188885476D01*
X139107619Y-188837857D01*
X139202857Y-188790238D01*
X139298095Y-188790238D01*
X139393333Y-188837857D01*
X139440952Y-188885476D01*
X139488571Y-188980714D01*
X139488571Y-189314048D01*
X139012381Y-188456905D02*
X139012381Y-187885476D01*
X140012381Y-188171191D02*
X139012381Y-188171191D01*
X140012381Y-187028333D02*
X140012381Y-187599762D01*
X140012381Y-187314048D02*
X139012381Y-187314048D01*
X139155238Y-187409286D01*
X139250476Y-187504524D01*
X139298095Y-187599762D01*
X162393334Y-85997381D02*
X162060000Y-85521190D01*
X161821905Y-85997381D02*
X161821905Y-84997381D01*
X162202858Y-84997381D01*
X162298096Y-85045000D01*
X162345715Y-85092619D01*
X162393334Y-85187857D01*
X162393334Y-85330714D01*
X162345715Y-85425952D01*
X162298096Y-85473571D01*
X162202858Y-85521190D01*
X161821905Y-85521190D01*
X163345715Y-85997381D02*
X162774286Y-85997381D01*
X163060000Y-85997381D02*
X163060000Y-84997381D01*
X162964762Y-85140238D01*
X162869524Y-85235476D01*
X162774286Y-85283095D01*
X160488334Y-105047381D02*
X160155000Y-104571190D01*
X159916905Y-105047381D02*
X159916905Y-104047381D01*
X160297858Y-104047381D01*
X160393096Y-104095000D01*
X160440715Y-104142619D01*
X160488334Y-104237857D01*
X160488334Y-104380714D01*
X160440715Y-104475952D01*
X160393096Y-104523571D01*
X160297858Y-104571190D01*
X159916905Y-104571190D01*
X160869286Y-104142619D02*
X160916905Y-104095000D01*
X161012143Y-104047381D01*
X161250239Y-104047381D01*
X161345477Y-104095000D01*
X161393096Y-104142619D01*
X161440715Y-104237857D01*
X161440715Y-104333095D01*
X161393096Y-104475952D01*
X160821667Y-105047381D01*
X161440715Y-105047381D01*
X183348334Y-137432381D02*
X183015000Y-136956190D01*
X182776905Y-137432381D02*
X182776905Y-136432381D01*
X183157858Y-136432381D01*
X183253096Y-136480000D01*
X183300715Y-136527619D01*
X183348334Y-136622857D01*
X183348334Y-136765714D01*
X183300715Y-136860952D01*
X183253096Y-136908571D01*
X183157858Y-136956190D01*
X182776905Y-136956190D01*
X183681667Y-136432381D02*
X184300715Y-136432381D01*
X183967381Y-136813333D01*
X184110239Y-136813333D01*
X184205477Y-136860952D01*
X184253096Y-136908571D01*
X184300715Y-137003810D01*
X184300715Y-137241905D01*
X184253096Y-137337143D01*
X184205477Y-137384762D01*
X184110239Y-137432381D01*
X183824524Y-137432381D01*
X183729286Y-137384762D01*
X183681667Y-137337143D01*
X148334434Y-104005981D02*
X148001100Y-103529790D01*
X147763005Y-104005981D02*
X147763005Y-103005981D01*
X148143958Y-103005981D01*
X148239196Y-103053600D01*
X148286815Y-103101219D01*
X148334434Y-103196457D01*
X148334434Y-103339314D01*
X148286815Y-103434552D01*
X148239196Y-103482171D01*
X148143958Y-103529790D01*
X147763005Y-103529790D01*
X149191577Y-103339314D02*
X149191577Y-104005981D01*
X148953481Y-102958362D02*
X148715386Y-103672648D01*
X149334434Y-103672648D01*
X148334434Y-104005981D02*
X148001100Y-103529790D01*
X147763005Y-104005981D02*
X147763005Y-103005981D01*
X148143958Y-103005981D01*
X148239196Y-103053600D01*
X148286815Y-103101219D01*
X148334434Y-103196457D01*
X148334434Y-103339314D01*
X148286815Y-103434552D01*
X148239196Y-103482171D01*
X148143958Y-103529790D01*
X147763005Y-103529790D01*
X149239196Y-103005981D02*
X148763005Y-103005981D01*
X148715386Y-103482171D01*
X148763005Y-103434552D01*
X148858243Y-103386933D01*
X149096339Y-103386933D01*
X149191577Y-103434552D01*
X149239196Y-103482171D01*
X149286815Y-103577410D01*
X149286815Y-103815505D01*
X149239196Y-103910743D01*
X149191577Y-103958362D01*
X149096339Y-104005981D01*
X148858243Y-104005981D01*
X148763005Y-103958362D01*
X148715386Y-103910743D01*
X148334434Y-104005981D02*
X148001100Y-103529790D01*
X147763005Y-104005981D02*
X147763005Y-103005981D01*
X148143958Y-103005981D01*
X148239196Y-103053600D01*
X148286815Y-103101219D01*
X148334434Y-103196457D01*
X148334434Y-103339314D01*
X148286815Y-103434552D01*
X148239196Y-103482171D01*
X148143958Y-103529790D01*
X147763005Y-103529790D01*
X149191577Y-103005981D02*
X149001100Y-103005981D01*
X148905862Y-103053600D01*
X148858243Y-103101219D01*
X148763005Y-103244076D01*
X148715386Y-103434552D01*
X148715386Y-103815505D01*
X148763005Y-103910743D01*
X148810624Y-103958362D01*
X148905862Y-104005981D01*
X149096339Y-104005981D01*
X149191577Y-103958362D01*
X149239196Y-103910743D01*
X149286815Y-103815505D01*
X149286815Y-103577410D01*
X149239196Y-103482171D01*
X149191577Y-103434552D01*
X149096339Y-103386933D01*
X148905862Y-103386933D01*
X148810624Y-103434552D01*
X148763005Y-103482171D01*
X148715386Y-103577410D01*
X148334434Y-104005981D02*
X148001100Y-103529790D01*
X147763005Y-104005981D02*
X147763005Y-103005981D01*
X148143958Y-103005981D01*
X148239196Y-103053600D01*
X148286815Y-103101219D01*
X148334434Y-103196457D01*
X148334434Y-103339314D01*
X148286815Y-103434552D01*
X148239196Y-103482171D01*
X148143958Y-103529790D01*
X147763005Y-103529790D01*
X148667767Y-103005981D02*
X149334434Y-103005981D01*
X148905862Y-104005981D01*
X168108334Y-90442381D02*
X167775000Y-89966190D01*
X167536905Y-90442381D02*
X167536905Y-89442381D01*
X167917858Y-89442381D01*
X168013096Y-89490000D01*
X168060715Y-89537619D01*
X168108334Y-89632857D01*
X168108334Y-89775714D01*
X168060715Y-89870952D01*
X168013096Y-89918571D01*
X167917858Y-89966190D01*
X167536905Y-89966190D01*
X168679762Y-89870952D02*
X168584524Y-89823333D01*
X168536905Y-89775714D01*
X168489286Y-89680476D01*
X168489286Y-89632857D01*
X168536905Y-89537619D01*
X168584524Y-89490000D01*
X168679762Y-89442381D01*
X168870239Y-89442381D01*
X168965477Y-89490000D01*
X169013096Y-89537619D01*
X169060715Y-89632857D01*
X169060715Y-89680476D01*
X169013096Y-89775714D01*
X168965477Y-89823333D01*
X168870239Y-89870952D01*
X168679762Y-89870952D01*
X168584524Y-89918571D01*
X168536905Y-89966190D01*
X168489286Y-90061429D01*
X168489286Y-90251905D01*
X168536905Y-90347143D01*
X168584524Y-90394762D01*
X168679762Y-90442381D01*
X168870239Y-90442381D01*
X168965477Y-90394762D01*
X169013096Y-90347143D01*
X169060715Y-90251905D01*
X169060715Y-90061429D01*
X169013096Y-89966190D01*
X168965477Y-89918571D01*
X168870239Y-89870952D01*
X187676897Y-111120581D02*
X188197249Y-111740712D01*
X188294945Y-111783060D01*
X188362032Y-111788929D01*
X188465598Y-111764189D01*
X188611512Y-111641753D01*
X188653859Y-111544057D01*
X188659729Y-111476970D01*
X188634989Y-111373404D01*
X188114637Y-110753273D01*
X189523469Y-110876530D02*
X189085729Y-111243837D01*
X189304599Y-111060184D02*
X188661811Y-110294140D01*
X188680681Y-110464792D01*
X188668943Y-110598967D01*
X188626595Y-110696663D01*
X121670797Y-55531094D02*
X121150445Y-56151226D01*
X121125705Y-56254791D01*
X121131574Y-56321878D01*
X121173922Y-56419574D01*
X121319836Y-56542011D01*
X121423401Y-56566750D01*
X121490489Y-56560881D01*
X121588185Y-56518533D01*
X122108537Y-55898402D01*
X122375623Y-56246839D02*
X122442710Y-56240969D01*
X122546276Y-56265709D01*
X122728668Y-56418754D01*
X122771016Y-56516450D01*
X122776885Y-56583537D01*
X122752145Y-56687103D01*
X122690928Y-56760059D01*
X122562623Y-56838885D01*
X121757575Y-56909318D01*
X122231793Y-57307234D01*
X118530903Y-96955418D02*
X118010551Y-97575550D01*
X117985811Y-97679115D01*
X117991680Y-97746202D01*
X118034028Y-97843898D01*
X118179942Y-97966335D01*
X118283507Y-97991074D01*
X118350595Y-97985205D01*
X118448291Y-97942857D01*
X118968643Y-97322726D01*
X119447468Y-98159644D02*
X119018943Y-98670340D01*
X119509947Y-97714772D02*
X118868422Y-98108903D01*
X119342640Y-98506819D01*
X149576897Y-90165581D02*
X150097249Y-90785712D01*
X150194945Y-90828060D01*
X150262032Y-90833929D01*
X150365598Y-90809189D01*
X150511512Y-90686753D01*
X150553859Y-90589057D01*
X150559729Y-90521970D01*
X150534989Y-90418404D01*
X150014637Y-89798273D01*
X150744203Y-89186094D02*
X150379420Y-89492184D01*
X150649031Y-89887576D01*
X150654900Y-89820489D01*
X150697248Y-89722792D01*
X150879640Y-89569747D01*
X150983205Y-89545008D01*
X151050292Y-89550877D01*
X151147989Y-89593226D01*
X151301034Y-89775617D01*
X151325773Y-89879182D01*
X151319904Y-89946269D01*
X151277556Y-90043966D01*
X151095164Y-90197011D01*
X150991599Y-90221750D01*
X150924511Y-90215881D01*
X115320797Y-105696094D02*
X114800445Y-106316226D01*
X114775705Y-106419791D01*
X114781574Y-106486878D01*
X114823922Y-106584574D01*
X114969836Y-106707011D01*
X115073401Y-106731750D01*
X115140489Y-106725881D01*
X115238185Y-106683533D01*
X115758537Y-106063402D01*
X116451625Y-106644972D02*
X116305711Y-106522535D01*
X116202145Y-106497796D01*
X116135058Y-106503665D01*
X115970275Y-106551882D01*
X115811361Y-106667186D01*
X115566489Y-106959013D01*
X115541750Y-107062579D01*
X115547619Y-107129666D01*
X115589967Y-107227362D01*
X115735880Y-107349798D01*
X115839446Y-107374538D01*
X115906533Y-107368669D01*
X116004229Y-107326321D01*
X116157274Y-107143930D01*
X116182014Y-107040363D01*
X116176144Y-106973276D01*
X116133797Y-106875580D01*
X115987883Y-106753144D01*
X115884317Y-106728404D01*
X115817230Y-106734274D01*
X115719534Y-106776622D01*
X130683095Y-100232381D02*
X130683095Y-101041905D01*
X130730714Y-101137143D01*
X130778333Y-101184762D01*
X130873571Y-101232381D01*
X131064048Y-101232381D01*
X131159286Y-101184762D01*
X131206905Y-101137143D01*
X131254524Y-101041905D01*
X131254524Y-100232381D01*
X131873571Y-100660952D02*
X131778333Y-100613333D01*
X131730714Y-100565714D01*
X131683095Y-100470476D01*
X131683095Y-100422857D01*
X131730714Y-100327619D01*
X131778333Y-100280000D01*
X131873571Y-100232381D01*
X132064048Y-100232381D01*
X132159286Y-100280000D01*
X132206905Y-100327619D01*
X132254524Y-100422857D01*
X132254524Y-100470476D01*
X132206905Y-100565714D01*
X132159286Y-100613333D01*
X132064048Y-100660952D01*
X131873571Y-100660952D01*
X131778333Y-100708571D01*
X131730714Y-100756190D01*
X131683095Y-100851429D01*
X131683095Y-101041905D01*
X131730714Y-101137143D01*
X131778333Y-101184762D01*
X131873571Y-101232381D01*
X132064048Y-101232381D01*
X132159286Y-101184762D01*
X132206905Y-101137143D01*
X132254524Y-101041905D01*
X132254524Y-100851429D01*
X132206905Y-100756190D01*
X132159286Y-100708571D01*
X132064048Y-100660952D01*
X144653095Y-102137381D02*
X144653095Y-102946905D01*
X144700714Y-103042143D01*
X144748333Y-103089762D01*
X144843571Y-103137381D01*
X145034048Y-103137381D01*
X145129286Y-103089762D01*
X145176905Y-103042143D01*
X145224524Y-102946905D01*
X145224524Y-102137381D01*
X145748333Y-103137381D02*
X145938809Y-103137381D01*
X146034048Y-103089762D01*
X146081667Y-103042143D01*
X146176905Y-102899286D01*
X146224524Y-102708810D01*
X146224524Y-102327857D01*
X146176905Y-102232619D01*
X146129286Y-102185000D01*
X146034048Y-102137381D01*
X145843571Y-102137381D01*
X145748333Y-102185000D01*
X145700714Y-102232619D01*
X145653095Y-102327857D01*
X145653095Y-102565952D01*
X145700714Y-102661190D01*
X145748333Y-102708810D01*
X145843571Y-102756429D01*
X146034048Y-102756429D01*
X146129286Y-102708810D01*
X146176905Y-102661190D01*
X146224524Y-102565952D01*
X-42314285Y18707857D02*
X-42361904Y18660238D01*
X-42504761Y18612619D01*
X-42599999Y18612619D01*
X-42742857Y18660238D01*
X-42838095Y18755476D01*
X-42885714Y18850714D01*
X-42933333Y19041190D01*
X-42933333Y19184048D01*
X-42885714Y19374524D01*
X-42838095Y19469762D01*
X-42742857Y19565000D01*
X-42599999Y19612619D01*
X-42504761Y19612619D01*
X-42361904Y19565000D01*
X-42314285Y19517381D01*
X-41695238Y19612619D02*
X-41504761Y19612619D01*
X-41409523Y19565000D01*
X-41314285Y19469762D01*
X-41266666Y19279286D01*
X-41266666Y18945952D01*
X-41314285Y18755476D01*
X-41409523Y18660238D01*
X-41504761Y18612619D01*
X-41695238Y18612619D01*
X-41790476Y18660238D01*
X-41885714Y18755476D01*
X-41933333Y18945952D01*
X-41933333Y19279286D01*
X-41885714Y19469762D01*
X-41790476Y19565000D01*
X-41695238Y19612619D01*
X-40838095Y18612619D02*
X-40838095Y19612619D01*
X-40266666Y18612619D01*
X-40266666Y19612619D01*
X-39266666Y18612619D02*
X-39838095Y18612619D01*
X-39552381Y18612619D02*
X-39552381Y19612619D01*
X-39647619Y19469762D01*
X-39742857Y19374524D01*
X-39838095Y19326905D01*
X52895477Y3142619D02*
X52895477Y2428333D01*
X52847857Y2285476D01*
X52752619Y2190238D01*
X52609762Y2142619D01*
X52514524Y2142619D01*
X53895477Y2142619D02*
X53324048Y2142619D01*
X53609762Y2142619D02*
X53609762Y3142619D01*
X53514524Y2999762D01*
X53419286Y2904524D01*
X53324048Y2856905D01*
X54276429Y3047381D02*
X54324048Y3095000D01*
X54419286Y3142619D01*
X54657382Y3142619D01*
X54752620Y3095000D01*
X54800239Y3047381D01*
X54847858Y2952143D01*
X54847858Y2856905D01*
X54800239Y2714048D01*
X54228810Y2142619D01*
X54847858Y2142619D01*
X47180477Y17112619D02*
X47180477Y16398333D01*
X47132857Y16255476D01*
X47037619Y16160238D01*
X46894762Y16112619D01*
X46799524Y16112619D01*
X48180477Y16112619D02*
X47609048Y16112619D01*
X47894762Y16112619D02*
X47894762Y17112619D01*
X47799524Y16969762D01*
X47704286Y16874524D01*
X47609048Y16826905D01*
X48513810Y17112619D02*
X49132858Y17112619D01*
X48799524Y16731667D01*
X48942382Y16731667D01*
X49037620Y16684048D01*
X49085239Y16636429D01*
X49132858Y16541190D01*
X49132858Y16303095D01*
X49085239Y16207857D01*
X49037620Y16160238D01*
X48942382Y16112619D01*
X48656667Y16112619D01*
X48561429Y16160238D01*
X48513810Y16207857D01*
X-25209523Y-7017381D02*
X-25209523Y-7731667D01*
X-25257143Y-7874524D01*
X-25352381Y-7969762D01*
X-25495238Y-8017381D01*
X-25590476Y-8017381D01*
X-24209523Y-8017381D02*
X-24780952Y-8017381D01*
X-24495238Y-8017381D02*
X-24495238Y-7017381D01*
X-24590476Y-7160238D01*
X-24685714Y-7255476D01*
X-24780952Y-7303095D01*
X-23352380Y-7350714D02*
X-23352380Y-8017381D01*
X-23590476Y-6969762D02*
X-23828571Y-7684048D01*
X-23209523Y-7684048D01*
X11620477Y20922619D02*
X11620477Y20208333D01*
X11572857Y20065476D01*
X11477619Y19970238D01*
X11334762Y19922619D01*
X11239524Y19922619D01*
X12620477Y19922619D02*
X12049048Y19922619D01*
X12334762Y19922619D02*
X12334762Y20922619D01*
X12239524Y20779762D01*
X12144286Y20684524D01*
X12049048Y20636905D01*
X13525239Y20922619D02*
X13049048Y20922619D01*
X13001429Y20446429D01*
X13049048Y20494048D01*
X13144286Y20541667D01*
X13382382Y20541667D01*
X13477620Y20494048D01*
X13525239Y20446429D01*
X13572858Y20351190D01*
X13572858Y20113095D01*
X13525239Y20017857D01*
X13477620Y19970238D01*
X13382382Y19922619D01*
X13144286Y19922619D01*
X13049048Y19970238D01*
X13001429Y20017857D01*
X19240477Y602619D02*
X19240477Y-111667D01*
X19192857Y-254524D01*
X19097619Y-349762D01*
X18954762Y-397381D01*
X18859524Y-397381D01*
X20240477Y-397381D02*
X19669048Y-397381D01*
X19954762Y-397381D02*
X19954762Y602619D01*
X19859524Y459762D01*
X19764286Y364524D01*
X19669048Y316905D01*
X21097620Y602619D02*
X20907143Y602619D01*
X20811905Y555000D01*
X20764286Y507381D01*
X20669048Y364524D01*
X20621429Y174048D01*
X20621429Y-206905D01*
X20669048Y-302143D01*
X20716667Y-349762D01*
X20811905Y-397381D01*
X21002382Y-397381D01*
X21097620Y-349762D01*
X21145239Y-302143D01*
X21192858Y-206905D01*
X21192858Y31190D01*
X21145239Y126429D01*
X21097620Y174048D01*
X21002382Y221667D01*
X20811905Y221667D01*
X20716667Y174048D01*
X20669048Y126429D01*
X20621429Y31190D01*
X-36639523Y-22257381D02*
X-36639523Y-22971667D01*
X-36687143Y-23114524D01*
X-36782381Y-23209762D01*
X-36925238Y-23257381D01*
X-37020476Y-23257381D01*
X-35639523Y-23257381D02*
X-36210952Y-23257381D01*
X-35925238Y-23257381D02*
X-35925238Y-22257381D01*
X-36020476Y-22400238D01*
X-36115714Y-22495476D01*
X-36210952Y-22543095D01*
X-35306190Y-22257381D02*
X-34639523Y-22257381D01*
X-35068095Y-23257381D01*
X-642857Y997619D02*
X-976191Y1473810D01*
X-1214286Y997619D02*
X-1214286Y1997619D01*
X-833333Y1997619D01*
X-738095Y1950000D01*
X-690476Y1902381D01*
X-642857Y1807143D01*
X-642857Y1664286D01*
X-690476Y1569048D01*
X-738095Y1521429D01*
X-833333Y1473810D01*
X-1214286Y1473810D01*
X309524Y997619D02*
X-261905Y997619D01*
X23809Y997619D02*
X23809Y1997619D01*
X-71429Y1854762D01*
X-166667Y1759524D01*
X-261905Y1711905D01*
X642857Y1997619D02*
X1261905Y1997619D01*
X928571Y1616667D01*
X1071429Y1616667D01*
X1166667Y1569048D01*
X1214286Y1521429D01*
X1261905Y1426190D01*
X1261905Y1188095D01*
X1214286Y1092857D01*
X1166667Y1045238D01*
X1071429Y997619D01*
X785714Y997619D01*
X690476Y1045238D01*
X642857Y1092857D01*
X5051443Y-25620862D02*
X5141535Y-25650892D01*
X5291688Y-25650892D01*
X5351750Y-25620862D01*
X5381780Y-25590831D01*
X5411811Y-25530770D01*
X5411811Y-25470709D01*
X5381780Y-25410647D01*
X5351750Y-25380617D01*
X5291688Y-25350586D01*
X5171566Y-25320556D01*
X5111505Y-25290525D01*
X5081474Y-25260494D01*
X5051443Y-25200433D01*
X5051443Y-25140372D01*
X5081474Y-25080311D01*
X5111505Y-25050280D01*
X5171566Y-25020249D01*
X5321719Y-25020249D01*
X5411811Y-25050280D01*
X5622025Y-25020249D02*
X5772178Y-25650892D01*
X5892300Y-25200433D01*
X6012423Y-25650892D01*
X6162576Y-25020249D01*
X6733158Y-25650892D02*
X6372790Y-25650892D01*
X6552974Y-25650892D02*
X6552974Y-25020249D01*
X6492913Y-25110341D01*
X6432852Y-25170402D01*
X6372790Y-25200433D01*
X-8918557Y18194138D02*
X-8828465Y18164108D01*
X-8678312Y18164108D01*
X-8618250Y18194138D01*
X-8588220Y18224169D01*
X-8558189Y18284230D01*
X-8558189Y18344291D01*
X-8588220Y18404353D01*
X-8618250Y18434383D01*
X-8678312Y18464414D01*
X-8798434Y18494444D01*
X-8858495Y18524475D01*
X-8888526Y18554506D01*
X-8918557Y18614567D01*
X-8918557Y18674628D01*
X-8888526Y18734689D01*
X-8858495Y18764720D01*
X-8798434Y18794751D01*
X-8648281Y18794751D01*
X-8558189Y18764720D01*
X-8347975Y18794751D02*
X-8197822Y18164108D01*
X-8077700Y18614567D01*
X-7957577Y18164108D01*
X-7807424Y18794751D01*
X-7597210Y18734689D02*
X-7567179Y18764720D01*
X-7507118Y18794751D01*
X-7356965Y18794751D01*
X-7296903Y18764720D01*
X-7266873Y18734689D01*
X-7236842Y18674628D01*
X-7236842Y18614567D01*
X-7266873Y18524475D01*
X-7627240Y18164108D01*
X-7236842Y18164108D01*
X107346905Y-131107381D02*
X107346905Y-131916905D01*
X107394524Y-132012143D01*
X107442143Y-132059762D01*
X107537381Y-132107381D01*
X107727858Y-132107381D01*
X107823096Y-132059762D01*
X107870715Y-132012143D01*
X107918334Y-131916905D01*
X107918334Y-131107381D01*
X108918334Y-132107381D02*
X108346905Y-132107381D01*
X108632619Y-132107381D02*
X108632619Y-131107381D01*
X108537381Y-131250238D01*
X108442143Y-131345476D01*
X108346905Y-131393095D01*
X109823096Y-131107381D02*
X109346905Y-131107381D01*
X109299286Y-131583571D01*
X109346905Y-131535952D01*
X109442143Y-131488333D01*
X109680239Y-131488333D01*
X109775477Y-131535952D01*
X109823096Y-131583571D01*
X109870715Y-131678810D01*
X109870715Y-131916905D01*
X109823096Y-132012143D01*
X109775477Y-132059762D01*
X109680239Y-132107381D01*
X109442143Y-132107381D01*
X109346905Y-132059762D01*
X109299286Y-132012143D01*
X130660226Y-72831149D02*
X130113051Y-73290284D01*
X129973007Y-73345631D01*
X129838833Y-73333893D01*
X129710528Y-73255067D01*
X129649310Y-73182110D01*
X130536969Y-74239981D02*
X130169662Y-73802241D01*
X130353315Y-74021111D02*
X131119360Y-73378323D01*
X130948707Y-73397194D01*
X130814533Y-73385455D01*
X130716837Y-73343107D01*
X134470226Y-44891149D02*
X133923051Y-45350284D01*
X133783007Y-45405631D01*
X133648833Y-45393893D01*
X133520528Y-45315067D01*
X133459310Y-45242110D01*
X134672750Y-45280672D02*
X134739837Y-45286541D01*
X134837533Y-45328889D01*
X134990578Y-45511281D01*
X135015318Y-45614846D01*
X135009448Y-45681933D01*
X134967101Y-45779629D01*
X134894144Y-45840847D01*
X134754100Y-45896196D01*
X133949053Y-45825763D01*
X134346969Y-46299981D01*
X99381134Y-74938247D02*
X98677699Y-75062281D01*
X98528744Y-75040192D01*
X98418415Y-74962939D01*
X98346712Y-74830521D01*
X98330174Y-74736730D01*
X99447285Y-75313412D02*
X99554782Y-75923055D01*
X99121735Y-75660937D01*
X99146542Y-75801624D01*
X99116184Y-75903684D01*
X99077557Y-75958849D01*
X98992034Y-76022282D01*
X98757556Y-76063627D01*
X98655496Y-76033270D01*
X98600332Y-75994643D01*
X98536898Y-75909121D01*
X98487284Y-75627746D01*
X98517642Y-75525686D01*
X98556269Y-75470522D01*
X77502381Y-120618333D02*
X78216667Y-120618333D01*
X78359524Y-120665953D01*
X78454762Y-120761191D01*
X78502381Y-120904048D01*
X78502381Y-120999286D01*
X77835714Y-119713571D02*
X78502381Y-119713571D01*
X77454762Y-119951667D02*
X78169048Y-120189762D01*
X78169048Y-119570714D01*
X128301667Y-116872381D02*
X128301667Y-117586667D01*
X128254047Y-117729524D01*
X128158809Y-117824762D01*
X128015952Y-117872381D01*
X127920714Y-117872381D01*
X129254048Y-116872381D02*
X128777857Y-116872381D01*
X128730238Y-117348571D01*
X128777857Y-117300952D01*
X128873095Y-117253333D01*
X129111191Y-117253333D01*
X129206429Y-117300952D01*
X129254048Y-117348571D01*
X129301667Y-117443810D01*
X129301667Y-117681905D01*
X129254048Y-117777143D01*
X129206429Y-117824762D01*
X129111191Y-117872381D01*
X128873095Y-117872381D01*
X128777857Y-117824762D01*
X128730238Y-117777143D01*
X143446667Y-153812381D02*
X143446667Y-154526667D01*
X143399047Y-154669524D01*
X143303809Y-154764762D01*
X143160952Y-154812381D01*
X143065714Y-154812381D01*
X144351429Y-153812381D02*
X144160952Y-153812381D01*
X144065714Y-153860000D01*
X144018095Y-153907619D01*
X143922857Y-154050476D01*
X143875238Y-154240952D01*
X143875238Y-154621905D01*
X143922857Y-154717143D01*
X143970476Y-154764762D01*
X144065714Y-154812381D01*
X144256191Y-154812381D01*
X144351429Y-154764762D01*
X144399048Y-154717143D01*
X144446667Y-154621905D01*
X144446667Y-154383810D01*
X144399048Y-154288571D01*
X144351429Y-154240952D01*
X144256191Y-154193333D01*
X144065714Y-154193333D01*
X143970476Y-154240952D01*
X143922857Y-154288571D01*
X143875238Y-154383810D01*
X148622381Y-120618333D02*
X149336667Y-120618333D01*
X149479524Y-120665953D01*
X149574762Y-120761191D01*
X149622381Y-120904048D01*
X149622381Y-120999286D01*
X148622381Y-120237381D02*
X148622381Y-119570714D01*
X149622381Y-119999286D01*
X210035805Y-76294401D02*
X210739239Y-76418435D01*
X210871657Y-76490139D01*
X210948910Y-76600468D01*
X210970999Y-76749423D01*
X210954461Y-76843215D01*
X210565361Y-75759179D02*
X210501928Y-75844701D01*
X210446763Y-75883328D01*
X210344703Y-75913686D01*
X210297808Y-75905417D01*
X210212286Y-75841983D01*
X210173659Y-75786819D01*
X210143301Y-75684759D01*
X210176377Y-75497175D01*
X210239811Y-75411653D01*
X210294975Y-75373027D01*
X210397035Y-75342669D01*
X210443931Y-75350938D01*
X210529453Y-75414371D01*
X210568080Y-75469536D01*
X210598437Y-75571596D01*
X210565361Y-75759179D01*
X210595719Y-75861239D01*
X210634346Y-75916404D01*
X210719869Y-75979837D01*
X210907451Y-76012913D01*
X211009511Y-75982556D01*
X211064676Y-75943929D01*
X211128109Y-75858407D01*
X211161185Y-75670824D01*
X211130827Y-75568763D01*
X211092201Y-75513599D01*
X211006679Y-75450165D01*
X210819096Y-75417090D01*
X210717035Y-75447447D01*
X210661871Y-75486074D01*
X210598437Y-75571596D01*
X189495649Y-68966934D02*
X190042824Y-69426068D01*
X190121649Y-69554374D01*
X190133388Y-69688548D01*
X190078040Y-69828592D01*
X190016822Y-69901549D01*
X190598392Y-69208461D02*
X190720827Y-69062548D01*
X190745567Y-68958982D01*
X190739698Y-68891894D01*
X190691481Y-68727111D01*
X190576177Y-68568197D01*
X190284350Y-68323325D01*
X190180784Y-68298586D01*
X190113697Y-68304455D01*
X190016001Y-68346803D01*
X189893565Y-68492717D01*
X189868825Y-68596282D01*
X189874695Y-68663369D01*
X189917042Y-68761065D01*
X190099434Y-68914110D01*
X190202999Y-68938849D01*
X190270087Y-68932981D01*
X190367783Y-68890633D01*
X190490219Y-68744719D01*
X190514959Y-68641154D01*
X190509089Y-68574066D01*
X190466741Y-68476370D01*
X214589560Y-98541717D02*
X215136735Y-99000851D01*
X215215560Y-99129157D01*
X215227299Y-99263331D01*
X215171951Y-99403375D01*
X215110733Y-99476331D01*
X215998392Y-98418460D02*
X215631085Y-98856200D01*
X215814738Y-98637330D02*
X215048694Y-97994543D01*
X215096911Y-98159326D01*
X215108649Y-98293500D01*
X215083910Y-98397066D01*
X215630264Y-97301455D02*
X215691482Y-97228498D01*
X215789178Y-97186150D01*
X215856265Y-97180281D01*
X215959831Y-97205020D01*
X216136353Y-97290977D01*
X216318745Y-97444023D01*
X216434049Y-97602937D01*
X216476397Y-97700633D01*
X216482266Y-97767720D01*
X216457526Y-97871285D01*
X216396308Y-97944243D01*
X216298612Y-97986590D01*
X216231525Y-97992460D01*
X216127959Y-97967720D01*
X215951437Y-97881763D01*
X215769045Y-97728718D01*
X215653741Y-97569804D01*
X215611393Y-97472108D01*
X215605524Y-97405020D01*
X215630264Y-97301455D01*
X130207381Y-40449523D02*
X130921667Y-40449523D01*
X131064524Y-40497143D01*
X131159762Y-40592381D01*
X131207381Y-40735238D01*
X131207381Y-40830476D01*
X131207381Y-39449523D02*
X131207381Y-40020952D01*
X131207381Y-39735238D02*
X130207381Y-39735238D01*
X130350238Y-39830476D01*
X130445476Y-39925714D01*
X130493095Y-40020952D01*
X131207381Y-38497142D02*
X131207381Y-39068571D01*
X131207381Y-38782857D02*
X130207381Y-38782857D01*
X130350238Y-38878095D01*
X130445476Y-38973333D01*
X130493095Y-39068571D01*
X199073095Y-136002381D02*
X199073095Y-136811905D01*
X199120714Y-136907143D01*
X199168333Y-136954762D01*
X199263571Y-137002381D01*
X199454048Y-137002381D01*
X199549286Y-136954762D01*
X199596905Y-136907143D01*
X199644524Y-136811905D01*
X199644524Y-136002381D01*
X200025476Y-136002381D02*
X200644524Y-136002381D01*
X200311190Y-136383333D01*
X200454048Y-136383333D01*
X200549286Y-136430952D01*
X200596905Y-136478571D01*
X200644524Y-136573810D01*
X200644524Y-136811905D01*
X200596905Y-136907143D01*
X200549286Y-136954762D01*
X200454048Y-137002381D01*
X200168333Y-137002381D01*
X200073095Y-136954762D01*
X200025476Y-136907143D01*
M02*
