G04 #@! TF.FileFunction,Copper,L2,Bot,Signal*
%FSLAX46Y46*%
G04 Gerber Fmt 4.6, Leading zero omitted, Abs format (unit mm)*
G04 Created by KiCad (PCBNEW 4.0.7) date Friday, October 06, 2023 'PMt' 10:40:28 PM*
%MOMM*%
%LPD*%
G01*
G04 APERTURE LIST*
%ADD10C,0.020000*%
%ADD11C,1.755000*%
%ADD12R,0.890000X1.100000*%
%ADD13R,1.700000X1.700000*%
%ADD14C,1.700000*%
%ADD15R,2.000000X2.600000*%
%ADD16O,2.000000X2.600000*%
%ADD17C,1.498000*%
%ADD18R,1.498000X1.498000*%
%ADD19R,1.600000X1.600000*%
%ADD20O,1.600000X1.600000*%
%ADD21C,2.000000*%
%ADD22R,2.600000X2.000000*%
%ADD23O,2.600000X2.000000*%
%ADD24R,1.800000X1.800000*%
%ADD25C,1.800000*%
G04 APERTURE END LIST*
D10*
D11*
X150205000Y-189990000D03*
X163795000Y-189990000D03*
D10*
G36*
X194156714Y-120333457D02*
X193449648Y-119490808D01*
X194131428Y-118918727D01*
X194838494Y-119761376D01*
X194156714Y-120333457D01*
X194156714Y-120333457D01*
G37*
G36*
X194807852Y-119787088D02*
X194100786Y-118944439D01*
X194782566Y-118372358D01*
X195489632Y-119215007D01*
X194807852Y-119787088D01*
X194807852Y-119787088D01*
G37*
G36*
X196110127Y-118694349D02*
X195403061Y-117851700D01*
X196084841Y-117279619D01*
X196791907Y-118122268D01*
X196110127Y-118694349D01*
X196110127Y-118694349D01*
G37*
G36*
X195458990Y-119240718D02*
X194751924Y-118398069D01*
X195433704Y-117825988D01*
X196140770Y-118668637D01*
X195458990Y-119240718D01*
X195458990Y-119240718D01*
G37*
G36*
X194780045Y-118431584D02*
X194072979Y-117588935D01*
X194754759Y-117016854D01*
X195461825Y-117859503D01*
X194780045Y-118431584D01*
X194780045Y-118431584D01*
G37*
G36*
X195431183Y-117885214D02*
X194724117Y-117042565D01*
X195405897Y-116470484D01*
X196112963Y-117313133D01*
X195431183Y-117885214D01*
X195431183Y-117885214D01*
G37*
G36*
X194128907Y-118977953D02*
X193421841Y-118135304D01*
X194103621Y-117563223D01*
X194810687Y-118405872D01*
X194128907Y-118977953D01*
X194128907Y-118977953D01*
G37*
G36*
X193477770Y-119524323D02*
X192770704Y-118681674D01*
X193452484Y-118109593D01*
X194159550Y-118952242D01*
X193477770Y-119524323D01*
X193477770Y-119524323D01*
G37*
G36*
X192798825Y-118715188D02*
X192091759Y-117872539D01*
X192773539Y-117300458D01*
X193480605Y-118143107D01*
X192798825Y-118715188D01*
X192798825Y-118715188D01*
G37*
G36*
X193449963Y-118168819D02*
X192742897Y-117326170D01*
X193424677Y-116754089D01*
X194131743Y-117596738D01*
X193449963Y-118168819D01*
X193449963Y-118168819D01*
G37*
G36*
X194752238Y-117076080D02*
X194045172Y-116233431D01*
X194726952Y-115661350D01*
X195434018Y-116503999D01*
X194752238Y-117076080D01*
X194752238Y-117076080D01*
G37*
G36*
X194101101Y-117622449D02*
X193394035Y-116779800D01*
X194075815Y-116207719D01*
X194782881Y-117050368D01*
X194101101Y-117622449D01*
X194101101Y-117622449D01*
G37*
G36*
X193422156Y-116813315D02*
X192715090Y-115970666D01*
X193396870Y-115398585D01*
X194103936Y-116241234D01*
X193422156Y-116813315D01*
X193422156Y-116813315D01*
G37*
G36*
X194073294Y-116266945D02*
X193366228Y-115424296D01*
X194048008Y-114852215D01*
X194755074Y-115694864D01*
X194073294Y-116266945D01*
X194073294Y-116266945D01*
G37*
G36*
X192771019Y-117359684D02*
X192063953Y-116517035D01*
X192745733Y-115944954D01*
X193452799Y-116787603D01*
X192771019Y-117359684D01*
X192771019Y-117359684D01*
G37*
G36*
X192119881Y-117906054D02*
X191412815Y-117063405D01*
X192094595Y-116491324D01*
X192801661Y-117333973D01*
X192119881Y-117906054D01*
X192119881Y-117906054D01*
G37*
G36*
X191440936Y-117096919D02*
X190733870Y-116254270D01*
X191415650Y-115682189D01*
X192122716Y-116524838D01*
X191440936Y-117096919D01*
X191440936Y-117096919D01*
G37*
G36*
X192092074Y-116550550D02*
X191385008Y-115707901D01*
X192066788Y-115135820D01*
X192773854Y-115978469D01*
X192092074Y-116550550D01*
X192092074Y-116550550D01*
G37*
G36*
X193394350Y-115457811D02*
X192687284Y-114615162D01*
X193369064Y-114043081D01*
X194076130Y-114885730D01*
X193394350Y-115457811D01*
X193394350Y-115457811D01*
G37*
G36*
X192743212Y-116004180D02*
X192036146Y-115161531D01*
X192717926Y-114589450D01*
X193424992Y-115432099D01*
X192743212Y-116004180D01*
X192743212Y-116004180D01*
G37*
G36*
X192064267Y-115195046D02*
X191357201Y-114352397D01*
X192038981Y-113780316D01*
X192746047Y-114622965D01*
X192064267Y-115195046D01*
X192064267Y-115195046D01*
G37*
G36*
X192715405Y-114648676D02*
X192008339Y-113806027D01*
X192690119Y-113233946D01*
X193397185Y-114076595D01*
X192715405Y-114648676D01*
X192715405Y-114648676D01*
G37*
G36*
X191413130Y-115741415D02*
X190706064Y-114898766D01*
X191387844Y-114326685D01*
X192094910Y-115169334D01*
X191413130Y-115741415D01*
X191413130Y-115741415D01*
G37*
G36*
X190761992Y-116287785D02*
X190054926Y-115445136D01*
X190736706Y-114873055D01*
X191443772Y-115715704D01*
X190761992Y-116287785D01*
X190761992Y-116287785D01*
G37*
G36*
X190083048Y-115478650D02*
X189375982Y-114636001D01*
X190057762Y-114063920D01*
X190764828Y-114906569D01*
X190083048Y-115478650D01*
X190083048Y-115478650D01*
G37*
G36*
X190734185Y-114932281D02*
X190027119Y-114089632D01*
X190708899Y-113517551D01*
X191415965Y-114360200D01*
X190734185Y-114932281D01*
X190734185Y-114932281D01*
G37*
G36*
X192036461Y-113839542D02*
X191329395Y-112996893D01*
X192011175Y-112424812D01*
X192718241Y-113267461D01*
X192036461Y-113839542D01*
X192036461Y-113839542D01*
G37*
G36*
X191385323Y-114385911D02*
X190678257Y-113543262D01*
X191360037Y-112971181D01*
X192067103Y-113813830D01*
X191385323Y-114385911D01*
X191385323Y-114385911D01*
G37*
G36*
X190706379Y-113576777D02*
X189999313Y-112734128D01*
X190681093Y-112162047D01*
X191388159Y-113004696D01*
X190706379Y-113576777D01*
X190706379Y-113576777D01*
G37*
G36*
X191357516Y-113030407D02*
X190650450Y-112187758D01*
X191332230Y-111615677D01*
X192039296Y-112458326D01*
X191357516Y-113030407D01*
X191357516Y-113030407D01*
G37*
G36*
X190055241Y-114123146D02*
X189348175Y-113280497D01*
X190029955Y-112708416D01*
X190737021Y-113551065D01*
X190055241Y-114123146D01*
X190055241Y-114123146D01*
G37*
G36*
X189404103Y-114669516D02*
X188697037Y-113826867D01*
X189378817Y-113254786D01*
X190085883Y-114097435D01*
X189404103Y-114669516D01*
X189404103Y-114669516D01*
G37*
G36*
X188725159Y-113860381D02*
X188018093Y-113017732D01*
X188699873Y-112445651D01*
X189406939Y-113288300D01*
X188725159Y-113860381D01*
X188725159Y-113860381D01*
G37*
G36*
X189376296Y-113314012D02*
X188669230Y-112471363D01*
X189351010Y-111899282D01*
X190058076Y-112741931D01*
X189376296Y-113314012D01*
X189376296Y-113314012D01*
G37*
G36*
X190678572Y-112221273D02*
X189971506Y-111378624D01*
X190653286Y-110806543D01*
X191360352Y-111649192D01*
X190678572Y-112221273D01*
X190678572Y-112221273D01*
G37*
G36*
X190027434Y-112767642D02*
X189320368Y-111924993D01*
X190002148Y-111352912D01*
X190709214Y-112195561D01*
X190027434Y-112767642D01*
X190027434Y-112767642D01*
G37*
G36*
X113723093Y-63512268D02*
X114430159Y-62669619D01*
X115111939Y-63241700D01*
X114404873Y-64084349D01*
X113723093Y-63512268D01*
X113723093Y-63512268D01*
G37*
G36*
X114374230Y-64058637D02*
X115081296Y-63215988D01*
X115763076Y-63788069D01*
X115056010Y-64630718D01*
X114374230Y-64058637D01*
X114374230Y-64058637D01*
G37*
G36*
X115676506Y-65151376D02*
X116383572Y-64308727D01*
X117065352Y-64880808D01*
X116358286Y-65723457D01*
X115676506Y-65151376D01*
X115676506Y-65151376D01*
G37*
G36*
X115025368Y-64605007D02*
X115732434Y-63762358D01*
X116414214Y-64334439D01*
X115707148Y-65177088D01*
X115025368Y-64605007D01*
X115025368Y-64605007D01*
G37*
G36*
X115704313Y-63795872D02*
X116411379Y-62953223D01*
X117093159Y-63525304D01*
X116386093Y-64367953D01*
X115704313Y-63795872D01*
X115704313Y-63795872D01*
G37*
G36*
X116355450Y-64342242D02*
X117062516Y-63499593D01*
X117744296Y-64071674D01*
X117037230Y-64914323D01*
X116355450Y-64342242D01*
X116355450Y-64342242D01*
G37*
G36*
X115053175Y-63249503D02*
X115760241Y-62406854D01*
X116442021Y-62978935D01*
X115734955Y-63821584D01*
X115053175Y-63249503D01*
X115053175Y-63249503D01*
G37*
G36*
X114402037Y-62703133D02*
X115109103Y-61860484D01*
X115790883Y-62432565D01*
X115083817Y-63275214D01*
X114402037Y-62703133D01*
X114402037Y-62703133D01*
G37*
G36*
X115080982Y-61893999D02*
X115788048Y-61051350D01*
X116469828Y-61623431D01*
X115762762Y-62466080D01*
X115080982Y-61893999D01*
X115080982Y-61893999D01*
G37*
G36*
X115732119Y-62440368D02*
X116439185Y-61597719D01*
X117120965Y-62169800D01*
X116413899Y-63012449D01*
X115732119Y-62440368D01*
X115732119Y-62440368D01*
G37*
G36*
X117034395Y-63533107D02*
X117741461Y-62690458D01*
X118423241Y-63262539D01*
X117716175Y-64105188D01*
X117034395Y-63533107D01*
X117034395Y-63533107D01*
G37*
G36*
X116383257Y-62986738D02*
X117090323Y-62144089D01*
X117772103Y-62716170D01*
X117065037Y-63558819D01*
X116383257Y-62986738D01*
X116383257Y-62986738D01*
G37*
G36*
X117062201Y-62177603D02*
X117769267Y-61334954D01*
X118451047Y-61907035D01*
X117743981Y-62749684D01*
X117062201Y-62177603D01*
X117062201Y-62177603D01*
G37*
G36*
X117713339Y-62723973D02*
X118420405Y-61881324D01*
X119102185Y-62453405D01*
X118395119Y-63296054D01*
X117713339Y-62723973D01*
X117713339Y-62723973D01*
G37*
G36*
X116411064Y-61631234D02*
X117118130Y-60788585D01*
X117799910Y-61360666D01*
X117092844Y-62203315D01*
X116411064Y-61631234D01*
X116411064Y-61631234D01*
G37*
G36*
X115759926Y-61084864D02*
X116466992Y-60242215D01*
X117148772Y-60814296D01*
X116441706Y-61656945D01*
X115759926Y-61084864D01*
X115759926Y-61084864D01*
G37*
G36*
X116438870Y-60275730D02*
X117145936Y-59433081D01*
X117827716Y-60005162D01*
X117120650Y-60847811D01*
X116438870Y-60275730D01*
X116438870Y-60275730D01*
G37*
G36*
X117090008Y-60822099D02*
X117797074Y-59979450D01*
X118478854Y-60551531D01*
X117771788Y-61394180D01*
X117090008Y-60822099D01*
X117090008Y-60822099D01*
G37*
G36*
X118392284Y-61914838D02*
X119099350Y-61072189D01*
X119781130Y-61644270D01*
X119074064Y-62486919D01*
X118392284Y-61914838D01*
X118392284Y-61914838D01*
G37*
G36*
X117741146Y-61368469D02*
X118448212Y-60525820D01*
X119129992Y-61097901D01*
X118422926Y-61940550D01*
X117741146Y-61368469D01*
X117741146Y-61368469D01*
G37*
G36*
X118420090Y-60559334D02*
X119127156Y-59716685D01*
X119808936Y-60288766D01*
X119101870Y-61131415D01*
X118420090Y-60559334D01*
X118420090Y-60559334D01*
G37*
G36*
X119071228Y-61105704D02*
X119778294Y-60263055D01*
X120460074Y-60835136D01*
X119753008Y-61677785D01*
X119071228Y-61105704D01*
X119071228Y-61105704D01*
G37*
G36*
X117768953Y-60012965D02*
X118476019Y-59170316D01*
X119157799Y-59742397D01*
X118450733Y-60585046D01*
X117768953Y-60012965D01*
X117768953Y-60012965D01*
G37*
G36*
X117117815Y-59466595D02*
X117824881Y-58623946D01*
X118506661Y-59196027D01*
X117799595Y-60038676D01*
X117117815Y-59466595D01*
X117117815Y-59466595D01*
G37*
G36*
X117796759Y-58657461D02*
X118503825Y-57814812D01*
X119185605Y-58386893D01*
X118478539Y-59229542D01*
X117796759Y-58657461D01*
X117796759Y-58657461D01*
G37*
G36*
X118447897Y-59203830D02*
X119154963Y-58361181D01*
X119836743Y-58933262D01*
X119129677Y-59775911D01*
X118447897Y-59203830D01*
X118447897Y-59203830D01*
G37*
G36*
X119750172Y-60296569D02*
X120457238Y-59453920D01*
X121139018Y-60026001D01*
X120431952Y-60868650D01*
X119750172Y-60296569D01*
X119750172Y-60296569D01*
G37*
G36*
X119099035Y-59750200D02*
X119806101Y-58907551D01*
X120487881Y-59479632D01*
X119780815Y-60322281D01*
X119099035Y-59750200D01*
X119099035Y-59750200D01*
G37*
G36*
X119777979Y-58941065D02*
X120485045Y-58098416D01*
X121166825Y-58670497D01*
X120459759Y-59513146D01*
X119777979Y-58941065D01*
X119777979Y-58941065D01*
G37*
G36*
X120429117Y-59487435D02*
X121136183Y-58644786D01*
X121817963Y-59216867D01*
X121110897Y-60059516D01*
X120429117Y-59487435D01*
X120429117Y-59487435D01*
G37*
G36*
X119126841Y-58394696D02*
X119833907Y-57552047D01*
X120515687Y-58124128D01*
X119808621Y-58966777D01*
X119126841Y-58394696D01*
X119126841Y-58394696D01*
G37*
G36*
X118475704Y-57848326D02*
X119182770Y-57005677D01*
X119864550Y-57577758D01*
X119157484Y-58420407D01*
X118475704Y-57848326D01*
X118475704Y-57848326D01*
G37*
G36*
X119154648Y-57039192D02*
X119861714Y-56196543D01*
X120543494Y-56768624D01*
X119836428Y-57611273D01*
X119154648Y-57039192D01*
X119154648Y-57039192D01*
G37*
G36*
X119805786Y-57585561D02*
X120512852Y-56742912D01*
X121194632Y-57314993D01*
X120487566Y-58157642D01*
X119805786Y-57585561D01*
X119805786Y-57585561D01*
G37*
G36*
X121108061Y-58678300D02*
X121815127Y-57835651D01*
X122496907Y-58407732D01*
X121789841Y-59250381D01*
X121108061Y-58678300D01*
X121108061Y-58678300D01*
G37*
G36*
X120456924Y-58131931D02*
X121163990Y-57289282D01*
X121845770Y-57861363D01*
X121138704Y-58704012D01*
X120456924Y-58131931D01*
X120456924Y-58131931D01*
G37*
G36*
X126941907Y-90792732D02*
X126234841Y-91635381D01*
X125553061Y-91063300D01*
X126260127Y-90220651D01*
X126941907Y-90792732D01*
X126941907Y-90792732D01*
G37*
G36*
X126290770Y-90246363D02*
X125583704Y-91089012D01*
X124901924Y-90516931D01*
X125608990Y-89674282D01*
X126290770Y-90246363D01*
X126290770Y-90246363D01*
G37*
G36*
X124988494Y-89153624D02*
X124281428Y-89996273D01*
X123599648Y-89424192D01*
X124306714Y-88581543D01*
X124988494Y-89153624D01*
X124988494Y-89153624D01*
G37*
G36*
X125639632Y-89699993D02*
X124932566Y-90542642D01*
X124250786Y-89970561D01*
X124957852Y-89127912D01*
X125639632Y-89699993D01*
X125639632Y-89699993D01*
G37*
G36*
X124960687Y-90509128D02*
X124253621Y-91351777D01*
X123571841Y-90779696D01*
X124278907Y-89937047D01*
X124960687Y-90509128D01*
X124960687Y-90509128D01*
G37*
G36*
X124309550Y-89962758D02*
X123602484Y-90805407D01*
X122920704Y-90233326D01*
X123627770Y-89390677D01*
X124309550Y-89962758D01*
X124309550Y-89962758D01*
G37*
G36*
X125611825Y-91055497D02*
X124904759Y-91898146D01*
X124222979Y-91326065D01*
X124930045Y-90483416D01*
X125611825Y-91055497D01*
X125611825Y-91055497D01*
G37*
G36*
X126262963Y-91601867D02*
X125555897Y-92444516D01*
X124874117Y-91872435D01*
X125581183Y-91029786D01*
X126262963Y-91601867D01*
X126262963Y-91601867D01*
G37*
G36*
X125584018Y-92411001D02*
X124876952Y-93253650D01*
X124195172Y-92681569D01*
X124902238Y-91838920D01*
X125584018Y-92411001D01*
X125584018Y-92411001D01*
G37*
G36*
X124932881Y-91864632D02*
X124225815Y-92707281D01*
X123544035Y-92135200D01*
X124251101Y-91292551D01*
X124932881Y-91864632D01*
X124932881Y-91864632D01*
G37*
G36*
X123630605Y-90771893D02*
X122923539Y-91614542D01*
X122241759Y-91042461D01*
X122948825Y-90199812D01*
X123630605Y-90771893D01*
X123630605Y-90771893D01*
G37*
G36*
X124281743Y-91318262D02*
X123574677Y-92160911D01*
X122892897Y-91588830D01*
X123599963Y-90746181D01*
X124281743Y-91318262D01*
X124281743Y-91318262D01*
G37*
G36*
X123602799Y-92127397D02*
X122895733Y-92970046D01*
X122213953Y-92397965D01*
X122921019Y-91555316D01*
X123602799Y-92127397D01*
X123602799Y-92127397D01*
G37*
G36*
X122951661Y-91581027D02*
X122244595Y-92423676D01*
X121562815Y-91851595D01*
X122269881Y-91008946D01*
X122951661Y-91581027D01*
X122951661Y-91581027D01*
G37*
G36*
X124253936Y-92673766D02*
X123546870Y-93516415D01*
X122865090Y-92944334D01*
X123572156Y-92101685D01*
X124253936Y-92673766D01*
X124253936Y-92673766D01*
G37*
G36*
X124905074Y-93220136D02*
X124198008Y-94062785D01*
X123516228Y-93490704D01*
X124223294Y-92648055D01*
X124905074Y-93220136D01*
X124905074Y-93220136D01*
G37*
G36*
X124226130Y-94029270D02*
X123519064Y-94871919D01*
X122837284Y-94299838D01*
X123544350Y-93457189D01*
X124226130Y-94029270D01*
X124226130Y-94029270D01*
G37*
G36*
X123574992Y-93482901D02*
X122867926Y-94325550D01*
X122186146Y-93753469D01*
X122893212Y-92910820D01*
X123574992Y-93482901D01*
X123574992Y-93482901D01*
G37*
G36*
X122272716Y-92390162D02*
X121565650Y-93232811D01*
X120883870Y-92660730D01*
X121590936Y-91818081D01*
X122272716Y-92390162D01*
X122272716Y-92390162D01*
G37*
G36*
X122923854Y-92936531D02*
X122216788Y-93779180D01*
X121535008Y-93207099D01*
X122242074Y-92364450D01*
X122923854Y-92936531D01*
X122923854Y-92936531D01*
G37*
G36*
X122244910Y-93745666D02*
X121537844Y-94588315D01*
X120856064Y-94016234D01*
X121563130Y-93173585D01*
X122244910Y-93745666D01*
X122244910Y-93745666D01*
G37*
G36*
X121593772Y-93199296D02*
X120886706Y-94041945D01*
X120204926Y-93469864D01*
X120911992Y-92627215D01*
X121593772Y-93199296D01*
X121593772Y-93199296D01*
G37*
G36*
X122896047Y-94292035D02*
X122188981Y-95134684D01*
X121507201Y-94562603D01*
X122214267Y-93719954D01*
X122896047Y-94292035D01*
X122896047Y-94292035D01*
G37*
G36*
X123547185Y-94838405D02*
X122840119Y-95681054D01*
X122158339Y-95108973D01*
X122865405Y-94266324D01*
X123547185Y-94838405D01*
X123547185Y-94838405D01*
G37*
G36*
X122868241Y-95647539D02*
X122161175Y-96490188D01*
X121479395Y-95918107D01*
X122186461Y-95075458D01*
X122868241Y-95647539D01*
X122868241Y-95647539D01*
G37*
G36*
X122217103Y-95101170D02*
X121510037Y-95943819D01*
X120828257Y-95371738D01*
X121535323Y-94529089D01*
X122217103Y-95101170D01*
X122217103Y-95101170D01*
G37*
G36*
X120914828Y-94008431D02*
X120207762Y-94851080D01*
X119525982Y-94278999D01*
X120233048Y-93436350D01*
X120914828Y-94008431D01*
X120914828Y-94008431D01*
G37*
G36*
X121565965Y-94554800D02*
X120858899Y-95397449D01*
X120177119Y-94825368D01*
X120884185Y-93982719D01*
X121565965Y-94554800D01*
X121565965Y-94554800D01*
G37*
G36*
X120887021Y-95363935D02*
X120179955Y-96206584D01*
X119498175Y-95634503D01*
X120205241Y-94791854D01*
X120887021Y-95363935D01*
X120887021Y-95363935D01*
G37*
G36*
X120235883Y-94817565D02*
X119528817Y-95660214D01*
X118847037Y-95088133D01*
X119554103Y-94245484D01*
X120235883Y-94817565D01*
X120235883Y-94817565D01*
G37*
G36*
X121538159Y-95910304D02*
X120831093Y-96752953D01*
X120149313Y-96180872D01*
X120856379Y-95338223D01*
X121538159Y-95910304D01*
X121538159Y-95910304D01*
G37*
G36*
X122189296Y-96456674D02*
X121482230Y-97299323D01*
X120800450Y-96727242D01*
X121507516Y-95884593D01*
X122189296Y-96456674D01*
X122189296Y-96456674D01*
G37*
G36*
X121510352Y-97265808D02*
X120803286Y-98108457D01*
X120121506Y-97536376D01*
X120828572Y-96693727D01*
X121510352Y-97265808D01*
X121510352Y-97265808D01*
G37*
G36*
X120859214Y-96719439D02*
X120152148Y-97562088D01*
X119470368Y-96990007D01*
X120177434Y-96147358D01*
X120859214Y-96719439D01*
X120859214Y-96719439D01*
G37*
G36*
X119556939Y-95626700D02*
X118849873Y-96469349D01*
X118168093Y-95897268D01*
X118875159Y-95054619D01*
X119556939Y-95626700D01*
X119556939Y-95626700D01*
G37*
G36*
X120208076Y-96173069D02*
X119501010Y-97015718D01*
X118819230Y-96443637D01*
X119526296Y-95600988D01*
X120208076Y-96173069D01*
X120208076Y-96173069D01*
G37*
G36*
X156056714Y-99378457D02*
X155349648Y-98535808D01*
X156031428Y-97963727D01*
X156738494Y-98806376D01*
X156056714Y-99378457D01*
X156056714Y-99378457D01*
G37*
G36*
X156707852Y-98832088D02*
X156000786Y-97989439D01*
X156682566Y-97417358D01*
X157389632Y-98260007D01*
X156707852Y-98832088D01*
X156707852Y-98832088D01*
G37*
G36*
X158010127Y-97739349D02*
X157303061Y-96896700D01*
X157984841Y-96324619D01*
X158691907Y-97167268D01*
X158010127Y-97739349D01*
X158010127Y-97739349D01*
G37*
G36*
X157358990Y-98285718D02*
X156651924Y-97443069D01*
X157333704Y-96870988D01*
X158040770Y-97713637D01*
X157358990Y-98285718D01*
X157358990Y-98285718D01*
G37*
G36*
X156680045Y-97476584D02*
X155972979Y-96633935D01*
X156654759Y-96061854D01*
X157361825Y-96904503D01*
X156680045Y-97476584D01*
X156680045Y-97476584D01*
G37*
G36*
X157331183Y-96930214D02*
X156624117Y-96087565D01*
X157305897Y-95515484D01*
X158012963Y-96358133D01*
X157331183Y-96930214D01*
X157331183Y-96930214D01*
G37*
G36*
X156028907Y-98022953D02*
X155321841Y-97180304D01*
X156003621Y-96608223D01*
X156710687Y-97450872D01*
X156028907Y-98022953D01*
X156028907Y-98022953D01*
G37*
G36*
X155377770Y-98569323D02*
X154670704Y-97726674D01*
X155352484Y-97154593D01*
X156059550Y-97997242D01*
X155377770Y-98569323D01*
X155377770Y-98569323D01*
G37*
G36*
X154698825Y-97760188D02*
X153991759Y-96917539D01*
X154673539Y-96345458D01*
X155380605Y-97188107D01*
X154698825Y-97760188D01*
X154698825Y-97760188D01*
G37*
G36*
X155349963Y-97213819D02*
X154642897Y-96371170D01*
X155324677Y-95799089D01*
X156031743Y-96641738D01*
X155349963Y-97213819D01*
X155349963Y-97213819D01*
G37*
G36*
X156652238Y-96121080D02*
X155945172Y-95278431D01*
X156626952Y-94706350D01*
X157334018Y-95548999D01*
X156652238Y-96121080D01*
X156652238Y-96121080D01*
G37*
G36*
X156001101Y-96667449D02*
X155294035Y-95824800D01*
X155975815Y-95252719D01*
X156682881Y-96095368D01*
X156001101Y-96667449D01*
X156001101Y-96667449D01*
G37*
G36*
X155322156Y-95858315D02*
X154615090Y-95015666D01*
X155296870Y-94443585D01*
X156003936Y-95286234D01*
X155322156Y-95858315D01*
X155322156Y-95858315D01*
G37*
G36*
X155973294Y-95311945D02*
X155266228Y-94469296D01*
X155948008Y-93897215D01*
X156655074Y-94739864D01*
X155973294Y-95311945D01*
X155973294Y-95311945D01*
G37*
G36*
X154671019Y-96404684D02*
X153963953Y-95562035D01*
X154645733Y-94989954D01*
X155352799Y-95832603D01*
X154671019Y-96404684D01*
X154671019Y-96404684D01*
G37*
G36*
X154019881Y-96951054D02*
X153312815Y-96108405D01*
X153994595Y-95536324D01*
X154701661Y-96378973D01*
X154019881Y-96951054D01*
X154019881Y-96951054D01*
G37*
G36*
X153340936Y-96141919D02*
X152633870Y-95299270D01*
X153315650Y-94727189D01*
X154022716Y-95569838D01*
X153340936Y-96141919D01*
X153340936Y-96141919D01*
G37*
G36*
X153992074Y-95595550D02*
X153285008Y-94752901D01*
X153966788Y-94180820D01*
X154673854Y-95023469D01*
X153992074Y-95595550D01*
X153992074Y-95595550D01*
G37*
G36*
X155294350Y-94502811D02*
X154587284Y-93660162D01*
X155269064Y-93088081D01*
X155976130Y-93930730D01*
X155294350Y-94502811D01*
X155294350Y-94502811D01*
G37*
G36*
X154643212Y-95049180D02*
X153936146Y-94206531D01*
X154617926Y-93634450D01*
X155324992Y-94477099D01*
X154643212Y-95049180D01*
X154643212Y-95049180D01*
G37*
G36*
X153964267Y-94240046D02*
X153257201Y-93397397D01*
X153938981Y-92825316D01*
X154646047Y-93667965D01*
X153964267Y-94240046D01*
X153964267Y-94240046D01*
G37*
G36*
X154615405Y-93693676D02*
X153908339Y-92851027D01*
X154590119Y-92278946D01*
X155297185Y-93121595D01*
X154615405Y-93693676D01*
X154615405Y-93693676D01*
G37*
G36*
X153313130Y-94786415D02*
X152606064Y-93943766D01*
X153287844Y-93371685D01*
X153994910Y-94214334D01*
X153313130Y-94786415D01*
X153313130Y-94786415D01*
G37*
G36*
X152661992Y-95332785D02*
X151954926Y-94490136D01*
X152636706Y-93918055D01*
X153343772Y-94760704D01*
X152661992Y-95332785D01*
X152661992Y-95332785D01*
G37*
G36*
X151983048Y-94523650D02*
X151275982Y-93681001D01*
X151957762Y-93108920D01*
X152664828Y-93951569D01*
X151983048Y-94523650D01*
X151983048Y-94523650D01*
G37*
G36*
X152634185Y-93977281D02*
X151927119Y-93134632D01*
X152608899Y-92562551D01*
X153315965Y-93405200D01*
X152634185Y-93977281D01*
X152634185Y-93977281D01*
G37*
G36*
X153936461Y-92884542D02*
X153229395Y-92041893D01*
X153911175Y-91469812D01*
X154618241Y-92312461D01*
X153936461Y-92884542D01*
X153936461Y-92884542D01*
G37*
G36*
X153285323Y-93430911D02*
X152578257Y-92588262D01*
X153260037Y-92016181D01*
X153967103Y-92858830D01*
X153285323Y-93430911D01*
X153285323Y-93430911D01*
G37*
G36*
X152606379Y-92621777D02*
X151899313Y-91779128D01*
X152581093Y-91207047D01*
X153288159Y-92049696D01*
X152606379Y-92621777D01*
X152606379Y-92621777D01*
G37*
G36*
X153257516Y-92075407D02*
X152550450Y-91232758D01*
X153232230Y-90660677D01*
X153939296Y-91503326D01*
X153257516Y-92075407D01*
X153257516Y-92075407D01*
G37*
G36*
X151955241Y-93168146D02*
X151248175Y-92325497D01*
X151929955Y-91753416D01*
X152637021Y-92596065D01*
X151955241Y-93168146D01*
X151955241Y-93168146D01*
G37*
G36*
X151304103Y-93714516D02*
X150597037Y-92871867D01*
X151278817Y-92299786D01*
X151985883Y-93142435D01*
X151304103Y-93714516D01*
X151304103Y-93714516D01*
G37*
G36*
X150625159Y-92905381D02*
X149918093Y-92062732D01*
X150599873Y-91490651D01*
X151306939Y-92333300D01*
X150625159Y-92905381D01*
X150625159Y-92905381D01*
G37*
G36*
X151276296Y-92359012D02*
X150569230Y-91516363D01*
X151251010Y-90944282D01*
X151958076Y-91786931D01*
X151276296Y-92359012D01*
X151276296Y-92359012D01*
G37*
G36*
X152578572Y-91266273D02*
X151871506Y-90423624D01*
X152553286Y-89851543D01*
X153260352Y-90694192D01*
X152578572Y-91266273D01*
X152578572Y-91266273D01*
G37*
G36*
X151927434Y-91812642D02*
X151220368Y-90969993D01*
X151902148Y-90397912D01*
X152609214Y-91240561D01*
X151927434Y-91812642D01*
X151927434Y-91812642D01*
G37*
G36*
X107373093Y-113677268D02*
X108080159Y-112834619D01*
X108761939Y-113406700D01*
X108054873Y-114249349D01*
X107373093Y-113677268D01*
X107373093Y-113677268D01*
G37*
G36*
X108024230Y-114223637D02*
X108731296Y-113380988D01*
X109413076Y-113953069D01*
X108706010Y-114795718D01*
X108024230Y-114223637D01*
X108024230Y-114223637D01*
G37*
G36*
X109326506Y-115316376D02*
X110033572Y-114473727D01*
X110715352Y-115045808D01*
X110008286Y-115888457D01*
X109326506Y-115316376D01*
X109326506Y-115316376D01*
G37*
G36*
X108675368Y-114770007D02*
X109382434Y-113927358D01*
X110064214Y-114499439D01*
X109357148Y-115342088D01*
X108675368Y-114770007D01*
X108675368Y-114770007D01*
G37*
G36*
X109354313Y-113960872D02*
X110061379Y-113118223D01*
X110743159Y-113690304D01*
X110036093Y-114532953D01*
X109354313Y-113960872D01*
X109354313Y-113960872D01*
G37*
G36*
X110005450Y-114507242D02*
X110712516Y-113664593D01*
X111394296Y-114236674D01*
X110687230Y-115079323D01*
X110005450Y-114507242D01*
X110005450Y-114507242D01*
G37*
G36*
X108703175Y-113414503D02*
X109410241Y-112571854D01*
X110092021Y-113143935D01*
X109384955Y-113986584D01*
X108703175Y-113414503D01*
X108703175Y-113414503D01*
G37*
G36*
X108052037Y-112868133D02*
X108759103Y-112025484D01*
X109440883Y-112597565D01*
X108733817Y-113440214D01*
X108052037Y-112868133D01*
X108052037Y-112868133D01*
G37*
G36*
X108730982Y-112058999D02*
X109438048Y-111216350D01*
X110119828Y-111788431D01*
X109412762Y-112631080D01*
X108730982Y-112058999D01*
X108730982Y-112058999D01*
G37*
G36*
X109382119Y-112605368D02*
X110089185Y-111762719D01*
X110770965Y-112334800D01*
X110063899Y-113177449D01*
X109382119Y-112605368D01*
X109382119Y-112605368D01*
G37*
G36*
X110684395Y-113698107D02*
X111391461Y-112855458D01*
X112073241Y-113427539D01*
X111366175Y-114270188D01*
X110684395Y-113698107D01*
X110684395Y-113698107D01*
G37*
G36*
X110033257Y-113151738D02*
X110740323Y-112309089D01*
X111422103Y-112881170D01*
X110715037Y-113723819D01*
X110033257Y-113151738D01*
X110033257Y-113151738D01*
G37*
G36*
X110712201Y-112342603D02*
X111419267Y-111499954D01*
X112101047Y-112072035D01*
X111393981Y-112914684D01*
X110712201Y-112342603D01*
X110712201Y-112342603D01*
G37*
G36*
X111363339Y-112888973D02*
X112070405Y-112046324D01*
X112752185Y-112618405D01*
X112045119Y-113461054D01*
X111363339Y-112888973D01*
X111363339Y-112888973D01*
G37*
G36*
X110061064Y-111796234D02*
X110768130Y-110953585D01*
X111449910Y-111525666D01*
X110742844Y-112368315D01*
X110061064Y-111796234D01*
X110061064Y-111796234D01*
G37*
G36*
X109409926Y-111249864D02*
X110116992Y-110407215D01*
X110798772Y-110979296D01*
X110091706Y-111821945D01*
X109409926Y-111249864D01*
X109409926Y-111249864D01*
G37*
G36*
X110088870Y-110440730D02*
X110795936Y-109598081D01*
X111477716Y-110170162D01*
X110770650Y-111012811D01*
X110088870Y-110440730D01*
X110088870Y-110440730D01*
G37*
G36*
X110740008Y-110987099D02*
X111447074Y-110144450D01*
X112128854Y-110716531D01*
X111421788Y-111559180D01*
X110740008Y-110987099D01*
X110740008Y-110987099D01*
G37*
G36*
X112042284Y-112079838D02*
X112749350Y-111237189D01*
X113431130Y-111809270D01*
X112724064Y-112651919D01*
X112042284Y-112079838D01*
X112042284Y-112079838D01*
G37*
G36*
X111391146Y-111533469D02*
X112098212Y-110690820D01*
X112779992Y-111262901D01*
X112072926Y-112105550D01*
X111391146Y-111533469D01*
X111391146Y-111533469D01*
G37*
G36*
X112070090Y-110724334D02*
X112777156Y-109881685D01*
X113458936Y-110453766D01*
X112751870Y-111296415D01*
X112070090Y-110724334D01*
X112070090Y-110724334D01*
G37*
G36*
X112721228Y-111270704D02*
X113428294Y-110428055D01*
X114110074Y-111000136D01*
X113403008Y-111842785D01*
X112721228Y-111270704D01*
X112721228Y-111270704D01*
G37*
G36*
X111418953Y-110177965D02*
X112126019Y-109335316D01*
X112807799Y-109907397D01*
X112100733Y-110750046D01*
X111418953Y-110177965D01*
X111418953Y-110177965D01*
G37*
G36*
X110767815Y-109631595D02*
X111474881Y-108788946D01*
X112156661Y-109361027D01*
X111449595Y-110203676D01*
X110767815Y-109631595D01*
X110767815Y-109631595D01*
G37*
G36*
X111446759Y-108822461D02*
X112153825Y-107979812D01*
X112835605Y-108551893D01*
X112128539Y-109394542D01*
X111446759Y-108822461D01*
X111446759Y-108822461D01*
G37*
G36*
X112097897Y-109368830D02*
X112804963Y-108526181D01*
X113486743Y-109098262D01*
X112779677Y-109940911D01*
X112097897Y-109368830D01*
X112097897Y-109368830D01*
G37*
G36*
X113400172Y-110461569D02*
X114107238Y-109618920D01*
X114789018Y-110191001D01*
X114081952Y-111033650D01*
X113400172Y-110461569D01*
X113400172Y-110461569D01*
G37*
G36*
X112749035Y-109915200D02*
X113456101Y-109072551D01*
X114137881Y-109644632D01*
X113430815Y-110487281D01*
X112749035Y-109915200D01*
X112749035Y-109915200D01*
G37*
G36*
X113427979Y-109106065D02*
X114135045Y-108263416D01*
X114816825Y-108835497D01*
X114109759Y-109678146D01*
X113427979Y-109106065D01*
X113427979Y-109106065D01*
G37*
G36*
X114079117Y-109652435D02*
X114786183Y-108809786D01*
X115467963Y-109381867D01*
X114760897Y-110224516D01*
X114079117Y-109652435D01*
X114079117Y-109652435D01*
G37*
G36*
X112776841Y-108559696D02*
X113483907Y-107717047D01*
X114165687Y-108289128D01*
X113458621Y-109131777D01*
X112776841Y-108559696D01*
X112776841Y-108559696D01*
G37*
G36*
X112125704Y-108013326D02*
X112832770Y-107170677D01*
X113514550Y-107742758D01*
X112807484Y-108585407D01*
X112125704Y-108013326D01*
X112125704Y-108013326D01*
G37*
G36*
X112804648Y-107204192D02*
X113511714Y-106361543D01*
X114193494Y-106933624D01*
X113486428Y-107776273D01*
X112804648Y-107204192D01*
X112804648Y-107204192D01*
G37*
G36*
X113455786Y-107750561D02*
X114162852Y-106907912D01*
X114844632Y-107479993D01*
X114137566Y-108322642D01*
X113455786Y-107750561D01*
X113455786Y-107750561D01*
G37*
G36*
X114758061Y-108843300D02*
X115465127Y-108000651D01*
X116146907Y-108572732D01*
X115439841Y-109415381D01*
X114758061Y-108843300D01*
X114758061Y-108843300D01*
G37*
G36*
X114106924Y-108296931D02*
X114813990Y-107454282D01*
X115495770Y-108026363D01*
X114788704Y-108869012D01*
X114106924Y-108296931D01*
X114106924Y-108296931D01*
G37*
D12*
X130170000Y-110905000D03*
X131020000Y-110905000D03*
X132720000Y-110905000D03*
X131870000Y-110905000D03*
X131870000Y-109848750D03*
X132720000Y-109848750D03*
X131020000Y-109848750D03*
X130170000Y-109848750D03*
X130170000Y-108792500D03*
X131020000Y-108792500D03*
X132720000Y-108792500D03*
X131870000Y-108792500D03*
X131870000Y-107736250D03*
X132720000Y-107736250D03*
X131020000Y-107736250D03*
X130170000Y-107736250D03*
X130170000Y-106680000D03*
X131020000Y-106680000D03*
X132720000Y-106680000D03*
X131870000Y-106680000D03*
X131870000Y-105623750D03*
X132720000Y-105623750D03*
X131020000Y-105623750D03*
X130170000Y-105623750D03*
X130170000Y-104567500D03*
X131020000Y-104567500D03*
X132720000Y-104567500D03*
X131870000Y-104567500D03*
X131870000Y-103511250D03*
X132720000Y-103511250D03*
X131020000Y-103511250D03*
X130170000Y-103511250D03*
X130170000Y-102455000D03*
X131020000Y-102455000D03*
X132720000Y-102455000D03*
X131870000Y-102455000D03*
X144140000Y-112810000D03*
X144990000Y-112810000D03*
X146690000Y-112810000D03*
X145840000Y-112810000D03*
X145840000Y-111753750D03*
X146690000Y-111753750D03*
X144990000Y-111753750D03*
X144140000Y-111753750D03*
X144140000Y-110697500D03*
X144990000Y-110697500D03*
X146690000Y-110697500D03*
X145840000Y-110697500D03*
X145840000Y-109641250D03*
X146690000Y-109641250D03*
X144990000Y-109641250D03*
X144140000Y-109641250D03*
X144140000Y-108585000D03*
X144990000Y-108585000D03*
X146690000Y-108585000D03*
X145840000Y-108585000D03*
X145840000Y-107528750D03*
X146690000Y-107528750D03*
X144990000Y-107528750D03*
X144140000Y-107528750D03*
X144140000Y-106472500D03*
X144990000Y-106472500D03*
X146690000Y-106472500D03*
X145840000Y-106472500D03*
X145840000Y-105416250D03*
X146690000Y-105416250D03*
X144990000Y-105416250D03*
X144140000Y-105416250D03*
X144140000Y-104360000D03*
X144990000Y-104360000D03*
X146690000Y-104360000D03*
X145840000Y-104360000D03*
D13*
X-38100000Y12065000D03*
D14*
X-38100000Y14605000D03*
X-35560000Y12065000D03*
X-35560000Y14605000D03*
X-33020000Y12065000D03*
X-33020000Y14605000D03*
X-30480000Y12065000D03*
X-30480000Y14605000D03*
X-27940000Y12065000D03*
X-27940000Y14605000D03*
D15*
X52705000Y-1905000D03*
D16*
X55245000Y-1905000D03*
X57785000Y-1905000D03*
X60325000Y-1905000D03*
X62865000Y-1905000D03*
X65405000Y-1905000D03*
X67945000Y-1905000D03*
X70485000Y-1905000D03*
X73025000Y-1905000D03*
X75565000Y-1905000D03*
X78105000Y-1905000D03*
X80645000Y-1905000D03*
X83185000Y-1905000D03*
X85725000Y-1905000D03*
X88265000Y-1905000D03*
X90805000Y-1905000D03*
D15*
X46990000Y12065000D03*
D16*
X49530000Y12065000D03*
X52070000Y12065000D03*
X54610000Y12065000D03*
X57150000Y12065000D03*
X59690000Y12065000D03*
X62230000Y12065000D03*
X64770000Y12065000D03*
X67310000Y12065000D03*
X69850000Y12065000D03*
X72390000Y12065000D03*
X74930000Y12065000D03*
D15*
X-25400000Y-12065000D03*
D16*
X-22860000Y-12065000D03*
X-20320000Y-12065000D03*
X-17780000Y-12065000D03*
D15*
X11430000Y15875000D03*
D16*
X13970000Y15875000D03*
X16510000Y15875000D03*
X19050000Y15875000D03*
X21590000Y15875000D03*
X24130000Y15875000D03*
X26670000Y15875000D03*
X29210000Y15875000D03*
X31750000Y15875000D03*
X34290000Y15875000D03*
X36830000Y15875000D03*
X39370000Y15875000D03*
D15*
X19050000Y-4445000D03*
D16*
X21590000Y-4445000D03*
X24130000Y-4445000D03*
D15*
X-36830000Y-27305000D03*
D16*
X-34290000Y-27305000D03*
X-31750000Y-27305000D03*
X-29210000Y-27305000D03*
X-26670000Y-27305000D03*
X-24130000Y-27305000D03*
X-21590000Y-27305000D03*
X-19050000Y-27305000D03*
X-16510000Y-27305000D03*
X-13970000Y-27305000D03*
X-11430000Y-27305000D03*
X-8890000Y-27305000D03*
D17*
X5005000Y-31460000D03*
D18*
X5005000Y-26960000D03*
D17*
X11505000Y-31460000D03*
X11505000Y-26960000D03*
X-8965000Y12355000D03*
D18*
X-8965000Y16855000D03*
D17*
X-2465000Y12355000D03*
X-2465000Y16855000D03*
D19*
X104775000Y-133985000D03*
D20*
X112395000Y-167005000D03*
X104775000Y-136525000D03*
X112395000Y-164465000D03*
X104775000Y-139065000D03*
X112395000Y-161925000D03*
X104775000Y-141605000D03*
X112395000Y-159385000D03*
X104775000Y-144145000D03*
X112395000Y-156845000D03*
X104775000Y-146685000D03*
X112395000Y-154305000D03*
X104775000Y-149225000D03*
X112395000Y-151765000D03*
X104775000Y-151765000D03*
X112395000Y-149225000D03*
X104775000Y-154305000D03*
X112395000Y-146685000D03*
X104775000Y-156845000D03*
X112395000Y-144145000D03*
X104775000Y-159385000D03*
X112395000Y-141605000D03*
X104775000Y-161925000D03*
X112395000Y-139065000D03*
X104775000Y-164465000D03*
X112395000Y-136525000D03*
X104775000Y-167005000D03*
X112395000Y-133985000D03*
D10*
G36*
X124726355Y-75634579D02*
X126718070Y-73963332D01*
X128003645Y-75495421D01*
X126011930Y-77166668D01*
X124726355Y-75634579D01*
X124726355Y-75634579D01*
G37*
D21*
X128227494Y-77317917D02*
X127767868Y-77703589D01*
X129860174Y-79263670D02*
X129400548Y-79649342D01*
X131492855Y-81209423D02*
X131033229Y-81595095D01*
X133125535Y-83155176D02*
X132665909Y-83540848D01*
X134758216Y-85100928D02*
X134298590Y-85486600D01*
X136390896Y-87046681D02*
X135931270Y-87432353D01*
X138023577Y-88992434D02*
X137563951Y-89378106D01*
X139656257Y-90938187D02*
X139196631Y-91323859D01*
X141288938Y-92883940D02*
X140829312Y-93269612D01*
X142921618Y-94829693D02*
X142461992Y-95215365D01*
X144554299Y-96775446D02*
X144094673Y-97161118D01*
D10*
G36*
X128536355Y-47694579D02*
X130528070Y-46023332D01*
X131813645Y-47555421D01*
X129821930Y-49226668D01*
X128536355Y-47694579D01*
X128536355Y-47694579D01*
G37*
D21*
X132037494Y-49377917D02*
X131577868Y-49763589D01*
X133670174Y-51323670D02*
X133210548Y-51709342D01*
X135302855Y-53269423D02*
X134843229Y-53655095D01*
X136935535Y-55215176D02*
X136475909Y-55600848D01*
X138568216Y-57160928D02*
X138108590Y-57546600D01*
X140200896Y-59106681D02*
X139741270Y-59492353D01*
X141833577Y-61052434D02*
X141373951Y-61438106D01*
X143466257Y-62998187D02*
X143006631Y-63383859D01*
X145098938Y-64943940D02*
X144639312Y-65329612D01*
X146731618Y-66889693D02*
X146271992Y-67275365D01*
X148364299Y-68835446D02*
X147904673Y-69221118D01*
D10*
G36*
X104958898Y-76324065D02*
X102398398Y-76775550D01*
X102051102Y-74805935D01*
X104611602Y-74354450D01*
X104958898Y-76324065D01*
X104958898Y-76324065D01*
G37*
D21*
X102768492Y-73115682D02*
X103359376Y-73011494D01*
X102327425Y-70614271D02*
X102918309Y-70510083D01*
X101886359Y-68112859D02*
X102477243Y-68008671D01*
X101445293Y-65611447D02*
X102036177Y-65507259D01*
X101004226Y-63110036D02*
X101595110Y-63005848D01*
X100563160Y-60608624D02*
X101154044Y-60504436D01*
X100122093Y-58107212D02*
X100712977Y-58003024D01*
X99681027Y-55605800D02*
X100271911Y-55501612D01*
X99239961Y-53104389D02*
X99830845Y-53000201D01*
X98798894Y-50602977D02*
X99389778Y-50498789D01*
X98357828Y-48101565D02*
X98948712Y-47997377D01*
X97916762Y-45600154D02*
X98507646Y-45495966D01*
X97475695Y-43098742D02*
X98066579Y-42994554D01*
X97034629Y-40597330D02*
X97625513Y-40493142D01*
X96593562Y-38095919D02*
X97184446Y-37991731D01*
D22*
X82550000Y-121285000D03*
D23*
X82550000Y-118745000D03*
X82550000Y-116205000D03*
X82550000Y-113665000D03*
X82550000Y-111125000D03*
X82550000Y-108585000D03*
X82550000Y-106045000D03*
X82550000Y-103505000D03*
X82550000Y-100965000D03*
X82550000Y-98425000D03*
X82550000Y-95885000D03*
X82550000Y-93345000D03*
D15*
X127635000Y-121920000D03*
D16*
X130175000Y-121920000D03*
X132715000Y-121920000D03*
X135255000Y-121920000D03*
D15*
X144780000Y-149860000D03*
D16*
X142240000Y-149860000D03*
X139700000Y-149860000D03*
X137160000Y-149860000D03*
X134620000Y-149860000D03*
X132080000Y-149860000D03*
X129540000Y-149860000D03*
X127000000Y-149860000D03*
D22*
X153670000Y-121285000D03*
D23*
X153670000Y-118745000D03*
X153670000Y-116205000D03*
X153670000Y-113665000D03*
D10*
G36*
X205268398Y-73084450D02*
X207828898Y-73535935D01*
X207481602Y-75505550D01*
X204921102Y-75054065D01*
X205268398Y-73084450D01*
X205268398Y-73084450D01*
G37*
D21*
X206229376Y-76848506D02*
X205638492Y-76744318D01*
X205788309Y-79349917D02*
X205197425Y-79245729D01*
X205347243Y-81851329D02*
X204756359Y-81747141D01*
D10*
G36*
X186971930Y-63803332D02*
X188963645Y-65474579D01*
X187678070Y-67006668D01*
X185686355Y-65335421D01*
X186971930Y-63803332D01*
X186971930Y-63803332D01*
G37*
D21*
X185922132Y-67543589D02*
X185462506Y-67157917D01*
X184289452Y-69489342D02*
X183829826Y-69103670D01*
X182656771Y-71435095D02*
X182197145Y-71049423D01*
X181024091Y-73380848D02*
X180564465Y-72995176D01*
X179391410Y-75326600D02*
X178931784Y-74940928D01*
X177758730Y-77272353D02*
X177299104Y-76886681D01*
X176126049Y-79218106D02*
X175666423Y-78832434D01*
D10*
G36*
X212371930Y-93013332D02*
X214363645Y-94684579D01*
X213078070Y-96216668D01*
X211086355Y-94545421D01*
X212371930Y-93013332D01*
X212371930Y-93013332D01*
G37*
D21*
X211322132Y-96753589D02*
X210862506Y-96367917D01*
X209689452Y-98699342D02*
X209229826Y-98313670D01*
X208056771Y-100645095D02*
X207597145Y-100259423D01*
D22*
X135255000Y-40640000D03*
D23*
X135255000Y-38100000D03*
X135255000Y-35560000D03*
X135255000Y-33020000D03*
X135255000Y-30480000D03*
X135255000Y-27940000D03*
X135255000Y-25400000D03*
X135255000Y-22860000D03*
D24*
X197301240Y-143326240D03*
D25*
X195910000Y-146685000D03*
X197301240Y-150043760D03*
X204018760Y-150043760D03*
X205410000Y-146685000D03*
X204018760Y-143326240D03*
M02*
