G04 #@! TF.FileFunction,Soldermask,Bot*
%FSLAX46Y46*%
G04 Gerber Fmt 4.6, Leading zero omitted, Abs format (unit mm)*
G04 Created by KiCad (PCBNEW 4.0.7) date Sunday, November 19, 2023 'AMt' 11:29:43 AM*
%MOMM*%
%LPD*%
G01*
G04 APERTURE LIST*
%ADD10C,0.020000*%
%ADD11C,2.400000*%
%ADD12R,3.000000X2.400000*%
%ADD13O,3.000000X2.400000*%
%ADD14R,2.400000X3.000000*%
%ADD15O,2.400000X3.000000*%
%ADD16C,2.155000*%
%ADD17C,3.960000*%
%ADD18R,1.290000X1.500000*%
%ADD19C,1.702000*%
%ADD20R,1.702000X1.702000*%
%ADD21R,2.000000X2.000000*%
%ADD22O,2.000000X2.000000*%
%ADD23R,2.004000X2.004000*%
%ADD24C,2.004000*%
%ADD25R,2.100000X2.100000*%
%ADD26O,2.100000X2.100000*%
%ADD27R,1.412000X1.412000*%
%ADD28C,1.412000*%
%ADD29C,2.454000*%
G04 APERTURE END LIST*
D10*
G36*
X151808860Y-30697742D02*
X154266316Y-28977013D01*
X155642900Y-30942978D01*
X153185444Y-32663707D01*
X151808860Y-30697742D01*
X151808860Y-30697742D01*
G37*
D11*
X155428510Y-32728933D02*
X154937018Y-33073079D01*
X156885394Y-34809579D02*
X156393902Y-35153725D01*
X158342278Y-36890226D02*
X157850786Y-37234372D01*
X159799163Y-38970872D02*
X159307671Y-39315018D01*
X161256047Y-41051518D02*
X160764555Y-41395664D01*
X162712931Y-43132164D02*
X162221439Y-43476310D01*
X164169815Y-45212810D02*
X163678323Y-45556956D01*
X165626699Y-47293457D02*
X165135207Y-47637603D01*
X167083583Y-49374103D02*
X166592091Y-49718249D01*
X168540467Y-51454749D02*
X168048975Y-51798895D01*
X169997352Y-53535395D02*
X169505860Y-53879541D01*
X171454236Y-55616041D02*
X170962744Y-55960187D01*
X172911120Y-57696688D02*
X172419628Y-58040834D01*
X174368004Y-59777334D02*
X173876512Y-60121480D01*
X175824888Y-61857980D02*
X175333396Y-62202126D01*
D10*
G36*
X181949082Y-64445628D02*
X182725540Y-67343406D01*
X180407318Y-67964572D01*
X179630860Y-65066794D01*
X181949082Y-64445628D01*
X181949082Y-64445628D01*
G37*
D11*
X178802394Y-67152278D02*
X178647102Y-66572722D01*
X176348943Y-67809679D02*
X176193651Y-67230123D01*
X173895491Y-68467079D02*
X173740199Y-67887523D01*
D10*
G36*
X169786980Y-72826182D02*
X172244436Y-71105453D01*
X173621020Y-73071418D01*
X171163564Y-74792147D01*
X169786980Y-72826182D01*
X169786980Y-72826182D01*
G37*
D11*
X173406630Y-74857373D02*
X172915138Y-75201519D01*
X174863514Y-76938019D02*
X174372022Y-77282165D01*
X176320398Y-79018666D02*
X175828906Y-79362812D01*
X177777283Y-81099312D02*
X177285791Y-81443458D01*
X179234167Y-83179958D02*
X178742675Y-83524104D01*
X180691051Y-85260604D02*
X180199559Y-85604750D01*
X182147935Y-87341250D02*
X181656443Y-87685396D01*
X183604819Y-89421897D02*
X183113327Y-89766043D01*
X185061703Y-91502543D02*
X184570211Y-91846689D01*
X186518587Y-93583189D02*
X186027095Y-93927335D01*
X187975472Y-95663835D02*
X187483980Y-96007981D01*
D10*
G36*
X193226682Y-98898188D02*
X194003140Y-101795966D01*
X191684918Y-102417132D01*
X190908460Y-99519354D01*
X193226682Y-98898188D01*
X193226682Y-98898188D01*
G37*
D11*
X190079994Y-101604838D02*
X189924702Y-101025282D01*
X187626543Y-102262239D02*
X187471251Y-101682683D01*
X185173091Y-102919639D02*
X185017799Y-102340083D01*
X182719640Y-103577039D02*
X182564348Y-102997483D01*
X180266188Y-104234440D02*
X180110896Y-103654884D01*
X177812736Y-104891840D02*
X177657444Y-104312284D01*
X175359285Y-105549241D02*
X175203993Y-104969685D01*
D10*
G36*
X175006680Y-111459582D02*
X177464136Y-109738853D01*
X178840720Y-111704818D01*
X176383264Y-113425547D01*
X175006680Y-111459582D01*
X175006680Y-111459582D01*
G37*
D11*
X178626330Y-113490773D02*
X178134838Y-113834919D01*
X180083214Y-115571419D02*
X179591722Y-115915565D01*
X181540098Y-117652066D02*
X181048606Y-117996212D01*
X182996983Y-119732712D02*
X182505491Y-120076858D01*
X184453867Y-121813358D02*
X183962375Y-122157504D01*
X185910751Y-123894004D02*
X185419259Y-124238150D01*
X187367635Y-125974650D02*
X186876143Y-126318796D01*
X188824519Y-128055297D02*
X188333027Y-128399443D01*
X190281403Y-130135943D02*
X189789911Y-130480089D01*
X191738287Y-132216589D02*
X191246795Y-132560735D01*
X193195172Y-134297235D02*
X192703680Y-134641381D01*
D10*
G36*
X196945797Y-139767011D02*
X197466742Y-142721434D01*
X195103203Y-143138189D01*
X194582258Y-140183766D01*
X196945797Y-139767011D01*
X196945797Y-139767011D01*
G37*
D11*
X193575182Y-142189108D02*
X193470994Y-141598224D01*
X191073771Y-142630175D02*
X190969583Y-142039291D01*
X188572359Y-143071241D02*
X188468171Y-142480357D01*
X186070947Y-143512307D02*
X185966759Y-142921423D01*
X183569536Y-143953374D02*
X183465348Y-143362490D01*
X181068124Y-144394440D02*
X180963936Y-143803556D01*
X178566712Y-144835507D02*
X178462524Y-144244623D01*
X176065300Y-145276573D02*
X175961112Y-144685689D01*
X173563889Y-145717639D02*
X173459701Y-145126755D01*
X171062477Y-146158706D02*
X170958289Y-145567822D01*
X168561065Y-146599772D02*
X168456877Y-146008888D01*
D12*
X158775400Y-150418800D03*
D13*
X158775400Y-152958800D03*
X158775400Y-155498800D03*
X158775400Y-158038800D03*
D14*
X157187900Y-160985200D03*
D15*
X154647900Y-160985200D03*
X152107900Y-160985200D03*
X149567900Y-160985200D03*
X147027900Y-160985200D03*
X144487900Y-160985200D03*
X141947900Y-160985200D03*
X139407900Y-160985200D03*
D12*
X138252200Y-150152100D03*
D13*
X138252200Y-152692100D03*
X138252200Y-155232100D03*
X138252200Y-157772100D03*
D10*
G36*
X131469922Y-145505066D02*
X130948977Y-148459489D01*
X128585438Y-148042734D01*
X129106383Y-145088311D01*
X131469922Y-145505066D01*
X131469922Y-145505066D01*
G37*
D11*
X127474174Y-146628276D02*
X127578362Y-146037392D01*
X124972763Y-146187209D02*
X125076951Y-145596325D01*
X122471351Y-145746143D02*
X122575539Y-145155259D01*
X119969939Y-145305077D02*
X120074127Y-144714193D01*
X117468528Y-144864010D02*
X117572716Y-144273126D01*
X114967116Y-144422944D02*
X115071304Y-143832060D01*
X112465704Y-143981877D02*
X112569892Y-143390993D01*
X109964292Y-143540811D02*
X110068480Y-142949927D01*
X107462881Y-143099745D02*
X107567069Y-142508861D01*
X104961469Y-142658678D02*
X105065657Y-142067794D01*
X102460057Y-142217612D02*
X102564245Y-141626728D01*
D10*
G36*
X119553304Y-109307053D02*
X122010760Y-111027782D01*
X120634176Y-112993747D01*
X118176720Y-111273018D01*
X119553304Y-109307053D01*
X119553304Y-109307053D01*
G37*
D11*
X118882602Y-113403119D02*
X118391110Y-113058973D01*
X117425718Y-115483765D02*
X116934226Y-115139619D01*
X115968834Y-117564412D02*
X115477342Y-117220266D01*
X114511949Y-119645058D02*
X114020457Y-119300912D01*
X113055065Y-121725704D02*
X112563573Y-121381558D01*
X111598181Y-123806350D02*
X111106689Y-123462204D01*
X110141297Y-125886996D02*
X109649805Y-125542850D01*
X108684413Y-127967643D02*
X108192921Y-127623497D01*
X107227529Y-130048289D02*
X106736037Y-129704143D01*
X105770645Y-132128935D02*
X105279153Y-131784789D01*
X104313760Y-134209581D02*
X103822268Y-133865435D01*
D10*
G36*
X122692640Y-104276774D02*
X121916182Y-107174552D01*
X119597960Y-106553386D01*
X120374418Y-103655608D01*
X122692640Y-104276774D01*
X122692640Y-104276774D01*
G37*
D11*
X118614202Y-105047458D02*
X118769494Y-104467902D01*
X116160751Y-104390057D02*
X116316043Y-103810501D01*
X113707299Y-103732657D02*
X113862591Y-103153101D01*
X111253848Y-103075257D02*
X111409140Y-102495701D01*
X108800396Y-102417856D02*
X108955688Y-101838300D01*
X106346944Y-101760456D02*
X106502236Y-101180900D01*
X103893493Y-101103055D02*
X104048785Y-100523499D01*
D10*
G36*
X123675620Y-67571234D02*
X122899162Y-70469012D01*
X120580940Y-69847846D01*
X121357398Y-66950068D01*
X123675620Y-67571234D01*
X123675620Y-67571234D01*
G37*
D11*
X119597182Y-68341918D02*
X119752474Y-67762362D01*
X117143731Y-67684517D02*
X117299023Y-67104961D01*
X114690279Y-67027117D02*
X114845571Y-66447561D01*
D10*
G36*
X141077264Y-29068453D02*
X143534720Y-30789182D01*
X142158136Y-32755147D01*
X139700680Y-31034418D01*
X141077264Y-29068453D01*
X141077264Y-29068453D01*
G37*
D11*
X140406562Y-33164519D02*
X139915070Y-32820373D01*
X138949678Y-35245165D02*
X138458186Y-34901019D01*
X137492794Y-37325812D02*
X137001302Y-36981666D01*
X136035909Y-39406458D02*
X135544417Y-39062312D01*
X134579025Y-41487104D02*
X134087533Y-41142958D01*
X133122141Y-43567750D02*
X132630649Y-43223604D01*
X131665257Y-45648396D02*
X131173765Y-45304250D01*
X130208373Y-47729043D02*
X129716881Y-47384897D01*
X128751489Y-49809689D02*
X128259997Y-49465543D01*
X127294605Y-51890335D02*
X126803113Y-51546189D01*
X125837720Y-53970981D02*
X125346228Y-53626835D01*
X124380836Y-56051627D02*
X123889344Y-55707481D01*
X122923952Y-58132274D02*
X122432460Y-57788128D01*
X121467068Y-60212920D02*
X120975576Y-59868774D01*
X120010184Y-62293566D02*
X119518692Y-61949420D01*
D14*
X151858980Y-26123900D03*
D15*
X149318980Y-26123900D03*
X146778980Y-26123900D03*
X144238980Y-26123900D03*
D10*
G36*
X123906864Y-70678733D02*
X126364320Y-72399462D01*
X124987736Y-74365427D01*
X122530280Y-72644698D01*
X123906864Y-70678733D01*
X123906864Y-70678733D01*
G37*
D11*
X123236162Y-74774799D02*
X122744670Y-74430653D01*
X121779278Y-76855445D02*
X121287786Y-76511299D01*
X120322394Y-78936092D02*
X119830902Y-78591946D01*
X118865509Y-81016738D02*
X118374017Y-80672592D01*
X117408625Y-83097384D02*
X116917133Y-82753238D01*
X115951741Y-85178030D02*
X115460249Y-84833884D01*
X114494857Y-87258676D02*
X114003365Y-86914530D01*
X113037973Y-89339323D02*
X112546481Y-88995177D01*
X111581089Y-91419969D02*
X111089597Y-91075823D01*
X110124205Y-93500615D02*
X109632713Y-93156469D01*
X108667320Y-95581261D02*
X108175828Y-95237115D01*
D16*
X142305600Y-87632000D03*
X155895600Y-87632000D03*
D17*
X148935600Y-113792000D03*
D10*
G36*
X169474491Y-95869788D02*
X168614127Y-94641060D01*
X169670833Y-93901146D01*
X170531197Y-95129874D01*
X169474491Y-95869788D01*
X169474491Y-95869788D01*
G37*
G36*
X170170770Y-95382248D02*
X169310406Y-94153520D01*
X170367112Y-93413606D01*
X171227476Y-94642334D01*
X170170770Y-95382248D01*
X170170770Y-95382248D01*
G37*
G36*
X171563328Y-94407168D02*
X170702964Y-93178440D01*
X171759670Y-92438526D01*
X172620034Y-93667254D01*
X171563328Y-94407168D01*
X171563328Y-94407168D01*
G37*
G36*
X170867049Y-94894708D02*
X170006685Y-93665980D01*
X171063391Y-92926066D01*
X171923755Y-94154794D01*
X170867049Y-94894708D01*
X170867049Y-94894708D01*
G37*
G36*
X170261209Y-94029479D02*
X169400845Y-92800751D01*
X170457551Y-92060837D01*
X171317915Y-93289565D01*
X170261209Y-94029479D01*
X170261209Y-94029479D01*
G37*
G36*
X170957488Y-93541939D02*
X170097124Y-92313211D01*
X171153830Y-91573297D01*
X172014194Y-92802025D01*
X170957488Y-93541939D01*
X170957488Y-93541939D01*
G37*
G36*
X169564930Y-94517019D02*
X168704566Y-93288291D01*
X169761272Y-92548377D01*
X170621636Y-93777105D01*
X169564930Y-94517019D01*
X169564930Y-94517019D01*
G37*
G36*
X168868650Y-95004559D02*
X168008286Y-93775831D01*
X169064992Y-93035917D01*
X169925356Y-94264645D01*
X168868650Y-95004559D01*
X168868650Y-95004559D01*
G37*
G36*
X168262810Y-94139330D02*
X167402446Y-92910602D01*
X168459152Y-92170688D01*
X169319516Y-93399416D01*
X168262810Y-94139330D01*
X168262810Y-94139330D01*
G37*
G36*
X168959090Y-93651790D02*
X168098726Y-92423062D01*
X169155432Y-91683148D01*
X170015796Y-92911876D01*
X168959090Y-93651790D01*
X168959090Y-93651790D01*
G37*
G36*
X170351648Y-92676710D02*
X169491284Y-91447982D01*
X170547990Y-90708068D01*
X171408354Y-91936796D01*
X170351648Y-92676710D01*
X170351648Y-92676710D01*
G37*
G36*
X169655369Y-93164250D02*
X168795005Y-91935522D01*
X169851711Y-91195608D01*
X170712075Y-92424336D01*
X169655369Y-93164250D01*
X169655369Y-93164250D01*
G37*
G36*
X169049529Y-92299020D02*
X168189165Y-91070292D01*
X169245871Y-90330378D01*
X170106235Y-91559106D01*
X169049529Y-92299020D01*
X169049529Y-92299020D01*
G37*
G36*
X169745808Y-91811480D02*
X168885444Y-90582752D01*
X169942150Y-89842838D01*
X170802514Y-91071566D01*
X169745808Y-91811480D01*
X169745808Y-91811480D01*
G37*
G36*
X168353249Y-92786560D02*
X167492885Y-91557832D01*
X168549591Y-90817918D01*
X169409955Y-92046646D01*
X168353249Y-92786560D01*
X168353249Y-92786560D01*
G37*
G36*
X167656970Y-93274100D02*
X166796606Y-92045372D01*
X167853312Y-91305458D01*
X168713676Y-92534186D01*
X167656970Y-93274100D01*
X167656970Y-93274100D01*
G37*
G36*
X167051130Y-92408871D02*
X166190766Y-91180143D01*
X167247472Y-90440229D01*
X168107836Y-91668957D01*
X167051130Y-92408871D01*
X167051130Y-92408871D01*
G37*
G36*
X167747409Y-91921331D02*
X166887045Y-90692603D01*
X167943751Y-89952689D01*
X168804115Y-91181417D01*
X167747409Y-91921331D01*
X167747409Y-91921331D01*
G37*
G36*
X169139968Y-90946251D02*
X168279604Y-89717523D01*
X169336310Y-88977609D01*
X170196674Y-90206337D01*
X169139968Y-90946251D01*
X169139968Y-90946251D01*
G37*
G36*
X168443689Y-91433791D02*
X167583325Y-90205063D01*
X168640031Y-89465149D01*
X169500395Y-90693877D01*
X168443689Y-91433791D01*
X168443689Y-91433791D01*
G37*
G36*
X167837849Y-90568562D02*
X166977485Y-89339834D01*
X168034191Y-88599920D01*
X168894555Y-89828648D01*
X167837849Y-90568562D01*
X167837849Y-90568562D01*
G37*
G36*
X168534128Y-90081022D02*
X167673764Y-88852294D01*
X168730470Y-88112380D01*
X169590834Y-89341108D01*
X168534128Y-90081022D01*
X168534128Y-90081022D01*
G37*
G36*
X167141569Y-91056102D02*
X166281205Y-89827374D01*
X167337911Y-89087460D01*
X168198275Y-90316188D01*
X167141569Y-91056102D01*
X167141569Y-91056102D01*
G37*
G36*
X166445290Y-91543642D02*
X165584926Y-90314914D01*
X166641632Y-89575000D01*
X167501996Y-90803728D01*
X166445290Y-91543642D01*
X166445290Y-91543642D01*
G37*
G36*
X165839450Y-90678412D02*
X164979086Y-89449684D01*
X166035792Y-88709770D01*
X166896156Y-89938498D01*
X165839450Y-90678412D01*
X165839450Y-90678412D01*
G37*
G36*
X166535729Y-90190872D02*
X165675365Y-88962144D01*
X166732071Y-88222230D01*
X167592435Y-89450958D01*
X166535729Y-90190872D01*
X166535729Y-90190872D01*
G37*
G36*
X167928288Y-89215792D02*
X167067924Y-87987064D01*
X168124630Y-87247150D01*
X168984994Y-88475878D01*
X167928288Y-89215792D01*
X167928288Y-89215792D01*
G37*
G36*
X167232008Y-89703332D02*
X166371644Y-88474604D01*
X167428350Y-87734690D01*
X168288714Y-88963418D01*
X167232008Y-89703332D01*
X167232008Y-89703332D01*
G37*
G36*
X166626168Y-88838103D02*
X165765804Y-87609375D01*
X166822510Y-86869461D01*
X167682874Y-88098189D01*
X166626168Y-88838103D01*
X166626168Y-88838103D01*
G37*
G36*
X167322448Y-88350563D02*
X166462084Y-87121835D01*
X167518790Y-86381921D01*
X168379154Y-87610649D01*
X167322448Y-88350563D01*
X167322448Y-88350563D01*
G37*
G36*
X165929889Y-89325643D02*
X165069525Y-88096915D01*
X166126231Y-87357001D01*
X166986595Y-88585729D01*
X165929889Y-89325643D01*
X165929889Y-89325643D01*
G37*
G36*
X165233610Y-89813183D02*
X164373246Y-88584455D01*
X165429952Y-87844541D01*
X166290316Y-89073269D01*
X165233610Y-89813183D01*
X165233610Y-89813183D01*
G37*
G36*
X164627770Y-88947954D02*
X163767406Y-87719226D01*
X164824112Y-86979312D01*
X165684476Y-88208040D01*
X164627770Y-88947954D01*
X164627770Y-88947954D01*
G37*
G36*
X165324049Y-88460414D02*
X164463685Y-87231686D01*
X165520391Y-86491772D01*
X166380755Y-87720500D01*
X165324049Y-88460414D01*
X165324049Y-88460414D01*
G37*
G36*
X166716607Y-87485334D02*
X165856243Y-86256606D01*
X166912949Y-85516692D01*
X167773313Y-86745420D01*
X166716607Y-87485334D01*
X166716607Y-87485334D01*
G37*
G36*
X166020328Y-87972874D02*
X165159964Y-86744146D01*
X166216670Y-86004232D01*
X167077034Y-87232960D01*
X166020328Y-87972874D01*
X166020328Y-87972874D01*
G37*
G36*
X132410047Y-58345159D02*
X133374228Y-57196093D01*
X134362425Y-58025289D01*
X133398244Y-59174355D01*
X132410047Y-58345159D01*
X132410047Y-58345159D01*
G37*
G36*
X133061184Y-58891528D02*
X134025365Y-57742462D01*
X135013562Y-58571658D01*
X134049381Y-59720724D01*
X133061184Y-58891528D01*
X133061184Y-58891528D01*
G37*
G36*
X134363460Y-59984267D02*
X135327641Y-58835201D01*
X136315838Y-59664397D01*
X135351657Y-60813463D01*
X134363460Y-59984267D01*
X134363460Y-59984267D01*
G37*
G36*
X133712322Y-59437898D02*
X134676503Y-58288832D01*
X135664700Y-59118028D01*
X134700519Y-60267094D01*
X133712322Y-59437898D01*
X133712322Y-59437898D01*
G37*
G36*
X134391267Y-58628763D02*
X135355448Y-57479697D01*
X136343645Y-58308893D01*
X135379464Y-59457959D01*
X134391267Y-58628763D01*
X134391267Y-58628763D01*
G37*
G36*
X135042404Y-59175133D02*
X136006585Y-58026067D01*
X136994782Y-58855263D01*
X136030601Y-60004329D01*
X135042404Y-59175133D01*
X135042404Y-59175133D01*
G37*
G36*
X133740129Y-58082394D02*
X134704310Y-56933328D01*
X135692507Y-57762524D01*
X134728326Y-58911590D01*
X133740129Y-58082394D01*
X133740129Y-58082394D01*
G37*
G36*
X133088991Y-57536024D02*
X134053172Y-56386958D01*
X135041369Y-57216154D01*
X134077188Y-58365220D01*
X133088991Y-57536024D01*
X133088991Y-57536024D01*
G37*
G36*
X133767936Y-56726890D02*
X134732117Y-55577824D01*
X135720314Y-56407020D01*
X134756133Y-57556086D01*
X133767936Y-56726890D01*
X133767936Y-56726890D01*
G37*
G36*
X134419073Y-57273259D02*
X135383254Y-56124193D01*
X136371451Y-56953389D01*
X135407270Y-58102455D01*
X134419073Y-57273259D01*
X134419073Y-57273259D01*
G37*
G36*
X135721349Y-58365998D02*
X136685530Y-57216932D01*
X137673727Y-58046128D01*
X136709546Y-59195194D01*
X135721349Y-58365998D01*
X135721349Y-58365998D01*
G37*
G36*
X135070211Y-57819629D02*
X136034392Y-56670563D01*
X137022589Y-57499759D01*
X136058408Y-58648825D01*
X135070211Y-57819629D01*
X135070211Y-57819629D01*
G37*
G36*
X135749155Y-57010494D02*
X136713336Y-55861428D01*
X137701533Y-56690624D01*
X136737352Y-57839690D01*
X135749155Y-57010494D01*
X135749155Y-57010494D01*
G37*
G36*
X136400293Y-57556864D02*
X137364474Y-56407798D01*
X138352671Y-57236994D01*
X137388490Y-58386060D01*
X136400293Y-57556864D01*
X136400293Y-57556864D01*
G37*
G36*
X135098018Y-56464125D02*
X136062199Y-55315059D01*
X137050396Y-56144255D01*
X136086215Y-57293321D01*
X135098018Y-56464125D01*
X135098018Y-56464125D01*
G37*
G36*
X134446880Y-55917755D02*
X135411061Y-54768689D01*
X136399258Y-55597885D01*
X135435077Y-56746951D01*
X134446880Y-55917755D01*
X134446880Y-55917755D01*
G37*
G36*
X135125824Y-55108621D02*
X136090005Y-53959555D01*
X137078202Y-54788751D01*
X136114021Y-55937817D01*
X135125824Y-55108621D01*
X135125824Y-55108621D01*
G37*
G36*
X135776962Y-55654990D02*
X136741143Y-54505924D01*
X137729340Y-55335120D01*
X136765159Y-56484186D01*
X135776962Y-55654990D01*
X135776962Y-55654990D01*
G37*
G36*
X137079238Y-56747729D02*
X138043419Y-55598663D01*
X139031616Y-56427859D01*
X138067435Y-57576925D01*
X137079238Y-56747729D01*
X137079238Y-56747729D01*
G37*
G36*
X136428100Y-56201360D02*
X137392281Y-55052294D01*
X138380478Y-55881490D01*
X137416297Y-57030556D01*
X136428100Y-56201360D01*
X136428100Y-56201360D01*
G37*
G36*
X137107044Y-55392225D02*
X138071225Y-54243159D01*
X139059422Y-55072355D01*
X138095241Y-56221421D01*
X137107044Y-55392225D01*
X137107044Y-55392225D01*
G37*
G36*
X137758182Y-55938595D02*
X138722363Y-54789529D01*
X139710560Y-55618725D01*
X138746379Y-56767791D01*
X137758182Y-55938595D01*
X137758182Y-55938595D01*
G37*
G36*
X136455907Y-54845856D02*
X137420088Y-53696790D01*
X138408285Y-54525986D01*
X137444104Y-55675052D01*
X136455907Y-54845856D01*
X136455907Y-54845856D01*
G37*
G36*
X135804769Y-54299486D02*
X136768950Y-53150420D01*
X137757147Y-53979616D01*
X136792966Y-55128682D01*
X135804769Y-54299486D01*
X135804769Y-54299486D01*
G37*
G36*
X136483713Y-53490352D02*
X137447894Y-52341286D01*
X138436091Y-53170482D01*
X137471910Y-54319548D01*
X136483713Y-53490352D01*
X136483713Y-53490352D01*
G37*
G36*
X137134851Y-54036721D02*
X138099032Y-52887655D01*
X139087229Y-53716851D01*
X138123048Y-54865917D01*
X137134851Y-54036721D01*
X137134851Y-54036721D01*
G37*
G36*
X138437126Y-55129460D02*
X139401307Y-53980394D01*
X140389504Y-54809590D01*
X139425323Y-55958656D01*
X138437126Y-55129460D01*
X138437126Y-55129460D01*
G37*
G36*
X137785989Y-54583091D02*
X138750170Y-53434025D01*
X139738367Y-54263221D01*
X138774186Y-55412287D01*
X137785989Y-54583091D01*
X137785989Y-54583091D01*
G37*
G36*
X138464933Y-53773956D02*
X139429114Y-52624890D01*
X140417311Y-53454086D01*
X139453130Y-54603152D01*
X138464933Y-53773956D01*
X138464933Y-53773956D01*
G37*
G36*
X139116071Y-54320326D02*
X140080252Y-53171260D01*
X141068449Y-54000456D01*
X140104268Y-55149522D01*
X139116071Y-54320326D01*
X139116071Y-54320326D01*
G37*
G36*
X137813795Y-53227587D02*
X138777976Y-52078521D01*
X139766173Y-52907717D01*
X138801992Y-54056783D01*
X137813795Y-53227587D01*
X137813795Y-53227587D01*
G37*
G36*
X137162658Y-52681217D02*
X138126839Y-51532151D01*
X139115036Y-52361347D01*
X138150855Y-53510413D01*
X137162658Y-52681217D01*
X137162658Y-52681217D01*
G37*
G36*
X137841602Y-51872083D02*
X138805783Y-50723017D01*
X139793980Y-51552213D01*
X138829799Y-52701279D01*
X137841602Y-51872083D01*
X137841602Y-51872083D01*
G37*
G36*
X138492740Y-52418452D02*
X139456921Y-51269386D01*
X140445118Y-52098582D01*
X139480937Y-53247648D01*
X138492740Y-52418452D01*
X138492740Y-52418452D01*
G37*
G36*
X139795015Y-53511191D02*
X140759196Y-52362125D01*
X141747393Y-53191321D01*
X140783212Y-54340387D01*
X139795015Y-53511191D01*
X139795015Y-53511191D01*
G37*
G36*
X139143878Y-52964822D02*
X140108059Y-51815756D01*
X141096256Y-52644952D01*
X140132075Y-53794018D01*
X139143878Y-52964822D01*
X139143878Y-52964822D01*
G37*
G36*
X126129686Y-84457214D02*
X126990050Y-83228486D01*
X128046756Y-83968400D01*
X127186392Y-85197128D01*
X126129686Y-84457214D01*
X126129686Y-84457214D01*
G37*
G36*
X126825965Y-84944754D02*
X127686329Y-83716026D01*
X128743035Y-84455940D01*
X127882671Y-85684668D01*
X126825965Y-84944754D01*
X126825965Y-84944754D01*
G37*
G36*
X128218523Y-85919834D02*
X129078887Y-84691106D01*
X130135593Y-85431020D01*
X129275229Y-86659748D01*
X128218523Y-85919834D01*
X128218523Y-85919834D01*
G37*
G36*
X127522244Y-85432294D02*
X128382608Y-84203566D01*
X129439314Y-84943480D01*
X128578950Y-86172208D01*
X127522244Y-85432294D01*
X127522244Y-85432294D01*
G37*
G36*
X128128084Y-84567065D02*
X128988448Y-83338337D01*
X130045154Y-84078251D01*
X129184790Y-85306979D01*
X128128084Y-84567065D01*
X128128084Y-84567065D01*
G37*
G36*
X128824364Y-85054605D02*
X129684728Y-83825877D01*
X130741434Y-84565791D01*
X129881070Y-85794519D01*
X128824364Y-85054605D01*
X128824364Y-85054605D01*
G37*
G36*
X127431805Y-84079525D02*
X128292169Y-82850797D01*
X129348875Y-83590711D01*
X128488511Y-84819439D01*
X127431805Y-84079525D01*
X127431805Y-84079525D01*
G37*
G36*
X126735526Y-83591985D02*
X127595890Y-82363257D01*
X128652596Y-83103171D01*
X127792232Y-84331899D01*
X126735526Y-83591985D01*
X126735526Y-83591985D01*
G37*
G36*
X127341366Y-82726756D02*
X128201730Y-81498028D01*
X129258436Y-82237942D01*
X128398072Y-83466670D01*
X127341366Y-82726756D01*
X127341366Y-82726756D01*
G37*
G36*
X128037645Y-83214296D02*
X128898009Y-81985568D01*
X129954715Y-82725482D01*
X129094351Y-83954210D01*
X128037645Y-83214296D01*
X128037645Y-83214296D01*
G37*
G36*
X129430204Y-84189376D02*
X130290568Y-82960648D01*
X131347274Y-83700562D01*
X130486910Y-84929290D01*
X129430204Y-84189376D01*
X129430204Y-84189376D01*
G37*
G36*
X128733924Y-83701836D02*
X129594288Y-82473108D01*
X130650994Y-83213022D01*
X129790630Y-84441750D01*
X128733924Y-83701836D01*
X128733924Y-83701836D01*
G37*
G36*
X129339765Y-82836606D02*
X130200129Y-81607878D01*
X131256835Y-82347792D01*
X130396471Y-83576520D01*
X129339765Y-82836606D01*
X129339765Y-82836606D01*
G37*
G36*
X130036044Y-83324146D02*
X130896408Y-82095418D01*
X131953114Y-82835332D01*
X131092750Y-84064060D01*
X130036044Y-83324146D01*
X130036044Y-83324146D01*
G37*
G36*
X128643485Y-82349066D02*
X129503849Y-81120338D01*
X130560555Y-81860252D01*
X129700191Y-83088980D01*
X128643485Y-82349066D01*
X128643485Y-82349066D01*
G37*
G36*
X127947206Y-81861526D02*
X128807570Y-80632798D01*
X129864276Y-81372712D01*
X129003912Y-82601440D01*
X127947206Y-81861526D01*
X127947206Y-81861526D01*
G37*
G36*
X128553046Y-80996297D02*
X129413410Y-79767569D01*
X130470116Y-80507483D01*
X129609752Y-81736211D01*
X128553046Y-80996297D01*
X128553046Y-80996297D01*
G37*
G36*
X129249325Y-81483837D02*
X130109689Y-80255109D01*
X131166395Y-80995023D01*
X130306031Y-82223751D01*
X129249325Y-81483837D01*
X129249325Y-81483837D01*
G37*
G36*
X130641884Y-82458917D02*
X131502248Y-81230189D01*
X132558954Y-81970103D01*
X131698590Y-83198831D01*
X130641884Y-82458917D01*
X130641884Y-82458917D01*
G37*
G36*
X129945605Y-81971377D02*
X130805969Y-80742649D01*
X131862675Y-81482563D01*
X131002311Y-82711291D01*
X129945605Y-81971377D01*
X129945605Y-81971377D01*
G37*
G36*
X130551445Y-81106148D02*
X131411809Y-79877420D01*
X132468515Y-80617334D01*
X131608151Y-81846062D01*
X130551445Y-81106148D01*
X130551445Y-81106148D01*
G37*
G36*
X131247724Y-81593688D02*
X132108088Y-80364960D01*
X133164794Y-81104874D01*
X132304430Y-82333602D01*
X131247724Y-81593688D01*
X131247724Y-81593688D01*
G37*
G36*
X129855165Y-80618608D02*
X130715529Y-79389880D01*
X131772235Y-80129794D01*
X130911871Y-81358522D01*
X129855165Y-80618608D01*
X129855165Y-80618608D01*
G37*
G36*
X129158886Y-80131068D02*
X130019250Y-78902340D01*
X131075956Y-79642254D01*
X130215592Y-80870982D01*
X129158886Y-80131068D01*
X129158886Y-80131068D01*
G37*
G36*
X129764726Y-79265838D02*
X130625090Y-78037110D01*
X131681796Y-78777024D01*
X130821432Y-80005752D01*
X129764726Y-79265838D01*
X129764726Y-79265838D01*
G37*
G36*
X130461006Y-79753378D02*
X131321370Y-78524650D01*
X132378076Y-79264564D01*
X131517712Y-80493292D01*
X130461006Y-79753378D01*
X130461006Y-79753378D01*
G37*
G36*
X131853564Y-80728458D02*
X132713928Y-79499730D01*
X133770634Y-80239644D01*
X132910270Y-81468372D01*
X131853564Y-80728458D01*
X131853564Y-80728458D01*
G37*
G36*
X131157285Y-80240918D02*
X132017649Y-79012190D01*
X133074355Y-79752104D01*
X132213991Y-80980832D01*
X131157285Y-80240918D01*
X131157285Y-80240918D01*
G37*
G36*
X131763125Y-79375689D02*
X132623489Y-78146961D01*
X133680195Y-78886875D01*
X132819831Y-80115603D01*
X131763125Y-79375689D01*
X131763125Y-79375689D01*
G37*
G36*
X132459404Y-79863229D02*
X133319768Y-78634501D01*
X134376474Y-79374415D01*
X133516110Y-80603143D01*
X132459404Y-79863229D01*
X132459404Y-79863229D01*
G37*
G36*
X131066846Y-78888149D02*
X131927210Y-77659421D01*
X132983916Y-78399335D01*
X132123552Y-79628063D01*
X131066846Y-78888149D01*
X131066846Y-78888149D01*
G37*
G36*
X130370566Y-78400609D02*
X131230930Y-77171881D01*
X132287636Y-77911795D01*
X131427272Y-79140523D01*
X130370566Y-78400609D01*
X130370566Y-78400609D01*
G37*
G36*
X130976407Y-77535380D02*
X131836771Y-76306652D01*
X132893477Y-77046566D01*
X132033113Y-78275294D01*
X130976407Y-77535380D01*
X130976407Y-77535380D01*
G37*
G36*
X131672686Y-78022920D02*
X132533050Y-76794192D01*
X133589756Y-77534106D01*
X132729392Y-78762834D01*
X131672686Y-78022920D01*
X131672686Y-78022920D01*
G37*
G36*
X133065244Y-78998000D02*
X133925608Y-77769272D01*
X134982314Y-78509186D01*
X134121950Y-79737914D01*
X133065244Y-78998000D01*
X133065244Y-78998000D01*
G37*
G36*
X132368965Y-78510460D02*
X133229329Y-77281732D01*
X134286035Y-78021646D01*
X133425671Y-79250374D01*
X132368965Y-78510460D01*
X132368965Y-78510460D01*
G37*
G36*
X160401611Y-63276508D02*
X159541247Y-62047780D01*
X160597953Y-61307866D01*
X161458317Y-62536594D01*
X160401611Y-63276508D01*
X160401611Y-63276508D01*
G37*
G36*
X161097890Y-62788968D02*
X160237526Y-61560240D01*
X161294232Y-60820326D01*
X162154596Y-62049054D01*
X161097890Y-62788968D01*
X161097890Y-62788968D01*
G37*
G36*
X162490448Y-61813888D02*
X161630084Y-60585160D01*
X162686790Y-59845246D01*
X163547154Y-61073974D01*
X162490448Y-61813888D01*
X162490448Y-61813888D01*
G37*
G36*
X161794169Y-62301428D02*
X160933805Y-61072700D01*
X161990511Y-60332786D01*
X162850875Y-61561514D01*
X161794169Y-62301428D01*
X161794169Y-62301428D01*
G37*
G36*
X161188329Y-61436199D02*
X160327965Y-60207471D01*
X161384671Y-59467557D01*
X162245035Y-60696285D01*
X161188329Y-61436199D01*
X161188329Y-61436199D01*
G37*
G36*
X161884608Y-60948659D02*
X161024244Y-59719931D01*
X162080950Y-58980017D01*
X162941314Y-60208745D01*
X161884608Y-60948659D01*
X161884608Y-60948659D01*
G37*
G36*
X160492050Y-61923739D02*
X159631686Y-60695011D01*
X160688392Y-59955097D01*
X161548756Y-61183825D01*
X160492050Y-61923739D01*
X160492050Y-61923739D01*
G37*
G36*
X159795770Y-62411279D02*
X158935406Y-61182551D01*
X159992112Y-60442637D01*
X160852476Y-61671365D01*
X159795770Y-62411279D01*
X159795770Y-62411279D01*
G37*
G36*
X159189930Y-61546050D02*
X158329566Y-60317322D01*
X159386272Y-59577408D01*
X160246636Y-60806136D01*
X159189930Y-61546050D01*
X159189930Y-61546050D01*
G37*
G36*
X159886210Y-61058510D02*
X159025846Y-59829782D01*
X160082552Y-59089868D01*
X160942916Y-60318596D01*
X159886210Y-61058510D01*
X159886210Y-61058510D01*
G37*
G36*
X161278768Y-60083430D02*
X160418404Y-58854702D01*
X161475110Y-58114788D01*
X162335474Y-59343516D01*
X161278768Y-60083430D01*
X161278768Y-60083430D01*
G37*
G36*
X160582489Y-60570970D02*
X159722125Y-59342242D01*
X160778831Y-58602328D01*
X161639195Y-59831056D01*
X160582489Y-60570970D01*
X160582489Y-60570970D01*
G37*
G36*
X159976649Y-59705740D02*
X159116285Y-58477012D01*
X160172991Y-57737098D01*
X161033355Y-58965826D01*
X159976649Y-59705740D01*
X159976649Y-59705740D01*
G37*
G36*
X160672928Y-59218200D02*
X159812564Y-57989472D01*
X160869270Y-57249558D01*
X161729634Y-58478286D01*
X160672928Y-59218200D01*
X160672928Y-59218200D01*
G37*
G36*
X159280369Y-60193280D02*
X158420005Y-58964552D01*
X159476711Y-58224638D01*
X160337075Y-59453366D01*
X159280369Y-60193280D01*
X159280369Y-60193280D01*
G37*
G36*
X158584090Y-60680820D02*
X157723726Y-59452092D01*
X158780432Y-58712178D01*
X159640796Y-59940906D01*
X158584090Y-60680820D01*
X158584090Y-60680820D01*
G37*
G36*
X157978250Y-59815591D02*
X157117886Y-58586863D01*
X158174592Y-57846949D01*
X159034956Y-59075677D01*
X157978250Y-59815591D01*
X157978250Y-59815591D01*
G37*
G36*
X158674529Y-59328051D02*
X157814165Y-58099323D01*
X158870871Y-57359409D01*
X159731235Y-58588137D01*
X158674529Y-59328051D01*
X158674529Y-59328051D01*
G37*
G36*
X160067088Y-58352971D02*
X159206724Y-57124243D01*
X160263430Y-56384329D01*
X161123794Y-57613057D01*
X160067088Y-58352971D01*
X160067088Y-58352971D01*
G37*
G36*
X159370809Y-58840511D02*
X158510445Y-57611783D01*
X159567151Y-56871869D01*
X160427515Y-58100597D01*
X159370809Y-58840511D01*
X159370809Y-58840511D01*
G37*
G36*
X158764969Y-57975282D02*
X157904605Y-56746554D01*
X158961311Y-56006640D01*
X159821675Y-57235368D01*
X158764969Y-57975282D01*
X158764969Y-57975282D01*
G37*
G36*
X159461248Y-57487742D02*
X158600884Y-56259014D01*
X159657590Y-55519100D01*
X160517954Y-56747828D01*
X159461248Y-57487742D01*
X159461248Y-57487742D01*
G37*
G36*
X158068689Y-58462822D02*
X157208325Y-57234094D01*
X158265031Y-56494180D01*
X159125395Y-57722908D01*
X158068689Y-58462822D01*
X158068689Y-58462822D01*
G37*
G36*
X157372410Y-58950362D02*
X156512046Y-57721634D01*
X157568752Y-56981720D01*
X158429116Y-58210448D01*
X157372410Y-58950362D01*
X157372410Y-58950362D01*
G37*
G36*
X156766570Y-58085132D02*
X155906206Y-56856404D01*
X156962912Y-56116490D01*
X157823276Y-57345218D01*
X156766570Y-58085132D01*
X156766570Y-58085132D01*
G37*
G36*
X157462849Y-57597592D02*
X156602485Y-56368864D01*
X157659191Y-55628950D01*
X158519555Y-56857678D01*
X157462849Y-57597592D01*
X157462849Y-57597592D01*
G37*
G36*
X158855408Y-56622512D02*
X157995044Y-55393784D01*
X159051750Y-54653870D01*
X159912114Y-55882598D01*
X158855408Y-56622512D01*
X158855408Y-56622512D01*
G37*
G36*
X158159128Y-57110052D02*
X157298764Y-55881324D01*
X158355470Y-55141410D01*
X159215834Y-56370138D01*
X158159128Y-57110052D01*
X158159128Y-57110052D01*
G37*
G36*
X157553288Y-56244823D02*
X156692924Y-55016095D01*
X157749630Y-54276181D01*
X158609994Y-55504909D01*
X157553288Y-56244823D01*
X157553288Y-56244823D01*
G37*
G36*
X158249568Y-55757283D02*
X157389204Y-54528555D01*
X158445910Y-53788641D01*
X159306274Y-55017369D01*
X158249568Y-55757283D01*
X158249568Y-55757283D01*
G37*
G36*
X156857009Y-56732363D02*
X155996645Y-55503635D01*
X157053351Y-54763721D01*
X157913715Y-55992449D01*
X156857009Y-56732363D01*
X156857009Y-56732363D01*
G37*
G36*
X156160730Y-57219903D02*
X155300366Y-55991175D01*
X156357072Y-55251261D01*
X157217436Y-56479989D01*
X156160730Y-57219903D01*
X156160730Y-57219903D01*
G37*
G36*
X155554890Y-56354674D02*
X154694526Y-55125946D01*
X155751232Y-54386032D01*
X156611596Y-55614760D01*
X155554890Y-56354674D01*
X155554890Y-56354674D01*
G37*
G36*
X156251169Y-55867134D02*
X155390805Y-54638406D01*
X156447511Y-53898492D01*
X157307875Y-55127220D01*
X156251169Y-55867134D01*
X156251169Y-55867134D01*
G37*
G36*
X157643727Y-54892054D02*
X156783363Y-53663326D01*
X157840069Y-52923412D01*
X158700433Y-54152140D01*
X157643727Y-54892054D01*
X157643727Y-54892054D01*
G37*
G36*
X156947448Y-55379594D02*
X156087084Y-54150866D01*
X157143790Y-53410952D01*
X158004154Y-54639680D01*
X156947448Y-55379594D01*
X156947448Y-55379594D01*
G37*
G36*
X121907147Y-125970119D02*
X122871328Y-124821053D01*
X123859525Y-125650249D01*
X122895344Y-126799315D01*
X121907147Y-125970119D01*
X121907147Y-125970119D01*
G37*
G36*
X122558284Y-126516488D02*
X123522465Y-125367422D01*
X124510662Y-126196618D01*
X123546481Y-127345684D01*
X122558284Y-126516488D01*
X122558284Y-126516488D01*
G37*
G36*
X123860560Y-127609227D02*
X124824741Y-126460161D01*
X125812938Y-127289357D01*
X124848757Y-128438423D01*
X123860560Y-127609227D01*
X123860560Y-127609227D01*
G37*
G36*
X123209422Y-127062858D02*
X124173603Y-125913792D01*
X125161800Y-126742988D01*
X124197619Y-127892054D01*
X123209422Y-127062858D01*
X123209422Y-127062858D01*
G37*
G36*
X123888367Y-126253723D02*
X124852548Y-125104657D01*
X125840745Y-125933853D01*
X124876564Y-127082919D01*
X123888367Y-126253723D01*
X123888367Y-126253723D01*
G37*
G36*
X124539504Y-126800093D02*
X125503685Y-125651027D01*
X126491882Y-126480223D01*
X125527701Y-127629289D01*
X124539504Y-126800093D01*
X124539504Y-126800093D01*
G37*
G36*
X123237229Y-125707354D02*
X124201410Y-124558288D01*
X125189607Y-125387484D01*
X124225426Y-126536550D01*
X123237229Y-125707354D01*
X123237229Y-125707354D01*
G37*
G36*
X122586091Y-125160984D02*
X123550272Y-124011918D01*
X124538469Y-124841114D01*
X123574288Y-125990180D01*
X122586091Y-125160984D01*
X122586091Y-125160984D01*
G37*
G36*
X123265036Y-124351850D02*
X124229217Y-123202784D01*
X125217414Y-124031980D01*
X124253233Y-125181046D01*
X123265036Y-124351850D01*
X123265036Y-124351850D01*
G37*
G36*
X123916173Y-124898219D02*
X124880354Y-123749153D01*
X125868551Y-124578349D01*
X124904370Y-125727415D01*
X123916173Y-124898219D01*
X123916173Y-124898219D01*
G37*
G36*
X125218449Y-125990958D02*
X126182630Y-124841892D01*
X127170827Y-125671088D01*
X126206646Y-126820154D01*
X125218449Y-125990958D01*
X125218449Y-125990958D01*
G37*
G36*
X124567311Y-125444589D02*
X125531492Y-124295523D01*
X126519689Y-125124719D01*
X125555508Y-126273785D01*
X124567311Y-125444589D01*
X124567311Y-125444589D01*
G37*
G36*
X125246255Y-124635454D02*
X126210436Y-123486388D01*
X127198633Y-124315584D01*
X126234452Y-125464650D01*
X125246255Y-124635454D01*
X125246255Y-124635454D01*
G37*
G36*
X125897393Y-125181824D02*
X126861574Y-124032758D01*
X127849771Y-124861954D01*
X126885590Y-126011020D01*
X125897393Y-125181824D01*
X125897393Y-125181824D01*
G37*
G36*
X124595118Y-124089085D02*
X125559299Y-122940019D01*
X126547496Y-123769215D01*
X125583315Y-124918281D01*
X124595118Y-124089085D01*
X124595118Y-124089085D01*
G37*
G36*
X123943980Y-123542715D02*
X124908161Y-122393649D01*
X125896358Y-123222845D01*
X124932177Y-124371911D01*
X123943980Y-123542715D01*
X123943980Y-123542715D01*
G37*
G36*
X124622924Y-122733581D02*
X125587105Y-121584515D01*
X126575302Y-122413711D01*
X125611121Y-123562777D01*
X124622924Y-122733581D01*
X124622924Y-122733581D01*
G37*
G36*
X125274062Y-123279950D02*
X126238243Y-122130884D01*
X127226440Y-122960080D01*
X126262259Y-124109146D01*
X125274062Y-123279950D01*
X125274062Y-123279950D01*
G37*
G36*
X126576338Y-124372689D02*
X127540519Y-123223623D01*
X128528716Y-124052819D01*
X127564535Y-125201885D01*
X126576338Y-124372689D01*
X126576338Y-124372689D01*
G37*
G36*
X125925200Y-123826320D02*
X126889381Y-122677254D01*
X127877578Y-123506450D01*
X126913397Y-124655516D01*
X125925200Y-123826320D01*
X125925200Y-123826320D01*
G37*
G36*
X126604144Y-123017185D02*
X127568325Y-121868119D01*
X128556522Y-122697315D01*
X127592341Y-123846381D01*
X126604144Y-123017185D01*
X126604144Y-123017185D01*
G37*
G36*
X127255282Y-123563555D02*
X128219463Y-122414489D01*
X129207660Y-123243685D01*
X128243479Y-124392751D01*
X127255282Y-123563555D01*
X127255282Y-123563555D01*
G37*
G36*
X125953007Y-122470816D02*
X126917188Y-121321750D01*
X127905385Y-122150946D01*
X126941204Y-123300012D01*
X125953007Y-122470816D01*
X125953007Y-122470816D01*
G37*
G36*
X125301869Y-121924446D02*
X126266050Y-120775380D01*
X127254247Y-121604576D01*
X126290066Y-122753642D01*
X125301869Y-121924446D01*
X125301869Y-121924446D01*
G37*
G36*
X125980813Y-121115312D02*
X126944994Y-119966246D01*
X127933191Y-120795442D01*
X126969010Y-121944508D01*
X125980813Y-121115312D01*
X125980813Y-121115312D01*
G37*
G36*
X126631951Y-121661681D02*
X127596132Y-120512615D01*
X128584329Y-121341811D01*
X127620148Y-122490877D01*
X126631951Y-121661681D01*
X126631951Y-121661681D01*
G37*
G36*
X127934226Y-122754420D02*
X128898407Y-121605354D01*
X129886604Y-122434550D01*
X128922423Y-123583616D01*
X127934226Y-122754420D01*
X127934226Y-122754420D01*
G37*
G36*
X127283089Y-122208051D02*
X128247270Y-121058985D01*
X129235467Y-121888181D01*
X128271286Y-123037247D01*
X127283089Y-122208051D01*
X127283089Y-122208051D01*
G37*
G36*
X127962033Y-121398916D02*
X128926214Y-120249850D01*
X129914411Y-121079046D01*
X128950230Y-122228112D01*
X127962033Y-121398916D01*
X127962033Y-121398916D01*
G37*
G36*
X128613171Y-121945286D02*
X129577352Y-120796220D01*
X130565549Y-121625416D01*
X129601368Y-122774482D01*
X128613171Y-121945286D01*
X128613171Y-121945286D01*
G37*
G36*
X127310895Y-120852547D02*
X128275076Y-119703481D01*
X129263273Y-120532677D01*
X128299092Y-121681743D01*
X127310895Y-120852547D01*
X127310895Y-120852547D01*
G37*
G36*
X126659758Y-120306177D02*
X127623939Y-119157111D01*
X128612136Y-119986307D01*
X127647955Y-121135373D01*
X126659758Y-120306177D01*
X126659758Y-120306177D01*
G37*
G36*
X127338702Y-119497043D02*
X128302883Y-118347977D01*
X129291080Y-119177173D01*
X128326899Y-120326239D01*
X127338702Y-119497043D01*
X127338702Y-119497043D01*
G37*
G36*
X127989840Y-120043412D02*
X128954021Y-118894346D01*
X129942218Y-119723542D01*
X128978037Y-120872608D01*
X127989840Y-120043412D01*
X127989840Y-120043412D01*
G37*
G36*
X129292115Y-121136151D02*
X130256296Y-119987085D01*
X131244493Y-120816281D01*
X130280312Y-121965347D01*
X129292115Y-121136151D01*
X129292115Y-121136151D01*
G37*
G36*
X128640978Y-120589782D02*
X129605159Y-119440716D01*
X130593356Y-120269912D01*
X129629175Y-121418978D01*
X128640978Y-120589782D01*
X128640978Y-120589782D01*
G37*
D18*
X136680020Y-139518100D03*
X137530020Y-139518100D03*
X139230020Y-139518100D03*
X138380020Y-139518100D03*
X138380020Y-138461850D03*
X139230020Y-138461850D03*
X137530020Y-138461850D03*
X136680020Y-138461850D03*
X136680020Y-137405600D03*
X137530020Y-137405600D03*
X139230020Y-137405600D03*
X138380020Y-137405600D03*
X138380020Y-136349350D03*
X139230020Y-136349350D03*
X137530020Y-136349350D03*
X136680020Y-136349350D03*
X136680020Y-135293100D03*
X137530020Y-135293100D03*
X139230020Y-135293100D03*
X138380020Y-135293100D03*
X138380020Y-134236850D03*
X139230020Y-134236850D03*
X137530020Y-134236850D03*
X136680020Y-134236850D03*
X136680020Y-133180600D03*
X137530020Y-133180600D03*
X139230020Y-133180600D03*
X138380020Y-133180600D03*
X138380020Y-132124350D03*
X139230020Y-132124350D03*
X137530020Y-132124350D03*
X136680020Y-132124350D03*
X136680020Y-131068100D03*
X137530020Y-131068100D03*
X139230020Y-131068100D03*
X138380020Y-131068100D03*
D10*
G36*
X172150272Y-133848356D02*
X171400272Y-132549318D01*
X172517444Y-131904318D01*
X173267444Y-133203356D01*
X172150272Y-133848356D01*
X172150272Y-133848356D01*
G37*
G36*
X172886393Y-133423356D02*
X172136393Y-132124318D01*
X173253565Y-131479318D01*
X174003565Y-132778356D01*
X172886393Y-133423356D01*
X172886393Y-133423356D01*
G37*
G36*
X174358636Y-132573356D02*
X173608636Y-131274318D01*
X174725808Y-130629318D01*
X175475808Y-131928356D01*
X174358636Y-132573356D01*
X174358636Y-132573356D01*
G37*
G36*
X173622515Y-132998356D02*
X172872515Y-131699318D01*
X173989687Y-131054318D01*
X174739687Y-132353356D01*
X173622515Y-132998356D01*
X173622515Y-132998356D01*
G37*
G36*
X173094390Y-132083617D02*
X172344390Y-130784579D01*
X173461562Y-130139579D01*
X174211562Y-131438617D01*
X173094390Y-132083617D01*
X173094390Y-132083617D01*
G37*
G36*
X173830511Y-131658617D02*
X173080511Y-130359579D01*
X174197683Y-129714579D01*
X174947683Y-131013617D01*
X173830511Y-131658617D01*
X173830511Y-131658617D01*
G37*
G36*
X172358268Y-132508617D02*
X171608268Y-131209579D01*
X172725440Y-130564579D01*
X173475440Y-131863617D01*
X172358268Y-132508617D01*
X172358268Y-132508617D01*
G37*
G36*
X171622147Y-132933617D02*
X170872147Y-131634579D01*
X171989319Y-130989579D01*
X172739319Y-132288617D01*
X171622147Y-132933617D01*
X171622147Y-132933617D01*
G37*
G36*
X171094022Y-132018878D02*
X170344022Y-130719840D01*
X171461194Y-130074840D01*
X172211194Y-131373878D01*
X171094022Y-132018878D01*
X171094022Y-132018878D01*
G37*
G36*
X171830143Y-131593878D02*
X171080143Y-130294840D01*
X172197315Y-129649840D01*
X172947315Y-130948878D01*
X171830143Y-131593878D01*
X171830143Y-131593878D01*
G37*
G36*
X173302386Y-130743878D02*
X172552386Y-129444840D01*
X173669558Y-128799840D01*
X174419558Y-130098878D01*
X173302386Y-130743878D01*
X173302386Y-130743878D01*
G37*
G36*
X172566265Y-131168878D02*
X171816265Y-129869840D01*
X172933437Y-129224840D01*
X173683437Y-130523878D01*
X172566265Y-131168878D01*
X172566265Y-131168878D01*
G37*
G36*
X172038140Y-130254138D02*
X171288140Y-128955100D01*
X172405312Y-128310100D01*
X173155312Y-129609138D01*
X172038140Y-130254138D01*
X172038140Y-130254138D01*
G37*
G36*
X172774261Y-129829138D02*
X172024261Y-128530100D01*
X173141433Y-127885100D01*
X173891433Y-129184138D01*
X172774261Y-129829138D01*
X172774261Y-129829138D01*
G37*
G36*
X171302018Y-130679138D02*
X170552018Y-129380100D01*
X171669190Y-128735100D01*
X172419190Y-130034138D01*
X171302018Y-130679138D01*
X171302018Y-130679138D01*
G37*
G36*
X170565897Y-131104138D02*
X169815897Y-129805100D01*
X170933069Y-129160100D01*
X171683069Y-130459138D01*
X170565897Y-131104138D01*
X170565897Y-131104138D01*
G37*
G36*
X170037772Y-130189399D02*
X169287772Y-128890361D01*
X170404944Y-128245361D01*
X171154944Y-129544399D01*
X170037772Y-130189399D01*
X170037772Y-130189399D01*
G37*
G36*
X170773893Y-129764399D02*
X170023893Y-128465361D01*
X171141065Y-127820361D01*
X171891065Y-129119399D01*
X170773893Y-129764399D01*
X170773893Y-129764399D01*
G37*
G36*
X172246136Y-128914399D02*
X171496136Y-127615361D01*
X172613308Y-126970361D01*
X173363308Y-128269399D01*
X172246136Y-128914399D01*
X172246136Y-128914399D01*
G37*
G36*
X171510015Y-129339399D02*
X170760015Y-128040361D01*
X171877187Y-127395361D01*
X172627187Y-128694399D01*
X171510015Y-129339399D01*
X171510015Y-129339399D01*
G37*
G36*
X170981890Y-128424660D02*
X170231890Y-127125622D01*
X171349062Y-126480622D01*
X172099062Y-127779660D01*
X170981890Y-128424660D01*
X170981890Y-128424660D01*
G37*
G36*
X171718011Y-127999660D02*
X170968011Y-126700622D01*
X172085183Y-126055622D01*
X172835183Y-127354660D01*
X171718011Y-127999660D01*
X171718011Y-127999660D01*
G37*
G36*
X170245768Y-128849660D02*
X169495768Y-127550622D01*
X170612940Y-126905622D01*
X171362940Y-128204660D01*
X170245768Y-128849660D01*
X170245768Y-128849660D01*
G37*
G36*
X169509647Y-129274660D02*
X168759647Y-127975622D01*
X169876819Y-127330622D01*
X170626819Y-128629660D01*
X169509647Y-129274660D01*
X169509647Y-129274660D01*
G37*
G36*
X168981522Y-128359920D02*
X168231522Y-127060882D01*
X169348694Y-126415882D01*
X170098694Y-127714920D01*
X168981522Y-128359920D01*
X168981522Y-128359920D01*
G37*
G36*
X169717643Y-127934920D02*
X168967643Y-126635882D01*
X170084815Y-125990882D01*
X170834815Y-127289920D01*
X169717643Y-127934920D01*
X169717643Y-127934920D01*
G37*
G36*
X171189886Y-127084920D02*
X170439886Y-125785882D01*
X171557058Y-125140882D01*
X172307058Y-126439920D01*
X171189886Y-127084920D01*
X171189886Y-127084920D01*
G37*
G36*
X170453765Y-127509920D02*
X169703765Y-126210882D01*
X170820937Y-125565882D01*
X171570937Y-126864920D01*
X170453765Y-127509920D01*
X170453765Y-127509920D01*
G37*
G36*
X169925640Y-126595181D02*
X169175640Y-125296143D01*
X170292812Y-124651143D01*
X171042812Y-125950181D01*
X169925640Y-126595181D01*
X169925640Y-126595181D01*
G37*
G36*
X170661761Y-126170181D02*
X169911761Y-124871143D01*
X171028933Y-124226143D01*
X171778933Y-125525181D01*
X170661761Y-126170181D01*
X170661761Y-126170181D01*
G37*
G36*
X169189518Y-127020181D02*
X168439518Y-125721143D01*
X169556690Y-125076143D01*
X170306690Y-126375181D01*
X169189518Y-127020181D01*
X169189518Y-127020181D01*
G37*
G36*
X168453397Y-127445181D02*
X167703397Y-126146143D01*
X168820569Y-125501143D01*
X169570569Y-126800181D01*
X168453397Y-127445181D01*
X168453397Y-127445181D01*
G37*
G36*
X167925272Y-126530442D02*
X167175272Y-125231404D01*
X168292444Y-124586404D01*
X169042444Y-125885442D01*
X167925272Y-126530442D01*
X167925272Y-126530442D01*
G37*
G36*
X168661393Y-126105442D02*
X167911393Y-124806404D01*
X169028565Y-124161404D01*
X169778565Y-125460442D01*
X168661393Y-126105442D01*
X168661393Y-126105442D01*
G37*
G36*
X170133636Y-125255442D02*
X169383636Y-123956404D01*
X170500808Y-123311404D01*
X171250808Y-124610442D01*
X170133636Y-125255442D01*
X170133636Y-125255442D01*
G37*
G36*
X169397515Y-125680442D02*
X168647515Y-124381404D01*
X169764687Y-123736404D01*
X170514687Y-125035442D01*
X169397515Y-125680442D01*
X169397515Y-125680442D01*
G37*
D12*
X164249100Y-105727500D03*
D13*
X164249100Y-103187500D03*
X164249100Y-100647500D03*
D19*
X137237400Y-116130900D03*
D20*
X137237400Y-111630900D03*
D19*
X143737400Y-116130900D03*
X143737400Y-111630900D03*
X155677800Y-116016600D03*
D20*
X155677800Y-111516600D03*
D19*
X162177800Y-116016600D03*
X162177800Y-111516600D03*
D21*
X153212800Y-105359200D03*
D22*
X145592800Y-72339200D03*
X153212800Y-102819200D03*
X145592800Y-74879200D03*
X153212800Y-100279200D03*
X145592800Y-77419200D03*
X153212800Y-97739200D03*
X145592800Y-79959200D03*
X153212800Y-95199200D03*
X145592800Y-82499200D03*
X153212800Y-92659200D03*
X145592800Y-85039200D03*
X153212800Y-90119200D03*
X145592800Y-87579200D03*
X153212800Y-87579200D03*
X145592800Y-90119200D03*
X153212800Y-85039200D03*
X145592800Y-92659200D03*
X153212800Y-82499200D03*
X145592800Y-95199200D03*
X153212800Y-79959200D03*
X145592800Y-97739200D03*
X153212800Y-77419200D03*
X145592800Y-100279200D03*
X153212800Y-74879200D03*
X145592800Y-102819200D03*
X153212800Y-72339200D03*
X145592800Y-105359200D03*
D23*
X145269340Y-142602340D03*
D24*
X143878100Y-145961100D03*
X145269340Y-149319860D03*
X151986860Y-149319860D03*
X153378100Y-145961100D03*
X151986860Y-142602340D03*
D25*
X147480020Y-41869360D03*
D26*
X150020020Y-41869360D03*
X147480020Y-44409360D03*
X150020020Y-44409360D03*
X147480020Y-46949360D03*
X150020020Y-46949360D03*
D27*
X151829000Y-125369000D03*
D28*
X151829000Y-127869000D03*
X155829000Y-125369000D03*
X155829000Y-127869000D03*
X159829000Y-125369000D03*
X159829000Y-127869000D03*
D29*
X148329000Y-123619000D03*
X148329000Y-129619000D03*
X163329000Y-123619000D03*
X163329000Y-129619000D03*
M02*
