M48
INCH,TZ
T1C0.012
T2C0.016
T3C0.028
T4C0.031
T5C0.039
T6C0.039
T7C0.046
T8C0.047
T9C0.059
%
G90
G05
T1
X48379Y-49532
X48636Y-49747
X48647Y-49213
X48892Y-49962
X48903Y-49428
X48914Y-48894
X49148Y-50177
X49159Y-49643
X49170Y-49110
X49181Y-48576
X49416Y-49858
X49427Y-49325
X49438Y-48791
X49448Y-48257
X49683Y-49540
X49694Y-49006
X49705Y-48472
X49716Y-47939
X49950Y-49221
X49961Y-48688
X49972Y-48154
X49983Y-47620
X50035Y-33155
X50218Y-48903
X50228Y-48369
X50239Y-47835
X50250Y-47302
X50273Y-32814
X50309Y-33347
X50485Y-48584
X50496Y-48050
X50507Y-47517
X50512Y-32473
X50518Y-46983
X50547Y-33006
X50583Y-33539
X50750Y-32133
X50752Y-48266
X50763Y-47732
X50774Y-47198
X50786Y-32665
X50822Y-33198
X50857Y-33730
X50989Y-31792
X51019Y-47947
X51024Y-32325
X51030Y-47413
X51060Y-32857
X51096Y-33390
X51227Y-31451
X51263Y-31984
X51287Y-47628
X51299Y-32517
X51334Y-33049
X51466Y-31111
X51501Y-31643
X51537Y-32176
X51573Y-32709
X51704Y-30770
X51740Y-31303
X51776Y-31835
X51811Y-32368
X51943Y-30430
X51978Y-30962
X52014Y-31495
X52050Y-32027
X52217Y-30621
X52253Y-31154
X52288Y-31687
X52491Y-30813
X52514Y-22908
X52527Y-31346
X52765Y-31005
X52771Y-23123
X52782Y-22589
X53027Y-23338
X53038Y-22804
X53049Y-22270
X53283Y-23553
X53294Y-23019
X53305Y-22486
X53316Y-21952
X53551Y-23234
X53562Y-22701
X53573Y-22167
X53583Y-21633
X53811Y-51602
X53811Y-52017
X53811Y-52433
X53811Y-52849
X53811Y-53265
X53811Y-53681
X53811Y-54097
X53811Y-54513
X53811Y-54928
X53818Y-22916
X53829Y-22382
X53840Y-21848
X53851Y-21315
X54085Y-22597
X54096Y-22064
X54107Y-21530
X54118Y-20996
X54146Y-51602
X54146Y-52017
X54146Y-52433
X54146Y-52849
X54146Y-53265
X54146Y-53681
X54146Y-54097
X54146Y-54513
X54146Y-54928
X54353Y-22279
X54363Y-21745
X54374Y-21211
X54385Y-20678
X54480Y-51602
X54480Y-52017
X54480Y-52433
X54480Y-52849
X54480Y-53265
X54480Y-53681
X54480Y-54097
X54480Y-54513
X54480Y-54928
X54620Y-21960
X54631Y-21426
X54642Y-20893
X54653Y-20359
X54815Y-51602
X54815Y-52017
X54815Y-52433
X54815Y-52849
X54815Y-53265
X54815Y-53681
X54815Y-54097
X54815Y-54513
X54815Y-54928
X54887Y-21642
X54898Y-21108
X54909Y-20574
X55154Y-21323
X55165Y-20789
X55422Y-21004
X61281Y-21799
X61519Y-22140
X61555Y-21607
X61758Y-22481
X61793Y-21948
X61829Y-21415
X61996Y-22821
X62032Y-22289
X62068Y-21756
X62103Y-21224
X62235Y-23162
X62270Y-22629
X62306Y-22097
X62342Y-21564
X62473Y-23503
X62509Y-22970
X62545Y-22437
X62580Y-21905
X62712Y-23843
X62747Y-23311
X62783Y-22778
X62819Y-22245
X62950Y-24184
X62986Y-23651
X63022Y-23119
X63057Y-22586
X63189Y-24524
X63224Y-23992
X63260Y-23459
X63296Y-22927
X63463Y-24333
X63499Y-23800
X63534Y-23267
X63737Y-24141
X63773Y-23608
X64011Y-23949
X64853Y-34631
X65091Y-34972
X65127Y-34439
X65330Y-35313
X65365Y-34780
X65401Y-34247
X65568Y-35653
X65604Y-35121
X65640Y-34588
X65675Y-34056
X65807Y-35994
X65842Y-35461
X65878Y-34929
X65914Y-34396
X66045Y-36335
X66081Y-35802
X66117Y-35269
X66152Y-34737
X66185Y-49432
X66284Y-36675
X66319Y-36143
X66355Y-35610
X66391Y-35077
X66393Y-49793
X66474Y-49265
X66522Y-37016
X66558Y-36483
X66594Y-35951
X66600Y-50153
X66629Y-35418
X66682Y-49625
X66761Y-37356
X66764Y-49098
X66796Y-36824
X66808Y-50513
X66832Y-36291
X66868Y-35759
X66890Y-49985
X66972Y-49458
X67016Y-50873
X67035Y-37165
X67054Y-48930
X67071Y-36632
X67098Y-50346
X67106Y-36099
X67180Y-49818
X67224Y-51233
X67262Y-49291
X67306Y-50706
X67309Y-36973
X67345Y-36440
X67388Y-50178
X67432Y-51593
X67470Y-49651
X67514Y-51066
X67583Y-36781
X67596Y-50538
X67640Y-51953
X67678Y-50011
X67722Y-51426
X67804Y-50898
X67848Y-52314
X67886Y-50371
X67930Y-51786
X68012Y-51259
X68094Y-50731
X68138Y-52146
X68220Y-51619
X68302Y-51091
X68428Y-51979
X68509Y-51451
X68717Y-51812
T2
X46800Y-25905
X48315Y-45435
X48690Y-45756
X48911Y-47250
X49146Y-46356
X49890Y-29985
X50025Y-45180
X50843Y-29312
X50895Y-52910
X51135Y-28815
X51330Y-29964
X51650Y-46560
X51660Y-48975
X51730Y-40720
X51900Y-48530
X51985Y-47695
X52175Y-50590
X52248Y-27852
X52425Y-26585
X52590Y-49205
X52930Y-47025
X52975Y-46600
X52980Y-40695
X53015Y-50440
X53480Y-19285
X53545Y-31935
X53920Y-48080
X53926Y-32435
X53930Y-32845
X54030Y-28970
X54250Y-38975
X54485Y-18650
X54670Y-31535
X55150Y-48055
X55310Y-50070
X55375Y-49095
X55506Y-22429
X55575Y-31005
X55635Y-51240
X55755Y-43365
X56360Y-18350
X56385Y-50910
X56557Y-25784
X56790Y-16875
X56980Y-21800
X57420Y-45410
X58015Y-47190
X58215Y-22990
X58585Y-27215
X58775Y-21515
X58845Y-25035
X58885Y-34245
X59032Y-20456
X59180Y-23018
X59255Y-20250
X59345Y-28205
X59370Y-22550
X59785Y-24620
X60080Y-23040
X60490Y-22290
X60500Y-23230
X60665Y-23905
X60745Y-22810
X60990Y-23335
X61680Y-47940
X61710Y-36720
X61830Y-19150
X61970Y-20215
X62850Y-27195
X62900Y-47885
X63020Y-37570
X63045Y-36870
X63140Y-28270
X63205Y-29525
X63490Y-54515
X63550Y-21215
X64070Y-35460
X64440Y-32150
X64570Y-54760
X64625Y-36390
X64785Y-54150
X65265Y-24410
X65323Y-31965
X65330Y-31575
X65360Y-23880
X65395Y-21870
X65400Y-22740
X65570Y-37580
X65795Y-51125
X66450Y-31110
X66725Y-33570
X67080Y-34310
X67470Y-46650
X67480Y-34275
X67780Y-48420
X68175Y-46425
X69005Y-38435
X69015Y-37840
T3
X53305Y-28770
X59775Y-49358
X59775Y-50342
X61350Y-49358
X61350Y-50342
X62925Y-49358
X62925Y-50342
T4
X57320Y-28480
X57320Y-29480
X57320Y-30480
X57320Y-31480
X57320Y-32480
X57320Y-33480
X57320Y-34480
X57320Y-35480
X57320Y-36480
X57320Y-37480
X57320Y-38480
X57320Y-39480
X57320Y-40480
X57320Y-41480
X60320Y-28480
X60320Y-29480
X60320Y-30480
X60320Y-31480
X60320Y-32480
X60320Y-33480
X60320Y-34480
X60320Y-35480
X60320Y-36480
X60320Y-37480
X60320Y-38480
X60320Y-39480
X60320Y-40480
X60320Y-41480
T5
X54030Y-43949
X54030Y-45721
X56590Y-43949
X56590Y-45721
X61290Y-43904
X61290Y-45676
X63850Y-43904
X63850Y-45676
T6
X58063Y-16484
X58063Y-17484
X58063Y-18484
X59063Y-16484
X59063Y-17484
X59063Y-18484
T7
X56026Y-34501
X61376Y-34501
T8
X40359Y-55875
X40934Y-39690
X40972Y-52771
X41344Y-56049
X41545Y-51952
X41899Y-39949
X42119Y-51132
X42329Y-56222
X42686Y-37563
X42692Y-50313
X42865Y-40208
X43259Y-36744
X43266Y-49494
X43314Y-56396
X43831Y-40467
X43833Y-35924
X43840Y-48675
X44298Y-56569
X44406Y-35105
X44413Y-47856
X44797Y-40726
X44980Y-34286
X44987Y-47037
X45184Y-26275
X45283Y-56743
X45554Y-33467
X45560Y-46217
X45763Y-40984
X46127Y-32648
X46134Y-45398
X46150Y-26533
X46268Y-56917
X46701Y-31829
X46707Y-44579
X46729Y-41243
X47116Y-26792
X47151Y-24457
X47253Y-57090
X47274Y-31009
X47281Y-43760
X47695Y-41502
X47725Y-23638
X47848Y-30190
X48082Y-27051
X48238Y-57264
X48299Y-22819
X48421Y-29371
X48872Y-22000
X48995Y-28552
X49222Y-57438
X49446Y-21181
X50019Y-20362
X50207Y-57611
X50593Y-19542
X51166Y-18723
X51192Y-57785
X51740Y-17904
X52314Y-17085
X52887Y-16266
X53461Y-15447
X54034Y-14627
X54430Y-59115
X54430Y-60115
X54430Y-61115
X54430Y-62115
X54608Y-13808
X54885Y-63380
X55181Y-12989
X55755Y-12170
X55885Y-63380
X56645Y-57465
X56787Y-10285
X56885Y-63380
X57193Y-56143
X57193Y-58787
X57787Y-10285
X57885Y-63380
X58787Y-10285
X58885Y-63380
X59787Y-10285
X59837Y-56143
X59837Y-58787
X59885Y-63380
X60385Y-57465
X60522Y-12134
X60885Y-63380
X61096Y-12953
X61669Y-13772
X61885Y-63380
X62243Y-14591
X62510Y-59220
X62510Y-60220
X62510Y-61220
X62510Y-62220
X62816Y-15411
X63390Y-16230
X63963Y-17049
X64537Y-17868
X64665Y-39625
X64665Y-40625
X64665Y-41625
X65111Y-18687
X65684Y-19506
X66258Y-20326
X66342Y-57600
X66831Y-21145
X67327Y-57426
X67405Y-21964
X67600Y-28720
X67978Y-22783
X68174Y-29539
X68312Y-57253
X68432Y-26841
X68552Y-23602
X68747Y-30358
X69009Y-41441
X69126Y-24421
X69297Y-57079
X69321Y-31177
X69398Y-26583
X69655Y-43930
X69894Y-31997
X69974Y-41182
X70229Y-44749
X70281Y-56906
X70364Y-26324
X70468Y-32816
X70802Y-45568
X70940Y-40923
X71041Y-33635
X71266Y-56732
X71330Y-26065
X71376Y-46387
X71615Y-34454
X71906Y-40664
X71949Y-47207
X72189Y-35273
X72251Y-56558
X72523Y-48026
X72762Y-36092
X72872Y-40405
X73096Y-48845
X73236Y-56385
X73336Y-36912
X73670Y-49664
X73838Y-40147
X73909Y-37731
X74221Y-56211
X74244Y-50483
X74804Y-39888
X74817Y-51302
X75205Y-56037
X75391Y-52122
X75770Y-39629
X75964Y-52941
X76190Y-55864
X77175Y-55690
T9
X58397Y-48669
X58397Y-51031
X64303Y-48669
X64303Y-51031
T0
M30
