G04 #@! TF.FileFunction,Legend,Bot*
%FSLAX46Y46*%
G04 Gerber Fmt 4.6, Leading zero omitted, Abs format (unit mm)*
G04 Created by KiCad (PCBNEW 4.0.7) date Sunday, November 19, 2023 'AMt' 11:29:43 AM*
%MOMM*%
%LPD*%
G01*
G04 APERTURE LIST*
%ADD10C,0.020000*%
%ADD11C,0.127000*%
%ADD12C,0.150000*%
G04 APERTURE END LIST*
D10*
D11*
X142655600Y-82052000D02*
X142655600Y-83552000D01*
X143405600Y-82802000D02*
X141905600Y-82802000D01*
X133695600Y-142792000D02*
X164195600Y-142792000D01*
X164195600Y-142792000D02*
X164195600Y-84792000D01*
X164195600Y-84792000D02*
X133695600Y-84792000D01*
X133695600Y-84792000D02*
X133695600Y-142792000D01*
X155355600Y-82052000D02*
X155355600Y-83552000D01*
D12*
X131589171Y-88641286D02*
X131636790Y-88784143D01*
X131684410Y-88831762D01*
X131779648Y-88879381D01*
X131922505Y-88879381D01*
X132017743Y-88831762D01*
X132065362Y-88784143D01*
X132112981Y-88688905D01*
X132112981Y-88307952D01*
X131112981Y-88307952D01*
X131112981Y-88641286D01*
X131160600Y-88736524D01*
X131208219Y-88784143D01*
X131303457Y-88831762D01*
X131398695Y-88831762D01*
X131493933Y-88784143D01*
X131541552Y-88736524D01*
X131589171Y-88641286D01*
X131589171Y-88307952D01*
X131112981Y-89165095D02*
X131112981Y-89736524D01*
X132112981Y-89450809D02*
X131112981Y-89450809D01*
X132112981Y-90593667D02*
X132112981Y-90022238D01*
X132112981Y-90307952D02*
X131112981Y-90307952D01*
X131255838Y-90212714D01*
X131351076Y-90117476D01*
X131398695Y-90022238D01*
M02*
